<?xml version="1.0" encoding="UTF-8" standalone="no"?>
<!-- Created with Inkscape (http://www.inkscape.org/) -->

<svg
   version="1.1"
   id="svg1"
   width="689.97333"
   height="64.25267"
   viewBox="0 0 689.97333 64.25267"
   sodipodi:docname="aulogo_original.svg"
   inkscape:version="1.3.2 (1:1.3.2+202311252150+091e20ef0f)"
   xmlns:inkscape="http://www.inkscape.org/namespaces/inkscape"
   xmlns:sodipodi="http://sodipodi.sourceforge.net/DTD/sodipodi-0.dtd"
   xmlns="http://www.w3.org/2000/svg"
   xmlns:svg="http://www.w3.org/2000/svg">
  <defs
     id="defs1" />
  <sodipodi:namedview
     id="namedview1"
     pagecolor="#ffffff"
     bordercolor="#000000"
     borderopacity="0.25"
     inkscape:showpageshadow="2"
     inkscape:pageopacity="0.0"
     inkscape:pagecheckerboard="0"
     inkscape:deskcolor="#d1d1d1"
     showgrid="false"
     inkscape:zoom="2.8725748"
     inkscape:cx="146.03623"
     inkscape:cy="69.623948"
     inkscape:window-width="1850"
     inkscape:window-height="1136"
     inkscape:window-x="70"
     inkscape:window-y="27"
     inkscape:window-maximized="1"
     inkscape:current-layer="g1">
    <inkscape:page
       x="0"
       y="0"
       inkscape:label="1"
       id="page1"
       width="689.97333"
       height="64.25267"
       margin="0"
       bleed="0" />
  </sodipodi:namedview>
  <g
     id="g1"
     inkscape:groupmode="layer"
     inkscape:label="1">
    <g
       id="g49"
       transform="translate(-0.65624938)"
       inkscape:export-filename="AUpantoneBlueMPE.pdf"
       inkscape:export-xdpi="96"
       inkscape:export-ydpi="96">
      <g
         id="g48"
         transform="matrix(0.681828,0,0,0.681828,-60.173904,20.350037)">
        <path
           style="fill:#1f3f8d;fill-opacity:1;fill-rule:nonzero;stroke:none;stroke-width:1.33333"
           d="M 334.22265,48.527344"
           id="path48" />
        <path
           style="fill:#1f3f8d;fill-opacity:1;fill-rule:nonzero;stroke:none;stroke-width:1.33333"
           d="m 334.22265,48.527344 c 0.28906,0 0.57813,-0.04687 0.85937,-0.140625 0.28125,-0.09375 0.53125,-0.226562 0.75,-0.40625 0.21876,-0.1875 0.40625,-0.410156 0.56251,-0.671875 0.15625,-0.269531 0.26562,-0.582031 0.32812,-0.9375 h -2.5 v -0.703125 h 3.29688 c 0,0.554688 -0.0937,1.046875 -0.28126,1.484375 -0.17968,0.4375 -0.41797,0.8125 -0.71874,1.125 -0.3047,0.304688 -0.65235,0.539063 -1.04688,0.703125 -0.39844,0.15625 -0.8125,0.234375 -1.25,0.234375 -0.48047,0 -0.92968,-0.08984 -1.34375,-0.265625 -0.41797,-0.1875 -0.78125,-0.429687 -1.09375,-0.734375 -0.30469,-0.3125 -0.54297,-0.671875 -0.71876,-1.078125 -0.16796,-0.414062 -0.25,-0.859375 -0.25,-1.328125 0,-0.46875 0.086,-0.90625 0.26563,-1.3125 0.18751,-0.414062 0.42969,-0.773437 0.73437,-1.078125 0.31251,-0.3125 0.67188,-0.554687 1.07814,-0.734375 0.41406,-0.1875 0.85937,-0.28125 1.32812,-0.28125 0.32032,0 0.63281,0.04687 0.9375,0.140625 0.30078,0.08594 0.57812,0.210938 0.82812,0.375 0.25782,0.15625 0.48828,0.351563 0.68751,0.578125 0.20703,0.21875 0.375,0.464844 0.5,0.734375 h -0.81251 c -0.0937,-0.175781 -0.21874,-0.332031 -0.375,-0.46875 -0.15625,-0.144531 -0.32812,-0.265625 -0.51562,-0.359375 -0.17968,-0.101562 -0.375,-0.179687 -0.59375,-0.234375 -0.21875,-0.05078 -0.44531,-0.07813 -0.67188,-0.07813 -0.375,0 -0.72656,0.07422 -1.04687,0.21875 -0.32422,0.136719 -0.60546,0.328125 -0.84376,0.578125 -0.24218,0.242187 -0.42968,0.527344 -0.56249,0.859375 -0.13672,0.335937 -0.20312,0.6875 -0.20312,1.0625 0,0.375 0.0625,0.730469 0.18749,1.0625 0.1328,0.324219 0.31642,0.609375 0.54688,0.859375 0.23828,0.242187 0.51563,0.433594 0.82812,0.578125 0.32032,0.148437 0.67188,0.21875 1.04688,0.21875 z"
           id="path47" />
        <path
           style="fill:#1f3f8d;fill-opacity:1;fill-rule:nonzero;stroke:none;stroke-width:1.33333"
           d="m 324.57811,42.308594 4.56251,5.234375 v -5 h 0.70312 v 6.765625 l -4.56249,-5.21875 v 4.984375 h -0.70314 z"
           id="path46" />
        <path
           style="fill:#1f3f8d;fill-opacity:1;fill-rule:nonzero;stroke:none;stroke-width:1.33333"
           d="m 322.4453,42.542969 h 0.70313 v 6.53125 h -0.70313 z"
           id="path45" />
        <path
           style="fill:#1f3f8d;fill-opacity:1;fill-rule:nonzero;stroke:none;stroke-width:1.33333"
           d="m 316.87499,42.542969 h 2.26563 c 0.32031,0 0.61328,0.05469 0.875,0.15625 0.25781,0.09375 0.47656,0.230469 0.65625,0.40625 0.17578,0.167969 0.3125,0.367188 0.40624,0.59375 0.0937,0.230469 0.14063,0.476563 0.14063,0.734375 0,0.25 -0.0429,0.484375 -0.12493,0.703125 -0.0743,0.210938 -0.1875,0.398438 -0.34375,0.5625 -0.15625,0.15625 -0.34375,0.292969 -0.56249,0.40625 -0.21876,0.105468 -0.46876,0.171875 -0.75,0.203125 l 1.875,2.765625 h -0.84376 l -1.85944,-2.75 h -1.03126 v 2.75 h -0.70312 z m 2.21875,3.125 c 0.22656,0 0.42969,-0.03125 0.60937,-0.09375 0.18751,-0.0625 0.33595,-0.148438 0.45314,-0.265625 0.12493,-0.113282 0.21874,-0.242188 0.28125,-0.390625 0.0625,-0.15625 0.0937,-0.316406 0.0937,-0.484375 0,-0.164063 -0.0312,-0.320313 -0.0937,-0.46875 -0.0625,-0.15625 -0.15625,-0.289063 -0.28125,-0.40625 -0.1172,-0.113281 -0.26563,-0.203125 -0.45314,-0.265625 -0.17968,-0.0625 -0.38281,-0.09375 -0.60937,-0.09375 h -1.51563 v 2.46875 z"
           id="path44" />
        <path
           style="fill:#1f3f8d;fill-opacity:1;fill-rule:nonzero;stroke:none;stroke-width:1.33333"
           d="m 311.80078,42.542969 h 3.92187 v 0.65625 h -3.21875 v 2.140625 h 2.93749 v 0.65625 h -2.93749 v 2.421875 h 3.21875 v 0.65625 h -3.92187 z"
           id="path43" />
        <path
           style="fill:#1f3f8d;fill-opacity:1;fill-rule:nonzero;stroke:none;stroke-width:1.33333"
           d="m 306.72265,42.542969 h 3.92188 v 0.65625 h -3.21875 v 2.140625 h 2.93749 v 0.65625 h -2.93749 v 2.421875 h 3.21875 v 0.65625 h -3.92188 z"
           id="path42" />
        <path
           style="fill:#1f3f8d;fill-opacity:1;fill-rule:nonzero;stroke:none;stroke-width:1.33333"
           d="m 300.07811,42.308594 4.56251,5.234375 v -5 h 0.70312 v 6.765625 l -4.56249,-5.21875 v 4.984375 h -0.70314 z"
           id="path41" />
        <path
           style="fill:#1f3f8d;fill-opacity:1;fill-rule:nonzero;stroke:none;stroke-width:1.33333"
           d="m 297.9453,42.542969 h 0.70313 v 6.53125 h -0.70313 z"
           id="path40" />
        <path
           style="fill:#1f3f8d;fill-opacity:1;fill-rule:nonzero;stroke:none;stroke-width:1.33333"
           d="m 293.61327,48.527344 c 0.28907,0 0.57812,-0.04687 0.85938,-0.140625 0.28125,-0.09375 0.53125,-0.226562 0.75,-0.40625 0.21874,-0.1875 0.40625,-0.410156 0.5625,-0.671875 0.15624,-0.269531 0.26563,-0.582031 0.32812,-0.9375 h -2.5 v -0.703125 h 3.29688 c 0,0.554688 -0.0937,1.046875 -0.28125,1.484375 -0.17969,0.4375 -0.41797,0.8125 -0.71875,1.125 -0.30469,0.304688 -0.65234,0.539063 -1.04688,0.703125 -0.39844,0.15625 -0.81249,0.234375 -1.25,0.234375 -0.48046,0 -0.92968,-0.08984 -1.34374,-0.265625 -0.41798,-0.1875 -0.78126,-0.429687 -1.09375,-0.734375 -0.30469,-0.3125 -0.54297,-0.671875 -0.71876,-1.078125 -0.16796,-0.414062 -0.25,-0.859375 -0.25,-1.328125 0,-0.46875 0.086,-0.90625 0.26563,-1.3125 0.1875,-0.414062 0.42969,-0.773437 0.73437,-1.078125 0.31251,-0.3125 0.67188,-0.554687 1.07813,-0.734375 0.41406,-0.1875 0.85938,-0.28125 1.32812,-0.28125 0.32032,0 0.63282,0.04687 0.93751,0.140625 0.30077,0.08594 0.57812,0.210938 0.82812,0.375 0.25781,0.15625 0.48828,0.351563 0.68749,0.578125 0.20704,0.21875 0.375,0.464844 0.5,0.734375 h -0.81249 c -0.0937,-0.175781 -0.21875,-0.332031 -0.375,-0.46875 -0.15625,-0.144531 -0.32812,-0.265625 -0.51563,-0.359375 -0.17968,-0.101562 -0.375,-0.179687 -0.59374,-0.234375 -0.21875,-0.05078 -0.44532,-0.07813 -0.67188,-0.07813 -0.375,0 -0.72656,0.07422 -1.04687,0.21875 -0.32423,0.136719 -0.60548,0.328125 -0.84376,0.578125 -0.24219,0.242187 -0.42968,0.527344 -0.56249,0.859375 -0.13672,0.335937 -0.20314,0.6875 -0.20314,1.0625 0,0.375 0.0625,0.730469 0.18751,1.0625 0.1328,0.324219 0.3164,0.609375 0.54688,0.859375 0.23828,0.242187 0.51561,0.433594 0.82812,0.578125 0.32031,0.148437 0.67188,0.21875 1.04688,0.21875 z"
           id="path39" />
        <path
           style="fill:#1f3f8d;fill-opacity:1;fill-rule:nonzero;stroke:none;stroke-width:1.33333"
           d="m 283.96874,42.308594 4.56251,5.234375 v -5 h 0.70312 v 6.765625 l -4.5625,-5.21875 v 4.984375 h -0.70313 z"
           id="path38" />
        <path
           style="fill:#1f3f8d;fill-opacity:1;fill-rule:nonzero;stroke:none;stroke-width:1.33333"
           d="m 278.89062,42.542969 h 3.92188 v 0.65625 h -3.21876 v 2.140625 h 2.93751 v 0.65625 h -2.93751 v 2.421875 h 3.21876 v 0.65625 h -3.92188 z"
           id="path37" />
        <path
           style="fill:#1f3f8d;fill-opacity:1;fill-rule:nonzero;stroke:none;stroke-width:1.33333"
           d="m 271.14453,42.542969 h 2.26563 c 0.3203,0 0.61328,0.05469 0.875,0.15625 0.25781,0.09375 0.47656,0.230469 0.65624,0.40625 0.17578,0.167969 0.3125,0.367188 0.40625,0.59375 0.0937,0.230469 0.14063,0.476563 0.14063,0.734375 0,0.25 -0.0429,0.484375 -0.12494,0.703125 -0.0743,0.210938 -0.18749,0.398438 -0.34374,0.5625 -0.15626,0.15625 -0.34375,0.292969 -0.56251,0.40625 -0.21875,0.105468 -0.46875,0.171875 -0.75,0.203125 l 1.875,2.765625 h -0.84375 l -1.85944,-2.75 h -1.03125 v 2.75 h -0.70312 z m 2.21875,3.125 c 0.22656,0 0.42969,-0.03125 0.60937,-0.09375 0.18751,-0.0625 0.33595,-0.148438 0.45313,-0.265625 0.12494,-0.113282 0.21875,-0.242188 0.28124,-0.390625 0.0625,-0.15625 0.0937,-0.316406 0.0937,-0.484375 0,-0.164063 -0.0312,-0.320313 -0.0937,-0.46875 -0.0625,-0.15625 -0.15624,-0.289063 -0.28124,-0.40625 -0.1172,-0.113281 -0.26562,-0.203125 -0.45313,-0.265625 -0.17968,-0.0625 -0.38281,-0.09375 -0.60937,-0.09375 h -1.51563 v 2.46875 z"
           id="path36" />
        <path
           style="fill:#1f3f8d;fill-opacity:1;fill-rule:nonzero;stroke:none;stroke-width:1.33333"
           d="m 266.0664,42.542969 h 3.92188 v 0.65625 h -3.21875 v 2.140625 h 2.93749 v 0.65625 h -2.93749 v 2.421875 h 3.21875 v 0.65625 h -3.92188 z"
           id="path35" />
        <path
           style="fill:#1f3f8d;fill-opacity:1;fill-rule:nonzero;stroke:none;stroke-width:1.33333"
           d="m 262.66406,43.199219 h -1.90625 v -0.65625 h 4.53125 v 0.65625 h -1.92188 v 5.875 h -0.70312 z"
           id="path34" />
        <path
           style="fill:#1f3f8d;fill-opacity:1;fill-rule:nonzero;stroke:none;stroke-width:1.33333"
           d="m 255.21874,42.542969 h 0.70314 v 4.171875 c 0,0.34375 0.0469,0.636719 0.14062,0.875 0.1016,0.242188 0.23438,0.433594 0.39062,0.578125 0.16406,0.136719 0.34766,0.234375 0.54688,0.296875 0.20702,0.0625 0.41016,0.09375 0.60937,0.09375 0.20703,0 0.41016,-0.03125 0.60937,-0.09375 0.20704,-0.0625 0.39063,-0.160156 0.54688,-0.296875 0.15626,-0.144531 0.28126,-0.335937 0.375,-0.578125 0.1016,-0.238281 0.15626,-0.53125 0.15626,-0.875 v -4.171875 h 0.71874 v 4.28125 c 0,0.398438 -0.0743,0.746094 -0.21874,1.046875 -0.13672,0.292969 -0.32032,0.542969 -0.54688,0.75 -0.21875,0.199219 -0.47656,0.351563 -0.76563,0.453125 -0.28125,0.09375 -0.57421,0.140625 -0.875,0.140625 -0.29297,0 -0.58593,-0.04687 -0.875,-0.140625 -0.28125,-0.101562 -0.53907,-0.253906 -0.76563,-0.453125 -0.23046,-0.207031 -0.41405,-0.457031 -0.54686,-0.75 -0.13672,-0.300781 -0.20314,-0.648437 -0.20314,-1.046875 z"
           id="path33" />
        <path
           style="fill:#1f3f8d;fill-opacity:1;fill-rule:nonzero;stroke:none;stroke-width:1.33333"
           d="m 250.02344,42.542969 h 2.17186 c 0.32032,0 0.6133,0.05469 0.875,0.15625 0.25782,0.09375 0.47658,0.230469 0.65626,0.40625 0.17578,0.167969 0.3125,0.367188 0.40625,0.59375 0.0937,0.230469 0.14063,0.476563 0.14063,0.734375 0,0.261719 -0.0469,0.511719 -0.14063,0.75 -0.0937,0.230469 -0.23047,0.429688 -0.40625,0.59375 -0.17968,0.167969 -0.39844,0.304688 -0.65626,0.40625 -0.2617,0.09375 -0.55468,0.140625 -0.875,0.140625 h -1.46874 v 2.75 h -0.70312 z m 2.125,3.125 c 0.22656,0 0.42968,-0.03125 0.60937,-0.09375 0.18749,-0.0625 0.33593,-0.148438 0.45312,-0.265625 0.12493,-0.113282 0.21876,-0.242188 0.28125,-0.390625 0.0625,-0.15625 0.0937,-0.316406 0.0937,-0.484375 0,-0.164063 -0.0312,-0.320313 -0.0937,-0.46875 -0.0625,-0.15625 -0.15625,-0.289063 -0.28125,-0.40625 -0.1172,-0.113281 -0.26563,-0.203125 -0.45312,-0.265625 -0.17969,-0.0625 -0.38281,-0.09375 -0.60937,-0.09375 h -1.42188 v 2.46875 z"
           id="path32" />
        <path
           style="fill:#1f3f8d;fill-opacity:1;fill-rule:nonzero;stroke:none;stroke-width:1.33333"
           d="m 242.76953,42.308594 2.93749,3.453125 2.93751,-3.453125 v 6.765625 h -0.70313 v -4.953125 l -2.23438,2.625 -2.23437,-2.640625 v 4.96875 h -0.70312 z"
           id="path31" />
        <path
           style="fill:#1f3f8d;fill-opacity:1;fill-rule:nonzero;stroke:none;stroke-width:1.33333"
           d="m 234.99218,45.808594 c 0,-0.46875 0.0859,-0.90625 0.26563,-1.3125 0.18749,-0.414062 0.42969,-0.773437 0.73437,-1.078125 0.31251,-0.3125 0.67188,-0.554687 1.07812,-0.734375 0.41407,-0.1875 0.85939,-0.28125 1.32814,-0.28125 0.46874,0 0.90625,0.09375 1.31249,0.28125 0.41407,0.179688 0.77344,0.421875 1.07813,0.734375 0.3125,0.304688 0.55468,0.664063 0.73438,1.078125 0.18749,0.40625 0.28125,0.84375 0.28125,1.3125 0,0.46875 -0.0937,0.914063 -0.28125,1.328125 -0.1797,0.40625 -0.42188,0.765625 -0.73438,1.078125 -0.30469,0.304688 -0.66406,0.546875 -1.07813,0.734375 -0.40624,0.175781 -0.84375,0.265625 -1.31249,0.265625 -0.46875,0 -0.91407,-0.08984 -1.32814,-0.265625 -0.40624,-0.1875 -0.76561,-0.429687 -1.07812,-0.734375 -0.30468,-0.3125 -0.54688,-0.671875 -0.73437,-1.078125 -0.17969,-0.414062 -0.26563,-0.859375 -0.26563,-1.328125 z m 3.40626,-2.71875 c -0.375,0 -0.73047,0.07422 -1.06251,0.21875 -0.32421,0.136719 -0.60547,0.328125 -0.84375,0.578125 -0.23046,0.242188 -0.41406,0.527344 -0.54688,0.859375 -0.1367,0.335938 -0.20312,0.6875 -0.20312,1.0625 0,0.375 0.0664,0.730469 0.20312,1.0625 0.1328,0.324219 0.31642,0.609375 0.54688,0.859375 0.23828,0.242188 0.51954,0.433594 0.84375,0.578125 0.33204,0.148438 0.68751,0.21875 1.06251,0.21875 0.375,0 0.72265,-0.07031 1.04686,-0.21875 0.33204,-0.144531 0.6172,-0.335937 0.85939,-0.578125 0.23828,-0.25 0.42577,-0.535156 0.56249,-0.859375 0.1328,-0.332031 0.20312,-0.6875 0.20312,-1.0625 0,-0.375 -0.0703,-0.726562 -0.20312,-1.0625 -0.13672,-0.332031 -0.32421,-0.617187 -0.56249,-0.859375 -0.24219,-0.25 -0.52735,-0.441406 -0.85939,-0.578125 -0.32421,-0.144531 -0.67186,-0.21875 -1.04686,-0.21875 z"
           id="path30" />
        <path
           style="fill:#1f3f8d;fill-opacity:1;fill-rule:nonzero;stroke:none;stroke-width:1.33333"
           d="m 234.51953,47.167969 c -0.1172,0.292969 -0.27344,0.5625 -0.46875,0.8125 -0.19922,0.242188 -0.42969,0.453125 -0.6875,0.640625 -0.26172,0.1875 -0.54688,0.335938 -0.85938,0.4375 -0.3125,0.101563 -0.63672,0.15625 -0.96874,0.15625 -0.48047,0 -0.9297,-0.08984 -1.34376,-0.265625 -0.41796,-0.1875 -0.77734,-0.429687 -1.07812,-0.734375 -0.30468,-0.3125 -0.54298,-0.671875 -0.71875,-1.078125 -0.17969,-0.414062 -0.26563,-0.859375 -0.26563,-1.328125 0,-0.46875 0.0859,-0.90625 0.26563,-1.3125 0.18749,-0.414062 0.42968,-0.773437 0.73437,-1.078125 0.3125,-0.3125 0.67188,-0.554687 1.07812,-0.734375 0.41407,-0.1875 0.85938,-0.28125 1.32814,-0.28125 0.31249,0 0.61328,0.04687 0.90624,0.140625 0.28906,0.09375 0.5625,0.226563 0.8125,0.390625 0.25,0.167969 0.46875,0.359375 0.65626,0.578125 0.1953,0.21875 0.35937,0.460938 0.48437,0.71875 h -0.81251 c -0.19921,-0.332031 -0.48046,-0.601562 -0.84374,-0.8125 -0.36719,-0.21875 -0.77344,-0.328125 -1.21875,-0.328125 -0.375,0 -0.72656,0.07422 -1.04688,0.21875 -0.32421,0.136719 -0.60547,0.328125 -0.84375,0.578125 -0.24218,0.242188 -0.42969,0.527344 -0.5625,0.859375 -0.13671,0.335938 -0.20312,0.6875 -0.20312,1.0625 0,0.375 0.0664,0.730469 0.20312,1.0625 0.1328,0.335938 0.32032,0.625 0.5625,0.875 0.23828,0.242188 0.51954,0.433594 0.84375,0.578125 0.33204,0.136719 0.68751,0.203125 1.06251,0.203125 0.23828,0 0.46874,-0.03125 0.68749,-0.09375 0.22656,-0.07031 0.43751,-0.171875 0.625,-0.296875 0.18751,-0.125 0.35156,-0.269531 0.5,-0.4375 0.14453,-0.164062 0.26563,-0.34375 0.35937,-0.53125 z"
           id="path29" />
        <path
           style="fill:#1f3f8d;fill-opacity:1;fill-rule:nonzero;stroke:none;stroke-width:1.33333"
           d="m 220.90625,43.199219 v 5.21875 h 0.54687 c 0.53125,0 0.99218,-0.0625 1.39062,-0.1875 0.39454,-0.132812 0.72266,-0.316406 0.98438,-0.546875 0.25781,-0.238281 0.45704,-0.515625 0.59376,-0.828125 0.1328,-0.320312 0.20312,-0.671875 0.20312,-1.046875 0,-0.375 -0.0703,-0.722656 -0.20312,-1.046875 -0.13672,-0.320312 -0.33595,-0.597656 -0.59376,-0.828125 -0.26172,-0.226562 -0.58984,-0.40625 -0.98438,-0.53125 -0.39844,-0.132812 -0.85937,-0.203125 -1.39062,-0.203125 z m -0.70313,-0.65625 h 1.53125 c 0.53125,0 1.01563,0.08594 1.45313,0.25 0.44531,0.167969 0.82812,0.398438 1.14062,0.6875 0.3125,0.28125 0.55469,0.625 0.73438,1.03125 0.17578,0.398438 0.26562,0.828125 0.26562,1.296875 0,0.46875 -0.0899,0.90625 -0.26562,1.3125 -0.16797,0.398438 -0.41406,0.742188 -0.73438,1.03125 -0.3125,0.28125 -0.69922,0.507813 -1.15624,0.671875 -0.46095,0.167969 -0.96876,0.25 -1.53126,0.25 h -1.4375 z"
           id="path28" />
        <path
           style="fill:#1f3f8d;fill-opacity:1;fill-rule:nonzero;stroke:none;stroke-width:1.33333"
           d="m 213.5586,42.308594 4.56249,5.234375 v -5 h 0.70312 v 6.765625 l -4.56249,-5.21875 v 4.984375 h -0.70312 z"
           id="path27" />
        <path
           style="fill:#1f3f8d;fill-opacity:1;fill-rule:nonzero;stroke:none;stroke-width:1.33333"
           d="m 209.625,42.214844 3.21875,6.859375 h -0.75 l -0.8125,-1.71875 h -3.1875 l -0.73438,1.71875 h -0.76562 z m 1.35937,4.484375 -1.34375,-2.90625 -1.26562,2.90625 z"
           id="path26" />
      </g>
      <path
         style="fill:#1f3f8d;fill-opacity:1;fill-rule:nonzero;stroke:none;stroke-width:0.909102"
         d="m 162.56279,46.891758 v -4.453189 h 0.47941 v 4.005739 h 1.93895 v 0.44745 z"
         id="path25" />
      <path
         style="fill:#1f3f8d;fill-opacity:1;fill-rule:nonzero;stroke:none;stroke-width:0.909102"
         d="m 159.88342,42.214844 2.19463,4.676914 h -0.51137 l -0.55398,-1.171892 h -2.17333 l -0.50072,1.171892 h -0.52202 z m 0.92686,3.057572 -0.91621,-1.981562 -0.86294,1.981562 z"
         id="path24" />
      <path
         style="fill:#1f3f8d;fill-opacity:1;fill-rule:nonzero;stroke:none;stroke-width:0.909102"
         d="m 157.67813,45.592023 c -0.0799,0.199755 -0.18644,0.383529 -0.3196,0.553986 -0.13584,0.16513 -0.29298,0.308953 -0.46876,0.436796 -0.17845,0.127842 -0.37288,0.229052 -0.58595,0.298299 -0.21307,0.06925 -0.43413,0.106536 -0.66052,0.106536 -0.3276,0 -0.63389,-0.06125 -0.91621,-0.181111 -0.28498,-0.127842 -0.53001,-0.292972 -0.73509,-0.500717 -0.20774,-0.213071 -0.37021,-0.458103 -0.49006,-0.735096 -0.12252,-0.282319 -0.18112,-0.585946 -0.18112,-0.905553 0,-0.319606 0.0586,-0.617906 0.18112,-0.894899 0.12784,-0.282319 0.29297,-0.527351 0.50071,-0.735096 0.21307,-0.213071 0.45811,-0.378201 0.7351,-0.500717 0.28232,-0.127843 0.58594,-0.191764 0.90555,-0.191764 0.21307,0 0.41815,0.03196 0.61791,0.09588 0.19709,0.06392 0.38352,0.154477 0.55398,0.266339 0.17046,0.114526 0.31961,0.245032 0.44745,0.394182 0.13317,0.14915 0.24504,0.31428 0.33027,0.490064 h -0.55399 c -0.13583,-0.226388 -0.3276,-0.410162 -0.57529,-0.553986 -0.25036,-0.14915 -0.52736,-0.223724 -0.83098,-0.223724 -0.25569,0 -0.4954,0.0506 -0.71379,0.149149 -0.22106,0.09322 -0.41283,0.223725 -0.57529,0.394182 -0.16514,0.165131 -0.29298,0.359558 -0.38353,0.585946 -0.0932,0.229052 -0.1385,0.468757 -0.1385,0.724442 0,0.255686 0.0453,0.498055 0.1385,0.724443 0.0906,0.229052 0.21839,0.426142 0.38353,0.596599 0.16246,0.165131 0.35423,0.295637 0.57529,0.394182 0.22639,0.09322 0.46875,0.138496 0.72444,0.138496 0.16247,0 0.31961,-0.02131 0.46876,-0.06392 0.15447,-0.04794 0.2983,-0.117189 0.42614,-0.202418 0.12784,-0.08523 0.2397,-0.183774 0.34091,-0.2983 0.0985,-0.111862 0.18112,-0.234378 0.24504,-0.362221 z"
         id="path23" />
      <path
         style="fill:#1f3f8d;fill-opacity:1;fill-rule:nonzero;stroke:none;stroke-width:0.909102"
         d="m 152.14361,42.438569 h 0.4794 v 4.453189 h -0.4794 z"
         id="path22" />
      <path
         style="fill:#1f3f8d;fill-opacity:1;fill-rule:nonzero;stroke:none;stroke-width:0.909102"
         d="m 148.34561,42.438569 h 1.54477 c 0.21839,0 0.41815,0.03729 0.5966,0.106535 0.17578,0.06392 0.32493,0.157141 0.44745,0.276993 0.11985,0.114526 0.21307,0.250359 0.27699,0.404835 0.0639,0.157141 0.0959,0.324934 0.0959,0.500718 0,0.170457 -0.0293,0.33026 -0.0852,0.47941 -0.0506,0.143824 -0.12785,0.271666 -0.23438,0.383528 -0.10654,0.106536 -0.23438,0.199755 -0.38353,0.276993 -0.14915,0.07191 -0.31961,0.117189 -0.51137,0.138496 l 1.27842,1.885681 h -0.57529 l -1.26777,-1.875027 h -0.70314 v 1.875027 h -0.47941 z m 1.51281,2.130712 c 0.15447,0 0.29297,-0.02131 0.41548,-0.06392 0.12785,-0.04261 0.22906,-0.101209 0.30896,-0.181111 0.0852,-0.07724 0.14915,-0.16513 0.19177,-0.266339 0.0426,-0.106535 0.0639,-0.215734 0.0639,-0.33026 0,-0.111863 -0.0213,-0.218398 -0.0639,-0.319607 -0.0426,-0.106536 -0.10654,-0.197091 -0.19177,-0.276993 -0.0799,-0.07724 -0.18111,-0.138496 -0.30896,-0.18111 -0.12251,-0.04261 -0.26101,-0.06392 -0.41548,-0.06392 h -1.0334 v 1.683263 z"
         id="path21" />
      <path
         style="fill:#1f3f8d;fill-opacity:1;fill-rule:nonzero;stroke:none;stroke-width:0.909102"
         d="m 146.02846,42.886018 h -1.29973 v -0.447449 h 3.08953 v 0.447449 h -1.31039 v 4.00574 h -0.47941 z"
         id="path20" />
      <path
         style="fill:#1f3f8d;fill-opacity:1;fill-rule:nonzero;stroke:none;stroke-width:0.909102"
         d="m 144.53696,45.592023 c -0.0799,0.199755 -0.18644,0.383529 -0.3196,0.553986 -0.13584,0.16513 -0.29298,0.308953 -0.46876,0.436796 -0.17845,0.127842 -0.37288,0.229052 -0.58595,0.298299 -0.21307,0.06925 -0.43413,0.106536 -0.66052,0.106536 -0.32759,0 -0.63388,-0.06125 -0.91621,-0.181111 -0.28497,-0.127842 -0.53001,-0.292972 -0.73509,-0.500717 -0.20775,-0.213071 -0.37021,-0.458103 -0.49006,-0.735096 -0.12252,-0.282319 -0.18112,-0.585946 -0.18112,-0.905553 0,-0.319606 0.0586,-0.617906 0.18112,-0.894899 0.12784,-0.282319 0.29297,-0.527351 0.50071,-0.735096 0.21307,-0.213071 0.45811,-0.378201 0.7351,-0.500717 0.28232,-0.127843 0.58594,-0.191764 0.90555,-0.191764 0.21307,0 0.41816,0.03196 0.61791,0.09588 0.19709,0.06392 0.38352,0.154477 0.55398,0.266339 0.17046,0.114526 0.31961,0.245032 0.44745,0.394182 0.13318,0.14915 0.24504,0.31428 0.33026,0.490064 h -0.55398 c -0.13583,-0.226388 -0.3276,-0.410162 -0.57529,-0.553986 -0.25036,-0.14915 -0.52736,-0.223724 -0.83098,-0.223724 -0.25569,0 -0.49539,0.0506 -0.71379,0.149149 -0.22106,0.09322 -0.41282,0.223725 -0.5753,0.394182 -0.16512,0.165131 -0.29296,0.359558 -0.38352,0.585946 -0.0932,0.229052 -0.1385,0.468757 -0.1385,0.724442 0,0.255686 0.0453,0.498055 0.1385,0.724443 0.0906,0.229052 0.2184,0.426142 0.38352,0.596599 0.16248,0.165131 0.35424,0.295637 0.5753,0.394182 0.22639,0.09322 0.46875,0.138496 0.72444,0.138496 0.16247,0 0.31961,-0.02131 0.46876,-0.06392 0.15448,-0.04794 0.2983,-0.117189 0.42614,-0.202418 0.12784,-0.08523 0.23971,-0.183774 0.34091,-0.2983 0.0985,-0.111862 0.18112,-0.234378 0.24504,-0.362221 z"
         id="path19" />
      <path
         style="fill:#1f3f8d;fill-opacity:1;fill-rule:nonzero;stroke:none;stroke-width:0.909102"
         d="m 136.99424,42.438569 h 2.67404 v 0.447449 h -2.19463 v 1.459539 h 2.00287 v 0.447449 h -2.00287 v 1.651302 h 2.19463 v 0.44745 h -2.67404 z"
         id="path18" />
      <path
         style="fill:#1f3f8d;fill-opacity:1;fill-rule:nonzero;stroke:none;stroke-width:0.909102"
         d="m 134.09115,46.891758 v -4.453189 h 0.4794 v 4.005739 h 1.93895 v 0.44745 z"
         id="path17" />
      <path
         style="fill:#1f3f8d;fill-opacity:1;fill-rule:nonzero;stroke:none;stroke-width:0.909102"
         d="m 130.62874,42.438569 h 2.67404 v 0.447449 h -2.19463 v 1.459539 h 2.00287 v 0.447449 h -2.00287 v 1.651302 h 2.19463 v 0.44745 h -2.67404 z"
         id="path16" />
      <path
         style="fill:#1f3f8d;fill-opacity:1;fill-rule:nonzero;stroke:none;stroke-width:0.909102"
         d="m 125.83197,42.438569 h 2.5462 v 0.447449 h -2.06679 v 1.459539 h 1.87503 v 0.447449 h -1.87503 v 2.098752 h -0.47941 z"
         id="path15" />
      <path
         style="fill:#1f3f8d;fill-opacity:1;fill-rule:nonzero;stroke:none;stroke-width:0.909102"
         d="m 120.5265,44.665163 c 0,-0.319606 0.0586,-0.617906 0.18111,-0.894899 0.12784,-0.282319 0.29297,-0.527351 0.50072,-0.735096 0.21307,-0.213071 0.4581,-0.378201 0.73509,-0.500717 0.28232,-0.127843 0.58595,-0.191764 0.90556,-0.191764 0.3196,0 0.6179,0.06392 0.89489,0.191764 0.28232,0.122516 0.52735,0.287646 0.7351,0.500717 0.21307,0.207745 0.3782,0.452777 0.50072,0.735096 0.12784,0.276993 0.19176,0.575293 0.19176,0.894899 0,0.319607 -0.0639,0.623234 -0.19176,0.905553 -0.12252,0.276993 -0.28765,0.522025 -0.50072,0.735096 -0.20775,0.207745 -0.45278,0.372875 -0.7351,0.500717 -0.27699,0.119853 -0.57529,0.181111 -0.89489,0.181111 -0.31961,0 -0.62324,-0.06125 -0.90556,-0.181111 -0.27699,-0.127842 -0.52202,-0.292972 -0.73509,-0.500717 -0.20775,-0.213071 -0.37288,-0.458103 -0.50072,-0.735096 -0.12252,-0.282319 -0.18111,-0.585946 -0.18111,-0.905553 z m 2.32248,-1.853719 c -0.25569,0 -0.49806,0.0506 -0.72445,0.149149 -0.22106,0.09322 -0.41282,0.223725 -0.57529,0.394182 -0.15714,0.165131 -0.28232,0.359558 -0.37288,0.585946 -0.0932,0.229052 -0.13849,0.468757 -0.13849,0.724442 0,0.255686 0.0453,0.498055 0.13849,0.724443 0.0906,0.221061 0.21574,0.415489 0.37288,0.585946 0.16247,0.16513 0.35423,0.295636 0.57529,0.394181 0.22639,0.10121 0.46876,0.14915 0.72445,0.14915 0.25568,0 0.49272,-0.04794 0.71378,-0.14915 0.22639,-0.09854 0.42082,-0.229051 0.58595,-0.394181 0.16247,-0.170457 0.29031,-0.364885 0.38353,-0.585946 0.0905,-0.226388 0.13849,-0.468757 0.13849,-0.724443 0,-0.255685 -0.0479,-0.49539 -0.13849,-0.724442 -0.0932,-0.226388 -0.22106,-0.420815 -0.38353,-0.585946 -0.16513,-0.170457 -0.35956,-0.300963 -0.58595,-0.394182 -0.22106,-0.09855 -0.4581,-0.149149 -0.71378,-0.149149 z"
         id="path14" />
      <path
         style="fill:#1f3f8d;fill-opacity:1;fill-rule:nonzero;stroke:none;stroke-width:0.909102"
         d="m 116.95755,42.886018 h -1.29973 v -0.447449 h 3.08953 v 0.447449 h -1.31038 v 4.00574 h -0.47942 z"
         id="path13" />
      <path
         style="fill:#1f3f8d;fill-opacity:1;fill-rule:nonzero;stroke:none;stroke-width:0.909102"
         d="m 111.53223,42.278765 3.11084,3.568944 v -3.40914 h 0.47941 v 4.612992 l -3.11084,-3.558289 v 3.398486 h -0.47941 z"
         id="path12" />
      <path
         style="fill:#1f3f8d;fill-opacity:1;fill-rule:nonzero;stroke:none;stroke-width:0.909102"
         d="m 108.06981,42.438569 h 2.67405 v 0.447449 h -2.19463 v 1.459539 h 2.00287 v 0.447449 h -2.00287 v 1.651302 h 2.19463 v 0.44745 h -2.67405 z"
         id="path11" />
      <path
         style="fill:#1f3f8d;fill-opacity:1;fill-rule:nonzero;stroke:none;stroke-width:0.909102"
         d="m 103.12657,42.278765 2.00287,2.354438 2.00287,-2.354438 v 4.612993 h -0.47942 v -3.377179 l -1.52345,1.789798 -1.52346,-1.800452 v 3.387833 h -0.47941 z"
         id="path10" />
      <path
         style="fill:#1f3f8d;fill-opacity:1;fill-rule:nonzero;stroke:none;stroke-width:0.909102"
         d="m 100.80675,42.886018 h -1.299733 v -0.447449 h 3.089533 v 0.447449 h -1.31039 v 4.00574 h -0.47941 z"
         id="path9" />
      <path
         style="fill:#1f3f8d;fill-opacity:1;fill-rule:nonzero;stroke:none;stroke-width:0.909102"
         d="m 96.156473,42.438569 h 1.544763 c 0.218403,0 0.418158,0.03729 0.596599,0.106535 0.175789,0.06392 0.324939,0.157141 0.44745,0.276993 0.119859,0.114526 0.213071,0.250359 0.276993,0.404835 0.06389,0.157141 0.09588,0.324934 0.09588,0.500718 0,0.170457 -0.02932,0.33026 -0.08523,0.47941 -0.05059,0.143824 -0.127843,0.271666 -0.234379,0.383528 -0.106535,0.106536 -0.234378,0.199755 -0.383528,0.276993 -0.14915,0.07191 -0.319607,0.117189 -0.511371,0.138496 l 1.278428,1.885681 H 98.606792 L 97.339015,45.016731 H 96.63588 v 1.875027 h -0.479407 z m 1.512806,2.130712 c 0.154475,0 0.292974,-0.02131 0.415485,-0.06392 0.127843,-0.04261 0.229054,-0.101209 0.308957,-0.181111 0.08523,-0.07724 0.14915,-0.16513 0.191764,-0.266339 0.04261,-0.106535 0.06389,-0.215734 0.06389,-0.33026 0,-0.111863 -0.02134,-0.218398 -0.06389,-0.319607 -0.04261,-0.106536 -0.106536,-0.197091 -0.191764,-0.276993 -0.0799,-0.07724 -0.181114,-0.138496 -0.308957,-0.18111 -0.122511,-0.04261 -0.26101,-0.06392 -0.415485,-0.06392 H 96.63588 v 1.683263 z"
         id="path8" />
      <path
         style="fill:#1f3f8d;fill-opacity:1;fill-rule:nonzero;stroke:none;stroke-width:0.909102"
         d="m 93.477101,42.214844 2.194633,4.676914 h -0.511371 l -0.553985,-1.171892 h -2.173326 l -0.500716,1.171892 H 91.41031 Z m 0.926862,3.057572 -0.916208,-1.981562 -0.862939,1.981562 z"
         id="path7" />
      <path
         style="fill:#1f3f8d;fill-opacity:1;fill-rule:nonzero;stroke:none;stroke-width:0.909102"
         d="m 88.304797,42.438569 h 1.480845 c 0.218398,0 0.418152,0.03729 0.5966,0.106535 0.175783,0.06392 0.324933,0.157141 0.44745,0.276993 0.119852,0.114526 0.213071,0.250359 0.276992,0.404835 0.06392,0.157141 0.09588,0.324934 0.09588,0.500718 0,0.178447 -0.03196,0.348904 -0.09588,0.511371 -0.06392,0.15714 -0.15714,0.292973 -0.276992,0.404835 -0.122517,0.114526 -0.271667,0.207745 -0.44745,0.276993 -0.178448,0.06392 -0.378202,0.09588 -0.5966,0.09588 h -1.001434 v 1.875027 h -0.479411 z m 1.448884,2.130712 c 0.154477,0 0.292973,-0.02131 0.41549,-0.06392 0.127842,-0.04261 0.229052,-0.101209 0.308952,-0.181111 0.08523,-0.07724 0.149151,-0.16513 0.191765,-0.266339 0.04261,-0.106535 0.06392,-0.215734 0.06392,-0.33026 0,-0.111863 -0.02131,-0.218398 -0.06392,-0.319607 -0.04261,-0.106536 -0.106536,-0.197091 -0.191765,-0.276993 -0.0799,-0.07724 -0.18111,-0.138496 -0.308952,-0.18111 -0.122517,-0.04261 -0.261013,-0.06392 -0.41549,-0.06392 h -0.969473 v 1.683263 z"
         id="path6" />
      <path
         style="fill:#1f3f8d;fill-opacity:1;fill-rule:nonzero;stroke:none;stroke-width:0.909102"
         d="m 84.842389,42.438569 h 2.674045 v 0.447449 H 85.3218 v 1.459539 h 2.002869 v 0.447449 H 85.3218 v 1.651302 h 2.194634 v 0.44745 h -2.674045 z"
         id="path5" />
      <path
         style="fill:#1f3f8d;fill-opacity:1;fill-rule:nonzero;stroke:none;stroke-width:0.909102"
         d="m 81.16691,42.886018 v 3.55829 h 0.372875 c 0.362221,0 0.676501,-0.04261 0.948167,-0.127842 0.269002,-0.09055 0.492727,-0.215735 0.671175,-0.372875 0.175783,-0.162467 0.311616,-0.351568 0.404835,-0.564639 0.09055,-0.218398 0.138496,-0.458103 0.138496,-0.713789 0,-0.255685 -0.04794,-0.492727 -0.138496,-0.713788 -0.09322,-0.218398 -0.229052,-0.407499 -0.404835,-0.564639 -0.178448,-0.154476 -0.402173,-0.276993 -0.671175,-0.362221 -0.271666,-0.09056 -0.585946,-0.138497 -0.948167,-0.138497 z M 80.6875,42.438569 h 1.044049 c 0.362221,0 0.692482,0.0586 0.990781,0.170457 0.303627,0.114526 0.564639,0.271666 0.777711,0.468757 0.213071,0.191764 0.378201,0.426142 0.500717,0.703135 0.119852,0.271666 0.181111,0.564639 0.181111,0.884245 0,0.319607 -0.06126,0.617907 -0.181111,0.8949 -0.114526,0.271666 -0.28232,0.506044 -0.500717,0.703135 -0.213072,0.191764 -0.476748,0.346241 -0.788364,0.458103 -0.314281,0.114526 -0.660521,0.170457 -1.044049,0.170457 H 80.6875 Z"
         id="path2" />
    </g>
    <path
       id="path3"
       d="m 84.796875,6.5546874 5.0625,10.7812496 h -1.1875 l -1.265625,-2.71875 h -5.015625 l -1.171875,2.71875 h -1.1875 z M 86.9375,13.601562 84.8125,9.0234373 82.828125,13.601562 Z m 7.746093,-7.0468746 5.0625,10.7812496 h -1.1875 l -1.265624,-2.71875 h -5.015626 l -1.171874,2.71875 h -1.1875 z m 2.140625,7.0468746 -2.125,-4.5781247 -1.984375,4.5781247 z m 4.023442,-6.5312495 h 3.57812 c 0.5,0 0.95313,0.078125 1.35938,0.2343749 0.40625,0.15625 0.75,0.3710937 1.03125,0.640625 0.28125,0.2617187 0.49218,0.5742187 0.64062,0.9375 0.15625,0.3671875 0.23438,0.75 0.23438,1.1562496 0,0.386719 -0.0625,0.75 -0.1875,1.09375 -0.125,0.335938 -0.3125,0.632813 -0.5625,0.890625 -0.24219,0.25 -0.53907,0.464844 -0.89063,0.640625 -0.34375,0.167969 -0.73437,0.277344 -1.17187,0.328125 l 2.95312,4.34375 h -1.32812 l -2.9375,-4.328125 h -1.60938 v 4.328125 h -1.10937 z m 3.5,4.9062495 c 0.36328,0 0.6875,-0.04687 0.96875,-0.140625 0.28125,-0.101562 0.51562,-0.242187 0.70312,-0.421875 0.1875,-0.175781 0.32813,-0.378906 0.42188,-0.609375 0.10156,-0.238281 0.15625,-0.492187 0.15625,-0.765625 0,-0.2578121 -0.0547,-0.5078121 -0.15625,-0.7499996 -0.0937,-0.2382813 -0.23438,-0.4453125 -0.42188,-0.625 -0.1875,-0.1757813 -0.42187,-0.3164062 -0.70312,-0.421875 -0.28125,-0.1015627 -0.60547,-0.15625 -0.96875,-0.15625 h -2.39063 v 3.8906246 z m 5.15625,-4.9062495 h 1.10937 v 4.3906245 h 5.42188 V 7.0703125 h 1.10937 V 17.335937 h -1.10937 v -4.84375 h -5.42188 v 4.84375 h -1.10937 z m 9.75,0 h 1.10937 v 6.5468745 c 0,0.554688 0.0781,1.015625 0.23437,1.390625 0.15626,0.367188 0.35938,0.664063 0.60938,0.890625 0.25,0.230469 0.53125,0.390625 0.84375,0.484375 0.32031,0.09375 0.64453,0.140625 0.96875,0.140625 0.32031,0 0.64062,-0.04687 0.95312,-0.140625 0.32032,-0.09375 0.60938,-0.253906 0.85938,-0.484375 0.25,-0.226562 0.45312,-0.523437 0.60938,-0.890625 0.15624,-0.375 0.23437,-0.835937 0.23437,-1.390625 V 7.0703125 h 1.10937 v 6.7187495 c 0,0.625 -0.10937,1.171875 -0.32812,1.640625 -0.21094,0.46875 -0.49219,0.867188 -0.84375,1.1875 -0.35547,0.3125 -0.76172,0.546875 -1.21875,0.703125 -0.44922,0.15625 -0.90625,0.234375 -1.375,0.234375 -0.46875,0 -0.92969,-0.07813 -1.375,-0.234375 -0.44922,-0.15625 -0.85547,-0.390625 -1.21875,-0.703125 -0.35547,-0.320312 -0.64062,-0.71875 -0.85937,-1.1875 -0.21094,-0.46875 -0.3125,-1.015625 -0.3125,-1.640625 z m 10.23046,7.2656245 c 0,0.3125 0.0508,0.605469 0.15625,0.875 0.10156,0.261719 0.24219,0.492188 0.42188,0.6875 0.1875,0.199219 0.41015,0.355469 0.67187,0.46875 0.25782,0.105469 0.55078,0.15625 0.875,0.15625 0.32032,0 0.61719,-0.04687 0.89063,-0.140625 0.26953,-0.101562 0.5,-0.25 0.6875,-0.4375 0.19531,-0.1875 0.34765,-0.40625 0.45312,-0.65625 0.11328,-0.25 0.17188,-0.519531 0.17188,-0.8125 0,-0.269531 -0.0586,-0.507812 -0.17188,-0.71875 -0.11718,-0.207031 -0.27343,-0.382812 -0.46875,-0.53125 -0.19922,-0.15625 -0.42968,-0.289062 -0.6875,-0.40625 -0.26172,-0.125 -0.52734,-0.242187 -0.79687,-0.359375 -0.38672,-0.144531 -0.75781,-0.289062 -1.10938,-0.4375 -0.34375,-0.15625 -0.65234,-0.335937 -0.92187,-0.546875 C 129.38281,11.257812 129.16406,11 129,10.695312 c -0.16797,-0.300781 -0.25,-0.679687 -0.25,-1.1406247 0,-0.375 0.0664,-0.7265624 0.20312,-1.0624999 0.14453,-0.3320312 0.34375,-0.6171875 0.59375,-0.859375 0.25,-0.25 0.55078,-0.4414062 0.90625,-0.578125 0.35157,-0.132812 0.73829,-0.2031249 1.15625,-0.2031249 0.4375,0 0.83204,0.074219 1.1875,0.21875 0.35157,0.1484374 0.65625,0.3515625 0.90625,0.6093749 0.25782,0.25 0.45703,0.546875 0.59375,0.890625 0.13282,0.34375 0.20313,0.7265625 0.20313,1.1406249 h -1.125 c 0,-0.5625 -0.16797,-1.0078124 -0.5,-1.3437499 -0.32422,-0.3320312 -0.74609,-0.5 -1.26563,-0.5 -0.52343,0 -0.94531,0.15625 -1.26562,0.46875 -0.32422,0.3125 -0.48438,0.7187499 -0.48438,1.2187499 0,0.28125 0.0625,0.5156247 0.1875,0.7031247 0.125,0.1875 0.28516,0.355469 0.48438,0.5 0.20703,0.136719 0.44531,0.261719 0.71875,0.375 0.26953,0.117188 0.55078,0.230469 0.84375,0.34375 0.375,0.148438 0.72656,0.296875 1.0625,0.453125 0.34375,0.15625 0.64062,0.351563 0.89062,0.578125 0.25782,0.21875 0.46875,0.484375 0.625,0.796875 0.15625,0.3125 0.23438,0.703125 0.23438,1.171875 0,0.460938 -0.0859,0.875 -0.25,1.25 -0.16797,0.375 -0.40234,0.703125 -0.70313,0.984375 -0.30468,0.273438 -0.65625,0.480469 -1.0625,0.625 -0.39843,0.144531 -0.82421,0.21875 -1.28125,0.21875 -0.46093,0 -0.88672,-0.07813 -1.28125,-0.234375 -0.38671,-0.164062 -0.72656,-0.390625 -1.01562,-0.671875 -0.28125,-0.289062 -0.50781,-0.628906 -0.67188,-1.015625 -0.16797,-0.394531 -0.25,-0.828125 -0.25,-1.296875 z m -48.45312,8.679687 h 1.109375 v 6.546875 c 0,0.554688 0.07813,1.015625 0.234375,1.390626 0.15625,0.367186 0.359375,0.664062 0.609375,0.890625 0.25,0.230468 0.53125,0.390624 0.84375,0.484375 0.320312,0.09375 0.644531,0.140625 0.96875,0.140625 0.320312,0 0.640625,-0.04688 0.953125,-0.140625 0.320312,-0.09375 0.609375,-0.253907 0.859375,-0.484375 0.25,-0.226563 0.453125,-0.523439 0.609375,-0.890625 0.15625,-0.375001 0.234375,-0.835938 0.234375,-1.390626 V 23.015624 H 88.5625 v 6.71875 c 0,0.625 -0.109375,1.171876 -0.328125,1.640625 -0.210938,0.468751 -0.492188,0.867188 -0.84375,1.1875 -0.355469,0.3125 -0.761719,0.546875 -1.21875,0.703126 -0.449219,0.156249 -0.90625,0.234374 -1.375,0.234374 -0.46875,0 -0.929688,-0.07812 -1.375,-0.234374 -0.449219,-0.156251 -0.855469,-0.390626 -1.21875,-0.703126 -0.355469,-0.320312 -0.640625,-0.718749 -0.859375,-1.1875 -0.210938,-0.468749 -0.3125,-1.015625 -0.3125,-1.640625 z m 9.640625,-0.374999 7.187499,8.234374 v -7.859375 h 1.093751 V 33.640625 L 91.78125,25.453124 v 7.828126 h -1.109375 z m 10.535155,0.374999 h 1.10938 V 33.28125 h -1.10938 z m 2.41406,0 h 1.20313 l 3.40625,8.078126 3.17187,-8.078126 h 1.17188 l -4.32813,10.78125 z m 10.17969,0 h 6.17188 v 1.015625 h -5.0625 v 3.375 h 4.625 v 1.03125 h -4.625 v 3.8125 h 5.0625 v 1.031251 h -6.17188 z m 7.97656,0 h 3.57813 c 0.5,0 0.95312,0.07813 1.35937,0.234376 0.40625,0.15625 0.75,0.371093 1.03125,0.640624 0.28125,0.261719 0.49219,0.574219 0.64063,0.9375 0.15625,0.367188 0.23437,0.75 0.23437,1.15625 0,0.386719 -0.0625,0.75 -0.1875,1.09375 -0.125,0.335938 -0.3125,0.632813 -0.5625,0.890625 -0.24218,0.25 -0.53906,0.464844 -0.89062,0.640625 -0.34375,0.167969 -0.73438,0.277344 -1.17188,0.328125 l 2.95313,4.343751 h -1.32813 l -2.9375,-4.328126 h -1.60937 v 4.328126 h -1.10938 z m 3.5,4.90625 c 0.36328,0 0.6875,-0.04687 0.96875,-0.140625 0.28125,-0.101562 0.51563,-0.242187 0.70313,-0.421875 0.1875,-0.175781 0.32812,-0.378906 0.42187,-0.609375 0.10156,-0.238281 0.15625,-0.492187 0.15625,-0.765625 0,-0.257812 -0.0547,-0.507812 -0.15625,-0.75 -0.0937,-0.238281 -0.23437,-0.445312 -0.42187,-0.625 -0.1875,-0.175781 -0.42188,-0.316406 -0.70313,-0.421875 -0.28125,-0.101562 -0.60547,-0.15625 -0.96875,-0.15625 h -2.39062 v 3.890625 z m 5.7461,2.359375 c 0,0.3125 0.0508,0.605469 0.15625,0.875001 0.10156,0.261719 0.24218,0.492187 0.42187,0.6875 0.1875,0.199219 0.41016,0.355468 0.67188,0.468749 0.25781,0.105467 0.55078,0.156251 0.875,0.156251 0.32031,0 0.61718,-0.04688 0.89062,-0.140625 0.26953,-0.10156 0.5,-0.25 0.6875,-0.4375 0.19531,-0.1875 0.34766,-0.406251 0.45313,-0.656251 0.11328,-0.25 0.17187,-0.519531 0.17187,-0.8125 0,-0.269531 -0.0586,-0.507812 -0.17187,-0.71875 -0.11719,-0.207031 -0.27344,-0.382812 -0.46875,-0.53125 -0.19922,-0.15625 -0.42969,-0.289062 -0.6875,-0.40625 -0.26172,-0.125 -0.52735,-0.242187 -0.79688,-0.359375 -0.38672,-0.144531 -0.75781,-0.289062 -1.10937,-0.4375 -0.34375,-0.15625 -0.65235,-0.335937 -0.92188,-0.546875 -0.27344,-0.21875 -0.49219,-0.476562 -0.65625,-0.78125 -0.16797,-0.300781 -0.25,-0.679687 -0.25,-1.140625 0,-0.375 0.0664,-0.726562 0.20313,-1.0625 0.14453,-0.332031 0.34375,-0.617187 0.59375,-0.859375 0.25,-0.25 0.55078,-0.441406 0.90625,-0.578124 0.35156,-0.132812 0.73828,-0.203126 1.15625,-0.203126 0.4375,0 0.83203,0.07422 1.1875,0.21875 0.35156,0.148438 0.65625,0.351563 0.90625,0.609376 0.25781,0.25 0.45703,0.546874 0.59375,0.890624 0.13281,0.34375 0.20312,0.726563 0.20312,1.140625 h -1.125 c 0,-0.5625 -0.16797,-1.007812 -0.5,-1.34375 -0.32422,-0.332031 -0.74609,-0.499999 -1.26562,-0.499999 -0.52344,0 -0.94532,0.15625 -1.26563,0.468749 -0.32422,0.3125 -0.48437,0.71875 -0.48437,1.21875 0,0.28125 0.0625,0.515625 0.1875,0.703125 0.125,0.1875 0.28515,0.355469 0.48437,0.5 0.20703,0.136719 0.44531,0.261719 0.71875,0.375 0.26953,0.117188 0.55078,0.230469 0.84375,0.34375 0.375,0.148438 0.72656,0.296875 1.0625,0.453125 0.34375,0.15625 0.64063,0.351563 0.89063,0.578125 0.25781,0.21875 0.46875,0.484375 0.625,0.796875 0.15625,0.3125 0.23437,0.703125 0.23437,1.171875 0,0.460937 -0.0859,0.875 -0.25,1.25 -0.16797,0.375 -0.40234,0.703125 -0.70312,0.984376 -0.30469,0.273437 -0.65625,0.480468 -1.0625,0.625 -0.39844,0.144531 -0.82422,0.218749 -1.28125,0.218749 -0.46094,0 -0.88672,-0.07812 -1.28125,-0.234374 -0.38672,-0.164063 -0.72657,-0.390626 -1.01563,-0.671875 -0.28125,-0.289063 -0.50781,-0.628907 -0.67187,-1.015625 -0.16797,-0.394532 -0.25,-0.828126 -0.25,-1.296876 z m 7.17187,-7.265625 h 1.10938 V 33.28125 h -1.10938 z m 5.42969,1.015625 h -3.01563 v -1.015625 h 7.125 v 1.015625 h -3.01562 V 33.28125 H 143.625 Z m 7.84765,4.453125 -3.51562,-5.46875 h 1.28125 l 2.79687,4.453125 2.78125,-4.453125 h 1.29688 l -3.54688,5.5 v 4.765626 h -1.09375 z m 0,0"
       style="fill:#1f3f8d;fill-opacity:1;fill-rule:nonzero;stroke:none;stroke-width:1.33333"
       aria-label="AARHUS                                                                &#10;UNIVERSITY                                                            " />
    <path
       id="path4"
       d="M 33.33203,12.660156 12.628906,33.332031 H 1.3320312 L 33.33203,1.3320311 Z m 31.999999,4.671875 c 0,2.21875 -0.417968,4.304688 -1.25,6.25 -0.835937,1.9375 -1.976561,3.625 -3.421875,5.0625 -1.449218,1.4375 -3.148437,2.578125 -5.093749,3.421875 -1.9375,0.84375 -4.015625,1.265625 -6.234376,1.265625 -1.468749,0 -2.886718,-0.191406 -4.249999,-0.578125 -1.367187,-0.382813 -2.640624,-0.921875 -3.828124,-1.609375 -1.1875,-0.695312 -2.265626,-1.53125 -3.234376,-2.5 -0.96875,-0.96875 -1.804687,-2.046875 -2.5,-3.234375 -0.6875,-1.1875 -1.226562,-2.460937 -1.609375,-3.828125 -0.386719,-1.363281 -0.578125,-2.78125 -0.578125,-4.25 h 8 c 0,1.085938 0.210938,2.117188 0.640625,3.09375 0.425781,0.96875 1,1.820313 1.718751,2.546875 0.726562,0.71875 1.578124,1.292969 2.546874,1.71875 0.976563,0.429688 2.007812,0.640625 3.093749,0.640625 1.101563,0 2.140626,-0.210937 3.109376,-0.640625 0.976563,-0.425781 1.828124,-1 2.546875,-1.71875 0.726563,-0.726562 1.300781,-1.578125 1.718749,-2.546875 0.414063,-0.976562 0.625,-2.007812 0.625,-3.09375 z m 0,0"
       style="fill:#1f3f8d;fill-opacity:1;fill-rule:nonzero;stroke:none;stroke-width:1.33333"
       aria-label="AU" />
  </g>
</svg>
