<svg xmlns="http://www.w3.org/2000/svg" xmlns:xlink="http://www.w3.org/1999/xlink" width="336" height="288" viewBox="0 0 252 216"><defs><style>*{stroke-linejoin:round;stroke-linecap:butt}</style></defs><g id="figure_1"><path id="patch_1" d="M0 216h252V0H0z" style="fill:#fff"/><g id="axes_1"><path id="patch_2" d="M35.89 188.84H241.2V14.4H35.89z" style="fill:#eff1f5"/><g id="matplotlib.axis_1"><g id="xtick_1"><path id="line2d_1" d="M87.549 188.84V14.4" clip-path="url(#p4a4fad5eb3)" style="fill:none;stroke:#fff;stroke-width:.8;stroke-linecap:round"/><g id="text_1" style="fill:#4c4f69" transform="matrix(.1 0 0 -.1 81.549 203.14)"><defs><path id="JetBrainsMonoNFM-Regular-34" d="M2560 0v1024H448v902l1702 2746h653L1024 1798v-249h1536v1139h576V0z" transform="scale(.01563)"/><path id="JetBrainsMonoNFM-Regular-30" d="M1920-64q-646 0-1027 374-381 375-381 1002v2048q0 627 381 1001 381 375 1027 375t1027-375q381-374 381-1001V1312q0-416-173-727-173-310-490-480-316-169-745-169m0 493q384 0 617 246 234 247 234 637v2048q0 390-234 636-233 247-617 247t-618-247q-233-246-233-636V1312q0-390 233-637 234-246 618-246m0 1555q-173 0-279 96-105 96-105 275 0 173 105 266 106 93 279 93t278-93q106-93 106-266 0-179-106-275-105-96-278-96" transform="scale(.01563)"/></defs><use xlink:href="#JetBrainsMonoNFM-Regular-34"/><use xlink:href="#JetBrainsMonoNFM-Regular-30" x="60"/></g></g><g id="xtick_2"><path id="line2d_2" d="M145.83 188.84V14.4" clip-path="url(#p4a4fad5eb3)" style="fill:none;stroke:#fff;stroke-width:.8;stroke-linecap:round"/><g id="text_2" style="fill:#4c4f69" transform="matrix(.1 0 0 -.1 139.83 203.14)"><defs><path id="JetBrainsMonoNFM-Regular-36" d="M1926-64q-448 0-790 189T602 650t-192 777q0 307 115 630 115 324 313 676l1082 1939h640L1408 2669l19-13q83 109 249 166 167 58 366 58 416 0 726-183 310-182 486-502t176-742q0-448-192-791-192-342-528-534T1926-64m-6 512q416 0 675 275t259 717-259 717-675 275-675-275-259-717 259-717 675-275" transform="scale(.01563)"/></defs><use xlink:href="#JetBrainsMonoNFM-Regular-36"/><use xlink:href="#JetBrainsMonoNFM-Regular-30" x="60"/></g></g><g id="xtick_3"><path id="line2d_3" d="M204.112 188.84V14.4" clip-path="url(#p4a4fad5eb3)" style="fill:none;stroke:#fff;stroke-width:.8;stroke-linecap:round"/><g id="text_3" style="fill:#4c4f69" transform="matrix(.1 0 0 -.1 198.112 203.14)"><defs><path id="JetBrainsMonoNFM-Regular-38" d="M1920-64q-442 0-781 173T611 592t-189 714q0 441 253 761t675 391v19q-364 83-582 368t-218 656q0 365 173 643t483 435q311 157 714 157 410 0 717-157t480-435 173-643q0-371-218-656t-582-368v-19q422-71 675-391t253-761q0-404-189-714t-525-483-784-173m0 2765q358 0 576 211t218 550q0 340-218 551t-576 211q-352 0-573-211t-221-551q0-339 221-550t573-211m0-2247q410 0 666 240t256 624q0 391-256 631t-666 240-666-240-256-631q0-384 256-624t666-240" transform="scale(.01563)"/></defs><use xlink:href="#JetBrainsMonoNFM-Regular-38"/><use xlink:href="#JetBrainsMonoNFM-Regular-30" x="60"/></g></g></g><g id="matplotlib.axis_2"><g id="ytick_1"><path id="line2d_4" d="M35.89 188.84H241.2" clip-path="url(#p4a4fad5eb3)" style="fill:none;stroke:#fff;stroke-width:.8;stroke-linecap:round"/><g id="text_4" style="fill:#4c4f69" transform="matrix(.1 0 0 -.1 10.89 192.49)"><defs><path id="JetBrainsMonoNFM-Regular-2d" d="M896 1856v512h2048v-512z" transform="scale(.01563)"/><path id="JetBrainsMonoNFM-Regular-33" d="M1850-64q-647 0-1025 361-377 362-377 983h576q0-384 224-608t608-224 608 224 224 608v320q0 384-224 608t-608 224h-506v499l1146 1216H576v525h2573v-538L2022 2938q576-45 909-401 333-355 333-937v-320q0-621-381-983Q2502-64 1850-64" transform="scale(.01563)"/></defs><use xlink:href="#JetBrainsMonoNFM-Regular-2d"/><use xlink:href="#JetBrainsMonoNFM-Regular-33" x="60"/><use xlink:href="#JetBrainsMonoNFM-Regular-30" x="120"/></g></g><g id="ytick_2"><path id="line2d_5" d="M35.89 159.767H241.2" clip-path="url(#p4a4fad5eb3)" style="fill:none;stroke:#fff;stroke-width:.8;stroke-linecap:round"/><g id="text_5" style="fill:#4c4f69" transform="matrix(.1 0 0 -.1 10.89 163.417)"><defs><path id="JetBrainsMonoNFM-Regular-32" d="M550 0v531l1556 1664q339 359 479 640 141 282 141 551 0 384-221 611-220 227-598 227-390 0-618-234-227-233-227-630H486q20 634 404 1005t1017 371q647 0 1027-365 381-365 381-992 0-333-183-704-182-371-623-832L1248 525h2125V0z" transform="scale(.01563)"/></defs><use xlink:href="#JetBrainsMonoNFM-Regular-2d"/><use xlink:href="#JetBrainsMonoNFM-Regular-32" x="60"/><use xlink:href="#JetBrainsMonoNFM-Regular-30" x="120"/></g></g><g id="ytick_3"><path id="line2d_6" d="M35.89 130.693H241.2" clip-path="url(#p4a4fad5eb3)" style="fill:none;stroke:#fff;stroke-width:.8;stroke-linecap:round"/><g id="text_6" style="fill:#4c4f69" transform="matrix(.1 0 0 -.1 10.89 134.343)"><defs><path id="JetBrainsMonoNFM-Regular-31" d="M576 0v525h1267v3648L576 3226v659l1056 787h787V525h1037V0z" transform="scale(.01563)"/></defs><use xlink:href="#JetBrainsMonoNFM-Regular-2d"/><use xlink:href="#JetBrainsMonoNFM-Regular-31" x="60"/><use xlink:href="#JetBrainsMonoNFM-Regular-30" x="120"/></g></g><g id="ytick_4"><path id="line2d_7" d="M35.89 101.62H241.2" clip-path="url(#p4a4fad5eb3)" style="fill:none;stroke:#fff;stroke-width:.8;stroke-linecap:round"/><use xlink:href="#JetBrainsMonoNFM-Regular-30" id="text_7" style="fill:#4c4f69" transform="matrix(.1 0 0 -.1 22.89 105.27)"/></g><g id="ytick_5"><path id="line2d_8" d="M35.89 72.547H241.2" clip-path="url(#p4a4fad5eb3)" style="fill:none;stroke:#fff;stroke-width:.8;stroke-linecap:round"/><g id="text_8" style="fill:#4c4f69" transform="matrix(.1 0 0 -.1 16.89 76.197)"><use xlink:href="#JetBrainsMonoNFM-Regular-31"/><use xlink:href="#JetBrainsMonoNFM-Regular-30" x="60"/></g></g><g id="ytick_6"><path id="line2d_9" d="M35.89 43.473H241.2" clip-path="url(#p4a4fad5eb3)" style="fill:none;stroke:#fff;stroke-width:.8;stroke-linecap:round"/><g id="text_9" style="fill:#4c4f69" transform="matrix(.1 0 0 -.1 16.89 47.123)"><use xlink:href="#JetBrainsMonoNFM-Regular-32"/><use xlink:href="#JetBrainsMonoNFM-Regular-30" x="60"/></g></g><g id="ytick_7"><path id="line2d_10" d="M35.89 14.4H241.2" clip-path="url(#p4a4fad5eb3)" style="fill:none;stroke:#fff;stroke-width:.8;stroke-linecap:round"/><g id="text_10" style="fill:#4c4f69" transform="matrix(.1 0 0 -.1 16.89 18.05)"><use xlink:href="#JetBrainsMonoNFM-Regular-33"/><use xlink:href="#JetBrainsMonoNFM-Regular-30" x="60"/></g></g></g><path id="line2d_11" d="m-1 167.023 130.4-.179 14.201-3.254 21.173-123.4L212.3 21.153 223.97-1" clip-path="url(#p4a4fad5eb3)" style="fill:none;stroke:#4c4f69;stroke-width:1.5;stroke-linecap:round"/><path id="line2d_12" d="m-1 168.332 7.352-.476 10.671-.474 13.582-.36 9.152-.101 19.74.11 4.332.188 4.298.381 6.33.83 4.11.77 14.096 3.169 9.938 1.825 5.696.803 5.394.579 3.431.183 3.295-.01 3.127-.238 2.959-.456 2.788-.73 2.603-.944 2.448-1.205 2.292-1.457 2.153-1.722 1.984-1.986 1.825-2.24 1.657-2.491 1.49-2.73 1.346-2.956 1.227-3.2 1.128-3.444 1.535-5.598 1.357-6.038.683-4.183.453-4.24.266-4.268.055-4.27-.205-4.248-.673-6.37-.866-6.365-.662-4.178-.466-4.302-.436-6.52-.365-8.39.073-4.057.37-4.087.875-6.024 1.044-5.55 1.1-4.95.854-3.023 1.014-2.844 1.141-2.63 1.286-2.403 1.49-2.176 1.777-2.055 2.018-1.907 2.253-1.686 2.696-1.52 2.904-1.348 2.977-1.125 3.004-.894 4.632-1.1 18.248-3.796 4.023-1.22 2.527-1.01 2.352-1.12 2.16-1.26 1.96-1.48 1.831-1.832 1.645-2.13 1.406-2.363 1.172-2.52.955-2.651.763-2.812.593-2.9.612-4.4.15-1.107h0" clip-path="url(#p4a4fad5eb3)" style="fill:none;stroke:#7287fd;stroke-width:1.5;stroke-linecap:round"/><path id="line2d_13" d="m-1 165.95 9.768-.026 15.647.27 32.469.593 40.715.762 20.486.538 8.662.02 4.602-.165 4.02-.364 2.308-.37 2.01-.5 1.717-.625 1.449-.792 1.206-.952.997-1.15.825-1.307.686-1.495.583-1.716.508-2.028.67-3.691.81-6.284 2.64-24.053 1.152-12.347 1.126-14.952 1.558-19.567 1.067-11.106.796-6.094 1.14-7.077.974-4.398.745-2.495.802-2.114.852-1.759 1.08-1.48 1.277-1.195 1.451-1.018 1.676-.847 1.826-.686 3.227-.908 3.842-.843 12.107-2.48 4.878-1.207 4.867-1.499 5.92-2.086 2.639-1.117 2.44-1.274 2.235-1.474 1.97-1.578 1.694-1.62 1.412-1.754 1.186-2.017.999-2.206.836-2.337 1.008-3.652L222.552-1h0" clip-path="url(#p4a4fad5eb3)" style="fill:none;stroke:#40a02b;stroke-width:1.5;stroke-linecap:round"/><path id="patch_3" d="M35.89 188.84V14.4" style="fill:none;stroke:#fff;stroke-width:.8;stroke-linejoin:miter;stroke-linecap:square"/><path id="patch_4" d="M241.2 188.84V14.4" style="fill:none;stroke:#fff;stroke-width:.8;stroke-linejoin:miter;stroke-linecap:square"/><path id="patch_5" d="M35.89 188.84H241.2" style="fill:none;stroke:#fff;stroke-width:.8;stroke-linejoin:miter;stroke-linecap:square"/><path id="patch_6" d="M35.89 14.4H241.2" style="fill:none;stroke:#fff;stroke-width:.8;stroke-linejoin:miter;stroke-linecap:square"/></g></g><defs><clipPath id="p4a4fad5eb3"><path d="M35.89 14.4H241.2v174.44H35.89z"/></clipPath></defs></svg>