<svg width="960" height="321" xmlns="http://www.w3.org/2000/svg" xmlns:xlink="http://www.w3.org/1999/xlink" overflow="hidden"><g><rect x="0" y="0" width="960" height="320.667" fill="#FFFFFF"/><path d="M131.5 96.3999C131.5 85.9174 140.007 77.4197 150.5 77.4197 160.993 77.4197 169.5 85.9174 169.5 96.3999 169.5 106.882 160.993 115.38 150.5 115.38 140.007 115.38 131.5 106.882 131.5 96.3999Z" stroke="#000000" stroke-width="3" stroke-miterlimit="8" fill="#FFFFFF" fill-rule="evenodd"/><path d="M122 123.372C122 112.062 131.178 102.893 142.5 102.893 153.822 102.893 163 112.062 163 123.372 163 134.682 153.822 143.851 142.5 143.851 131.178 143.851 122 134.682 122 123.372Z" stroke="#042433" stroke-width="2" stroke-miterlimit="8" fill="#F2AA84" fill-rule="evenodd"/><text fill="#FFFFFF" font-family="Cambria Math,Cambria Math_MSFontService,sans-serif" font-weight="400" font-size="26" transform="matrix(1 0 0 0.998963 130.004 130)">𝑋</text><text fill="#FFFFFF" font-family="Cambria Math,Cambria Math_MSFontService,sans-serif" font-weight="400" font-size="19" transform="matrix(1 0 0 0.998963 146.004 136)">𝑏</text><path d="M22 39.459C22 28.1489 31.1782 18.9803 42.5 18.9803 53.8218 18.9803 63 28.1489 63 39.459 63 50.7691 53.8218 59.9378 42.5 59.9378 31.1782 59.9378 22 50.7691 22 39.459Z" stroke="#042433" stroke-width="2" stroke-miterlimit="8" fill="#156082" fill-rule="evenodd"/><text fill="#FFFFFF" font-family="Cambria Math,Cambria Math_MSFontService,sans-serif" font-weight="400" font-size="26" transform="matrix(1 0 0 0.998963 28.2286 46)">𝑋</text><text fill="#FFFFFF" font-family="Cambria Math,Cambria Math_MSFontService,sans-serif" font-weight="400" font-size="19" transform="matrix(1 0 0 0.998963 44.2286 52)">𝑎</text><path d="M264 123.372C264 112.062 273.178 102.893 284.5 102.893 295.822 102.893 305 112.062 305 123.372 305 134.682 295.822 143.851 284.5 143.851 273.178 143.851 264 134.682 264 123.372Z" stroke="#042433" stroke-width="2" stroke-miterlimit="8" fill="#156082" fill-rule="evenodd"/><text fill="#FFFFFF" font-family="Cambria Math,Cambria Math_MSFontService,sans-serif" font-weight="400" font-size="26" transform="matrix(1 0 0 0.998963 272.685 131)">𝑋</text><text fill="#FFFFFF" font-family="Cambria Math,Cambria Math_MSFontService,sans-serif" font-weight="400" font-size="19" transform="matrix(1 0 0 0.998963 288.685 136)">𝑐</text><path d="M192 238.253C192 226.943 201.178 217.774 212.5 217.774 223.822 217.774 233 226.943 233 238.253 233 249.563 223.822 258.731 212.5 258.731 201.178 258.731 192 249.563 192 238.253Z" stroke="#042433" stroke-width="2" stroke-miterlimit="8" fill="#156082" fill-rule="evenodd"/><text fill="#FFFFFF" font-family="Cambria Math,Cambria Math_MSFontService,sans-serif" font-weight="400" font-size="26" transform="matrix(1 0 0 0.998963 201.107 246)">𝑋</text><text fill="#FFFFFF" font-family="Cambria Math,Cambria Math_MSFontService,sans-serif" font-weight="400" font-size="19" transform="matrix(1 0 0 0.998963 217.107 252)">𝑒</text><path d="M19 217.274C19 205.964 28.1782 196.796 39.5 196.796 50.8218 196.796 60 205.964 60 217.274 60 228.584 50.8218 237.753 39.5 237.753 28.1782 237.753 19 228.584 19 217.274Z" stroke="#042433" stroke-width="2" stroke-miterlimit="8" fill="#156082" fill-rule="evenodd"/><text fill="#FFFFFF" font-family="Cambria Math,Cambria Math_MSFontService,sans-serif" font-weight="400" font-size="26" transform="matrix(1 0 0 0.998963 27.1928 223)">𝑋</text><text fill="#FFFFFF" font-family="Cambria Math,Cambria Math_MSFontService,sans-serif" font-weight="400" font-size="19" transform="matrix(1 0 0 0.998963 43.1928 229)">𝑑</text><path d="M57.6246 53.1638 117.898 101.32C118.329 101.664 118.399 102.293 118.054 102.724 117.709 103.155 117.08 103.224 116.649 102.88L56.3754 54.7241C55.9441 54.3795 55.8741 53.7509 56.219 53.32 56.564 52.8892 57.1933 52.8192 57.6246 53.1638ZM120.396 96.0669 126.645 109.587 112.068 106.469Z"/><path d="M1.04121e-06-0.998963 88.6352-0.99887 88.6352 0.999055-1.04121e-06 0.998963ZM87.3033-6.65966 100.623 0.000104878 87.3032 6.65984Z" transform="matrix(-1.00104 0 0 1 263.727 123.871)"/><path d="M200.998 221.239 157.623 153.489 159.308 152.412 202.683 220.163ZM153.568 157.661 152 142.852 164.8 150.484Z"/><path d="M0.676192-0.735317 63.5713 57.1026 62.2189 58.5732-0.676192 0.735317ZM66.4226 52.0342 71.7189 65.9522 57.4067 61.8384Z" transform="matrix(1.00104 0 0 -1 55 202.81)"/><path d="M-3.81201-10.3798 3.77603 2.43359-11.0275 0.815976Z" transform="matrix(-1.00104 0 0 1 162.78 109.886)"/><path d="M69 80.4165C69 70.2098 77.2827 61.9357 87.5 61.9357 97.7173 61.9357 106 70.2098 106 80.4165 106 90.6232 97.7173 98.8973 87.5 98.8973 77.2827 98.8973 69 90.6232 69 80.4165Z" stroke="#FFFFFF" stroke-width="2" stroke-miterlimit="8" fill="#FFFFFF" fill-rule="evenodd"/><text font-family="Cambria Math,Cambria Math_MSFontService,sans-serif" font-weight="400" font-size="19" transform="matrix(1 0 0 0.998963 74.2367 82)">𝐶</text><text font-family="Cambria Math,Cambria Math_MSFontService,sans-serif" font-weight="400" font-size="14" transform="matrix(1 0 0 0.998963 84.1501 86)">𝑏𝑎</text><path d="M454.5 95.9005C454.5 85.6938 463.007 77.4197 473.5 77.4197 483.993 77.4197 492.5 85.6938 492.5 95.9005 492.5 106.107 483.993 114.381 473.5 114.381 463.007 114.381 454.5 106.107 454.5 95.9005Z" stroke="#000000" stroke-width="3" stroke-miterlimit="8" fill="#FFFFFF" fill-rule="evenodd"/><path d="M445 123.372C445 112.062 454.178 102.893 465.5 102.893 476.822 102.893 486 112.062 486 123.372 486 134.682 476.822 143.851 465.5 143.851 454.178 143.851 445 134.682 445 123.372Z" stroke="#042433" stroke-width="2" stroke-miterlimit="8" fill="#F2AA84" fill-rule="evenodd"/><text fill="#FFFFFF" font-family="Cambria Math,Cambria Math_MSFontService,sans-serif" font-weight="400" font-size="26" transform="matrix(1 0 0 0.998963 453.113 130)">𝑋</text><text fill="#FFFFFF" font-family="Cambria Math,Cambria Math_MSFontService,sans-serif" font-weight="400" font-size="19" transform="matrix(1 0 0 0.998963 469.113 135)">𝑏</text><path d="M345 39.459C345 28.1489 354.178 18.9803 365.5 18.9803 376.822 18.9803 386 28.1489 386 39.459 386 50.7691 376.822 59.9378 365.5 59.9378 354.178 59.9378 345 50.7691 345 39.459Z" stroke="#042433" stroke-width="2" stroke-miterlimit="8" fill="#156082" fill-rule="evenodd"/><text fill="#FFFFFF" font-family="Cambria Math,Cambria Math_MSFontService,sans-serif" font-weight="400" font-size="26" transform="matrix(1 0 0 0.998963 351.779 47)">𝑋</text><text fill="#FFFFFF" font-family="Cambria Math,Cambria Math_MSFontService,sans-serif" font-weight="400" font-size="19" transform="matrix(1 0 0 0.998963 367.779 52)">𝑎</text><path d="M587 123.372C587 112.062 596.178 102.893 607.5 102.893 618.822 102.893 628 112.062 628 123.372 628 134.682 618.822 143.851 607.5 143.851 596.178 143.851 587 134.682 587 123.372Z" stroke="#042433" stroke-width="2" stroke-miterlimit="8" fill="#156082" fill-rule="evenodd"/><text fill="#FFFFFF" font-family="Cambria Math,Cambria Math_MSFontService,sans-serif" font-weight="400" font-size="26" transform="matrix(1 0 0 0.998963 595.794 131)">𝑋</text><text fill="#FFFFFF" font-family="Cambria Math,Cambria Math_MSFontService,sans-serif" font-weight="400" font-size="19" transform="matrix(1 0 0 0.998963 611.794 136)">𝑐</text><path d="M515 238.253C515 226.943 524.178 217.774 535.5 217.774 546.822 217.774 556 226.943 556 238.253 556 249.563 546.822 258.731 535.5 258.731 524.178 258.731 515 249.563 515 238.253Z" stroke="#042433" stroke-width="2" stroke-miterlimit="8" fill="#156082" fill-rule="evenodd"/><text fill="#FFFFFF" font-family="Cambria Math,Cambria Math_MSFontService,sans-serif" font-weight="400" font-size="26" transform="matrix(1 0 0 0.998963 524.74 245)">𝑋</text><text fill="#FFFFFF" font-family="Cambria Math,Cambria Math_MSFontService,sans-serif" font-weight="400" font-size="19" transform="matrix(1 0 0 0.998963 540.74 250)">𝑒</text><path d="M342 216.275C342 204.965 351.178 195.797 362.5 195.797 373.822 195.797 383 204.965 383 216.275 383 227.586 373.822 236.754 362.5 236.754 351.178 236.754 342 227.586 342 216.275Z" stroke="#042433" stroke-width="2" stroke-miterlimit="8" fill="#156082" fill-rule="evenodd"/><text fill="#FFFFFF" font-family="Cambria Math,Cambria Math_MSFontService,sans-serif" font-weight="400" font-size="26" transform="matrix(1 0 0 0.998963 350.302 224)">𝑋</text><text fill="#FFFFFF" font-family="Cambria Math,Cambria Math_MSFontService,sans-serif" font-weight="400" font-size="19" transform="matrix(1 0 0 0.998963 366.302 229)">𝑑</text><path d="M380.625 53.1638 440.898 101.32C441.329 101.664 441.399 102.293 441.054 102.724 440.709 103.155 440.08 103.224 439.649 102.88L379.375 54.7241C378.944 54.3795 378.874 53.7509 379.219 53.32 379.564 52.8892 380.193 52.8192 380.625 53.1638ZM443.396 96.0669 449.645 109.587 435.068 106.469Z"/><path d="M1.04121e-06-0.998963 88.6352-0.99887 88.6352 0.999055-1.04121e-06 0.998963ZM87.3033-6.65966 100.623 0.000104878 87.3032 6.65984Z" transform="matrix(-1.00104 0 0 1 586.727 122.872)"/><path d="M523.998 221.239 480.623 153.489 482.308 152.412 525.683 220.163ZM476.568 157.661 475 142.852 487.8 150.484Z"/><path d="M0.676192-0.735317 63.5713 57.1026 62.2189 58.5732-0.676192 0.735317ZM66.4226 52.0342 71.7189 65.9522 57.4067 61.8384Z" transform="matrix(1.00104 0 0 -1 378 202.81)"/><path d="M-3.81201-10.3798 3.77603 2.43359-11.0275 0.815976Z" transform="matrix(-1.00104 0 0 1 485.78 108.887)"/><path d="M364.011 193.448 364.311 191.472 366.288 191.771 365.989 193.747ZM364.61 189.497 364.647 189.254 365.464 187.407 367.293 188.214 366.53 189.939 366.604 189.685 366.587 189.796ZM366.272 185.579 366.484 185.098 367.485 183.736 369.098 184.918 368.161 186.193 368.27 186.005 368.101 186.387ZM368.669 182.125 369.306 181.258 370.112 180.501 371.482 181.956 370.744 182.65 370.864 182.514 370.281 183.307ZM371.568 179.131 372.938 177.843 373.172 177.686 374.288 179.344 374.122 179.456 374.25 179.354 372.939 180.586ZM374.832 176.571 376.492 175.457 377.608 177.115 375.948 178.229ZM378.381 174.429 380.195 173.588 381.037 175.4 379.223 176.241ZM382.208 172.698 384.155 172.242 384.612 174.187 382.665 174.644ZM383.872 169.143 392.406 171.822 385.141 177.034Z"/><path d="M466.542 143.926 466.391 145.918 464.397 145.767 464.548 143.775ZM466.033 148.025 465.702 149.51 465.435 150.122 463.601 149.325 463.83 148.801 463.771 148.982 464.081 147.59ZM464.637 151.954 463.839 153.786 462.005 152.989 462.803 151.157ZM462.764 155.708 461.592 157.327 459.971 156.156 461.143 154.537ZM460.42 158.946 459.741 159.884 459.001 160.591 457.619 159.146 458.294 158.502 458.174 158.639 458.799 157.775ZM457.555 161.971 456.109 163.351 454.727 161.907 456.173 160.526ZM454.47 164.753 452.818 165.879 451.69 164.229 453.342 163.102ZM451.166 167.005 449.555 168.103 449.366 168.192 448.514 166.385 448.63 166.33 448.493 166.409 450.038 165.355ZM447.557 169.044 445.748 169.896 444.896 168.089 446.705 167.237ZM443.939 170.748 443.39 171.007 441.851 171.394 441.363 169.457 442.808 169.093 442.625 169.158 443.086 168.941ZM439.911 171.882 437.972 172.37 437.484 170.432 439.423 169.944ZM438.443 175.476 430 172.526 437.428 167.549Z"/><path d="M0.204467-0.977814 1.49076-0.708842 2.36875-0.173158 1.32817 1.53239 0.597295 1.08647 0.913122 1.21151-0.204467 0.977814ZM3.97612 1.49337 4.98815 2.7364 5.24972 3.37858 3.39941 4.13226 3.19411 3.62825 3.34459 3.88212 2.42677 2.7548ZM6.0034 5.2289 6.4498 6.32485 6.59252 7.38375 4.6125 7.65061 4.48674 6.71754 4.55159 6.96094 4.15308 5.98258ZM6.85938 9.36377 6.98167 10.2711 6.96264 10.1697 7.21703 11.2218 5.27506 11.6914 5.00854 10.5891 4.87936 9.63064ZM7.90191 12.6549 8.60328 13.649 8.43533 13.4649 9.0297 13.9719 7.73305 15.4919 7.04313 14.9034 6.26936 13.8066ZM10.4157 15.1579 12.137 16.1723 11.1226 17.8936 9.40134 16.8792ZM13.7966 17.011 15.6381 17.7861 14.863 19.6276 13.0215 18.8525ZM17.404 18.2778 19.3457 18.7482 18.8754 20.6899 16.9336 20.2196ZM19.4355 15.8725 26.8829 20.809 18.4653 23.8051Z" transform="matrix(1.83888e-16 1 1.00104 -1.83697e-16 480 137.857)"/><path d="M512.074 237.046 510.859 236.813 509.91 236.278 510.893 234.538 511.699 234.993 511.397 234.882 512.451 235.084ZM508.262 234.668 507.307 233.617 506.915 232.901 508.67 231.943 509.005 232.555 508.867 232.362 509.743 233.325ZM505.956 231.148 505.313 229.972 505.031 229.226 506.902 228.52 507.16 229.202 507.102 229.076 507.711 230.19ZM504.325 227.357 503.619 225.487 505.49 224.782 506.196 226.651ZM503.059 223.468 502.539 221.539 504.47 221.019 504.99 222.948ZM502.029 219.527 501.663 217.563 503.629 217.197 503.995 219.161ZM501.296 215.598 500.977 213.884 500.943 213.547 502.934 213.349 502.963 213.645 502.951 213.561 503.263 215.233ZM500.746 211.558 500.548 209.57 502.539 209.373 502.736 211.361ZM500.351 207.582 500.347 207.541 502.337 207.344 502.341 207.385ZM497.415 208.978 501 200.792 505.405 208.568Z"/><path d="M0.0832287-0.995489 2.07421-0.829032 1.90775 1.16195-0.0832287 0.995489ZM4.20191-0.534385 6.14291-0.0608961 5.66942 1.88011 3.72842 1.40662ZM8.16137 0.646523 9.96467 1.37747 10.1352 1.47756 9.12411 3.20073 9.01635 3.13749 9.14666 3.20171 7.41085 2.49812ZM11.8584 2.48869 12.7836 3.03159 13.62 3.71867 12.3518 5.26247 11.5762 4.62529 11.7047 4.71498 10.8473 4.21186ZM15.2864 5.12387 16.5722 6.65303 15.0431 7.93887 13.7572 6.40971ZM17.7284 8.54346 18.3202 9.71303 18.4887 10.6843 16.5201 11.0257 16.3772 10.2016 16.4701 10.4819 15.9457 9.44559ZM18.8309 12.65 19.1493 14.4576 19.054 14.1742 19.1283 14.3188 17.3513 15.232 17.2079 14.953 16.8633 12.9966ZM20.0415 16.0958 20.1989 16.402 20.07 16.2099 21.1439 17.4675 19.6246 18.7649 18.4751 17.4188 18.2645 17.0091ZM22.4268 18.7389 23.9801 19.9954 22.7236 21.5487 21.1702 20.2922ZM25.5764 20.9141 26.6265 21.5209 26.497 21.458 27.2262 21.7491 26.4856 23.6047 25.6894 23.2868 24.5768 22.644ZM29.0818 22.4897 29.5441 22.6742 29.4071 22.6307 30.8658 22.9811 30.3991 24.9238 28.8704 24.5565 28.3412 24.3453ZM32.6607 23.4012 34.6519 23.5651 34.4879 25.5563 32.4967 25.3924ZM36.482 23.605 38.4736 23.4465 38.6321 25.4382 36.6405 25.5967ZM40.287 23.1069 42.193 22.6643 42.0594 22.7054 42.0978 22.6906 42.817 24.5546 42.7132 24.5946 40.7388 25.053ZM43.9618 21.9714 45.1065 21.5297 44.979 21.5896 45.652 21.2136 46.6263 22.9579 45.8916 23.3683 44.6809 23.8354ZM47.3963 20.2394 47.709 20.0647 47.4707 20.2501 48.598 19.0593 50.0489 20.4329 48.8166 21.7346 48.3706 21.9837ZM46.3713 17.6581 53.8324 12.7423 53.2884 21.6607Z" transform="matrix(1.00104 0 0 -1 486 117.633)"/><path d="M594.243 138.033 593.891 140 591.922 139.648 592.274 137.681ZM593.267 142.193 592.341 143.964 590.568 143.04 591.494 141.269ZM591.101 145.803 589.79 147.312 588.279 146.002 589.59 144.493ZM588.226 148.822 586.662 150.067 585.416 148.504 586.981 147.259ZM584.917 151.322 583.178 152.31 582.19 150.573 583.928 149.585ZM581.44 153.297 581.338 153.355 579.452 154.095 578.721 152.235 580.541 151.521 580.412 151.583 580.451 151.56ZM577.591 154.825 576.707 155.172 575.546 155.446 575.086 153.502 576.177 153.244 576.042 153.287 576.86 152.966ZM573.6 155.906 571.753 156.342 571.5 156.363 571.339 154.371 571.516 154.357 571.366 154.38 573.14 153.962ZM569.507 156.524 567.513 156.685 567.352 154.694 569.345 154.533ZM565.372 156.674 563.377 156.543 563.507 154.55 565.503 154.68ZM561.262 156.371 559.297 155.997 559.672 154.035 561.637 154.409ZM557.333 155.623 556.606 155.485 555.292 155.069 555.896 153.164 557.153 153.562 557.039 153.533 557.707 153.661ZM553.385 154.466 551.992 154.025 551.39 153.75 552.224 151.933 552.769 152.183 552.654 152.139 553.989 152.561ZM549.572 152.917 547.841 152.124 547.642 151.997 548.722 150.315 548.862 150.405 548.738 150.337 550.406 151.101ZM545.959 150.917 544.234 149.812 544.057 149.587 545.627 148.35 545.7 148.443 545.455 148.221 547.039 149.236ZM542.818 148.019 542.567 147.701 544.138 146.463 544.389 146.781ZM540.565 150.242 540 141.325 547.48 146.224Z"/><path d="M440.637 122.21 438.647 122.019 438.838 120.03 440.829 120.222ZM436.656 121.828 434.63 121.633 434.492 121.595 435.033 119.671 435.084 119.686 434.91 119.653 436.847 119.839ZM432.567 121.055 430.641 120.515 431.181 118.592 433.107 119.131ZM428.569 119.904 426.756 119.06 427.601 117.249 429.414 118.093ZM424.943 118.215 423.226 117.416 423.008 117.269 424.127 115.613 424.279 115.716 424.143 115.638 425.788 116.405ZM421.35 116.151 419.692 115.033 420.811 113.377 422.469 114.495ZM417.947 113.764 416.493 112.392 417.867 110.94 419.321 112.312ZM415.04 111.02 414.104 110.136 413.575 109.414 415.19 108.235 415.664 108.883 415.544 108.747 416.413 109.568ZM412.395 107.801 411.215 106.189 412.829 105.009 414.01 106.622ZM410.278 104.125 409.757 102.679 411.638 102.002 412.159 103.447ZM407.169 104.646 409 95.9004 414.905 102.611Z"/><path d="M386.103 37.9659 388.092 38.1714 387.887 40.1588 385.897 39.9532ZM390.082 38.377 390.493 38.4195 392.194 38.9324 391.616 40.8451 390.006 40.3597 390.192 40.397 389.876 40.3643ZM394.109 39.5096 394.827 39.7261 396.098 40.3629 395.202 42.1488 394.007 41.5506 394.167 41.6139 393.531 41.4223ZM397.886 41.2585 398.868 41.7501 399.73 42.3754 398.555 43.9922 397.759 43.4149 397.898 43.4994 396.99 43.0444ZM401.348 43.5491 402.487 44.3745 403.019 44.9153 401.594 46.3166 401.119 45.8349 401.244 45.9426 400.173 45.1659ZM404.422 46.3394 405.584 47.5193 405.883 48.0498 404.14 49.0295 403.906 48.6149 404.065 48.8257 402.996 47.7407ZM406.864 49.7911 407.844 51.5324 406.101 52.512 405.12 50.7707ZM410.607 49.9237 409.028 58.7185 402.932 52.1802Z"/><path d="M771 95.4009C771 85.1943 779.507 76.9201 790 76.9201 800.493 76.9201 809 85.1943 809 95.4009 809 105.608 800.493 113.882 790 113.882 779.507 113.882 771 105.608 771 95.4009Z" stroke="#000000" stroke-width="4" stroke-miterlimit="8" fill="#FFFFFF" fill-rule="evenodd"/><rect x="766" y="68.9284" width="16" height="43.9544" fill="#FFFFFF"/><path d="M762 123.372C762 112.062 771.178 102.893 782.5 102.893 793.822 102.893 803 112.062 803 123.372 803 134.682 793.822 143.851 782.5 143.851 771.178 143.851 762 134.682 762 123.372Z" stroke="#042433" stroke-width="2" stroke-miterlimit="8" fill="#F2AA84" fill-rule="evenodd"/><text fill="#FFFFFF" font-family="Cambria Math,Cambria Math_MSFontService,sans-serif" font-weight="400" font-size="26" transform="matrix(1 0 0 0.998963 769.322 130)">𝑋</text><text fill="#FFFFFF" font-family="Cambria Math,Cambria Math_MSFontService,sans-serif" font-weight="400" font-size="19" transform="matrix(1 0 0 0.998963 785.322 135)">𝑏</text><path d="M662 39.459C662 28.1489 670.954 18.9803 682 18.9803 693.046 18.9803 702 28.1489 702 39.459 702 50.7691 693.046 59.9378 682 59.9378 670.954 59.9378 662 50.7691 662 39.459Z" stroke="#042433" stroke-width="2" stroke-miterlimit="8" fill="#156082" fill-rule="evenodd"/><text fill="#FFFFFF" font-family="Cambria Math,Cambria Math_MSFontService,sans-serif" font-weight="400" font-size="26" transform="matrix(1 0 0 0.998963 669.308 46)">𝑋</text><text fill="#FFFFFF" font-family="Cambria Math,Cambria Math_MSFontService,sans-serif" font-weight="400" font-size="19" transform="matrix(1 0 0 0.998963 685.308 51)">𝑎</text><path d="M903 123.372C903 112.062 912.178 102.893 923.5 102.893 934.822 102.893 944 112.062 944 123.372 944 134.682 934.822 143.851 923.5 143.851 912.178 143.851 903 134.682 903 123.372Z" stroke="#042433" stroke-width="2" stroke-miterlimit="8" fill="#156082" fill-rule="evenodd"/><text fill="#FFFFFF" font-family="Cambria Math,Cambria Math_MSFontService,sans-serif" font-weight="400" font-size="26" transform="matrix(1 0 0 0.998963 912.274 131)">𝑋</text><text fill="#FFFFFF" font-family="Cambria Math,Cambria Math_MSFontService,sans-serif" font-weight="400" font-size="19" transform="matrix(1 0 0 0.998963 928.274 136)">𝑐</text><path d="M832 238.253C832 226.943 841.178 217.774 852.5 217.774 863.822 217.774 873 226.943 873 238.253 873 249.563 863.822 258.731 852.5 258.731 841.178 258.731 832 249.563 832 238.253Z" stroke="#042433" stroke-width="2" stroke-miterlimit="8" fill="#156082" fill-rule="evenodd"/><text fill="#FFFFFF" font-family="Cambria Math,Cambria Math_MSFontService,sans-serif" font-weight="400" font-size="26" transform="matrix(1 0 0 0.998963 839.646 245)">𝑋</text><text fill="#FFFFFF" font-family="Cambria Math,Cambria Math_MSFontService,sans-serif" font-weight="400" font-size="19" transform="matrix(1 0 0 0.998963 855.646 250)">𝑒</text><path d="M659 216.275C659 204.965 668.178 195.797 679.5 195.797 690.822 195.797 700 204.965 700 216.275 700 227.586 690.822 236.754 679.5 236.754 668.178 236.754 659 227.586 659 216.275Z" stroke="#042433" stroke-width="2" stroke-miterlimit="8" fill="#156082" fill-rule="evenodd"/><text fill="#FFFFFF" font-family="Cambria Math,Cambria Math_MSFontService,sans-serif" font-weight="400" font-size="26" transform="matrix(1 0 0 0.998963 665.986 223)">𝑋</text><text fill="#FFFFFF" font-family="Cambria Math,Cambria Math_MSFontService,sans-serif" font-weight="400" font-size="19" transform="matrix(1 0 0 0.998963 681.986 228)">𝑑</text><path d="M734.543 88.0685 756.682 102.353C757.146 102.653 757.28 103.271 756.98 103.734 756.68 104.198 756.061 104.331 755.597 104.032L733.457 89.7468C732.994 89.4475 732.86 88.8291 733.16 88.3657 733.46 87.9022 734.079 87.7692 734.543 88.0685ZM758.637 96.8755 766.22 109.696 751.403 108.064Z"/><path d="M0.0157045-1.49836 25.6254-1.22994 25.594 1.76678-0.0157045 1.49836ZM24.1898-7.2391 39.0949 0.409758 24.0328 7.74452Z" transform="matrix(-1.00104 0 0 1 842.636 123.372)"/><path d="M810.614 175.206 796.644 153.478 798.326 152.398 812.297 174.127ZM792.596 157.658 791 142.852 803.815 150.46Z"/><path d="M0.685526-0.726623 24.1529 21.4134 22.7818 22.8667-0.685526 0.726623ZM27.0687 16.3819 32.1868 30.3664 17.9284 26.0702Z" transform="matrix(1.00104 0 0 -1 734 168.223)"/><path d="M0.492629-0.448152 2.28013 1.51675 1.29487 2.41305-0.492629 0.448152ZM5.81748-3.50187 9.85423 10.8322-4.03509 5.46116Z" transform="matrix(-1.00104 0 0 1 809.365 101.395)"/><path d="M677.009 193.766 677.281 191.786 679.263 192.058 678.991 194.038ZM677.554 189.807 677.592 189.525 678.322 187.707 680.179 188.45 679.495 190.155 679.557 189.919 679.535 190.079ZM679.067 185.852 679.278 185.326 680.187 183.963 681.851 185.071 681 186.348 681.095 186.166 680.923 186.596ZM681.296 182.3 681.872 181.435 682.664 180.616 684.103 182.002 683.375 182.757 683.487 182.618 682.96 183.408ZM684.052 179.177 685.219 177.968 685.609 177.68 686.799 179.285 686.476 179.524 686.601 179.415 685.491 180.564ZM687.216 176.491 688.823 175.302 690.013 176.907 688.406 178.096ZM690.713 174.256 692.493 173.346 693.404 175.125 691.624 176.035ZM694.557 172.541 696.424 172.076 696.908 174.014 695.041 174.479ZM694.621 169.362 703.22 171.822 696.09 177.217Z"/><path d="M783.573 143.942 783.391 145.931 781.4 145.749 781.582 143.76ZM782.947 148.048 782.59 149.377 782.278 150.085 780.447 149.281 780.728 148.642 780.678 148.786 781.015 147.529ZM781.472 151.914 781.41 152.054 780.379 153.743 778.672 152.702 779.668 151.071 779.607 151.189 779.642 151.109ZM779.102 155.485 777.789 156.991 776.281 155.679 777.594 154.173ZM776.475 158.498 775.597 159.506 774.934 160.032 773.691 158.466 774.282 157.998 774.149 158.124 774.967 157.186ZM773.367 161.273 771.8 162.515 770.557 160.95 772.124 159.708ZM770.233 163.757 770.145 163.826 768.368 164.833 767.382 163.094 769.091 162.127 768.963 162.213 768.99 162.191ZM766.628 165.818 764.888 166.803 763.902 165.064 765.642 164.079ZM762.974 167.755 761.112 168.483 760.383 166.622 762.245 165.894ZM759.249 169.211 757.387 169.939 756.658 168.079 758.52 167.351ZM755.312 170.529 753.356 170.944 752.94 168.989 754.897 168.574ZM751.399 171.359 749.443 171.774 749.027 169.819 750.984 169.404ZM749.31 175.003 741 171.698 748.633 167.04Z"/><path d="M826.594 237.161 825.051 236.408 824.592 235.756 826.229 234.607 826.539 235.049 826.16 234.726 827.471 235.365ZM823.401 233.901 822.623 232.061 824.465 231.283 825.243 233.124ZM821.945 230.062 821.384 228.144 823.304 227.585 823.864 229.502ZM820.917 226.122 820.509 224.167 822.467 223.759 822.875 225.715ZM820.156 222.138 819.871 220.16 821.85 219.875 822.135 221.853ZM819.594 218.096 819.479 216.101 821.476 215.986 821.591 217.981ZM816.468 215.993 820 207.784 824.454 215.532Z"/><path d="M0.0840299-0.995422 2.07487-0.827362 1.90681 1.16348-0.0840299 0.995422ZM4.20912-0.563989 6.14907-0.0861707 5.67125 1.85378 3.7313 1.37596ZM8.18651 0.565889 10.0356 1.32265 9.27882 3.17171 7.42976 2.41495ZM11.9203 2.33582 13.598 3.32981 13.7562 3.46108 12.4807 4.99886 12.3832 4.91795 12.5117 5.0085 10.9019 4.05471ZM15.294 4.73659 16.1525 5.44868 16.8352 6.26841 15.3 7.54698 14.6762 6.79804 14.8061 6.92764 14.0185 6.27437ZM18.2289 8.00205 19.1242 9.78819 17.338 10.6834 16.4428 8.89727ZM19.73 11.9779 19.9241 13.1078 20.067 13.949 18.0973 14.2837 17.955 13.4461 17.7609 12.3162ZM20.4052 15.612 21.2927 17.402 19.5027 18.2895 18.6152 16.4995ZM22.3736 18.795 23.1686 19.76 23.0394 19.6297 23.6123 20.11 22.3287 21.641 21.6852 21.1015 20.8316 20.0654ZM25.1433 21.3937 25.4363 21.6394 25.3077 21.5478 26.6937 22.3779 25.6672 24.092 24.2133 23.2212 23.8596 22.9247ZM28.2967 23.2979 30.1429 24.0617 29.3791 25.9079 27.533 25.1441ZM31.8892 24.6557 33.828 25.1384 33.3452 27.0771 31.4065 26.5944ZM35.6463 25.3782 37.637 25.548 37.4671 27.5387 35.4764 27.3688ZM39.4678 25.4147 41.0937 25.2901 40.9521 25.3113 41.3105 25.2312 41.7463 27.181 41.3179 27.2767 39.6204 27.4068ZM43.2603 24.7953 44.337 24.5547 44.2071 24.5931 45.0458 24.2816 45.7414 26.1545 44.8391 26.4897 43.6961 26.7451ZM46.9187 23.586 47.3725 23.4174 47.2472 23.4741 48.5805 22.7571 49.5267 24.5168 48.1327 25.2664 47.6143 25.4589ZM50.0514 21.919 51.4566 20.4987 52.8768 21.9039 51.4716 23.3242ZM48.8885 19.4554 56.4112 14.6344 55.7544 23.5452Z" transform="matrix(1.00104 0 0 -1 802 117.528)"/><path d="M910.663 138.025 910.327 139.994 908.355 139.659 908.691 137.689ZM909.732 142.186 908.842 143.975 907.051 143.086 907.941 141.296ZM907.637 145.832 906.363 147.372 904.821 146.1 906.094 144.56ZM904.821 148.905 903.287 150.187 902.004 148.654 903.538 147.372ZM901.547 151.452 899.83 152.476 898.805 150.761 900.521 149.737ZM897.957 153.518 896.109 154.28 895.346 152.434 897.194 151.671ZM894.26 155.043 893.956 155.168 892.19 155.606 891.708 153.667 893.401 153.247 893.261 153.293 893.497 153.196ZM890.249 156.088 889.229 156.341 888.126 156.435 887.956 154.444 888.98 154.357 888.824 154.383 889.767 154.149ZM886.133 156.605 884.344 156.757 883.981 156.73 884.128 154.738 884.412 154.758 884.254 154.759 885.963 154.614ZM881.987 156.583 879.992 156.437 880.139 154.444 882.134 154.591ZM877.891 156.059 875.936 155.64 876.356 153.686 878.311 154.106ZM873.885 155.075 872.002 154.403 872.674 152.522 874.558 153.194ZM870.012 153.639 868.236 152.722 869.154 150.947 870.931 151.864ZM866.332 151.726 864.712 150.555 865.884 148.936 867.504 150.108ZM863.091 149.383 862.96 149.289 861.695 147.541 863.316 146.37 864.487 147.988 864.264 147.765 864.265 147.766ZM858.999 149.209 859 140.274 866.155 145.636Z"/><path d="M756.995 121.562 755.001 121.4 755.164 119.409 757.157 119.571ZM753.008 121.238 751.014 121.076 751.177 119.085 753.17 119.247ZM748.919 120.591 746.973 120.129 747.435 118.185 749.381 118.647ZM744.893 119.619 743.032 118.885 743.767 117.027 745.627 117.76ZM741.172 118.151 739.445 117.47 739.196 117.328 740.189 115.593 740.375 115.7 740.246 115.638 741.907 116.293ZM737.46 116.337 735.723 115.345 736.716 113.61 738.452 114.602ZM733.913 114.186 732.351 112.938 733.601 111.378 735.162 112.626ZM730.79 111.69 730.224 111.237 729.27 110.134 730.784 108.828 731.677 109.862 731.545 109.735 732.039 110.13ZM727.963 108.622 726.884 107.373 726.635 106.718 728.505 106.008 728.691 106.499 728.513 106.201 729.477 107.316ZM723.767 107.747 725 98.8973 731.347 105.193Z"/><path d="M702.123 37.9681 704.107 38.213 703.862 40.1958 701.877 39.951ZM706.092 38.4578 706.415 38.4976 708.201 39.1406 707.523 41.0202 705.842 40.4151 706.059 40.4667 705.847 40.4407ZM710.083 39.8178 710.661 40.0259 712.017 40.8364 710.989 42.5507 709.717 41.79 709.892 41.8727 709.405 41.6975ZM713.733 41.8627 714.607 42.3855 715.481 43.1419 714.171 44.6517 713.363 43.9526 713.504 44.0548 712.705 43.5769ZM716.992 44.4504 718.129 45.4352 718.551 45.9459 717.007 47.2166 716.639 46.7706 716.756 46.8901 715.682 45.9602ZM719.823 47.4877 721.105 49.0419 721.182 49.1773 719.444 50.1658 719.41 50.1052 719.507 50.2463 718.279 48.7584ZM722.172 50.9135 723.161 52.6498 721.423 53.6383 720.434 51.9021ZM723.859 54.788 723.957 55.1656 722.021 55.6668 721.923 55.2893ZM726.611 53.2599 724.416 61.9216 718.797 54.9702Z"/><path d="M0.960059-0.276068 1.5122 1.64405-0.407922 2.19619-0.960059 0.276068ZM2.06433 3.56417 2.61647 5.48428 0.696351 6.03642 0.144214 4.1163ZM3.1686 7.4044 3.72074 9.32452 1.80062 9.87666 1.24849 7.95654ZM6.319 7.51592 4.68731 16.3007-1.36147 9.72446Z" transform="matrix(1.00104 0 0 -1 786 103.21)"/><path d="M0.118658-0.99189 2.10244-0.754574 1.86512 1.22921-0.118658 0.99189ZM4.20047-0.0524784 4.37099 0.0070385 6.1075 1.01419 5.10513 2.74247 3.45085 1.78301 3.62283 1.86203 3.54206 1.83384ZM7.7976 2.37117 8.10611 2.6302 9.24833 3.9728 7.72659 5.26742 6.63869 3.98866 6.75721 4.10641 6.51289 3.90128ZM10.424 5.79166 10.7479 6.34276 11.2649 7.80449 9.38127 8.47067 8.89626 7.09933 8.9768 7.27237 8.70151 6.80393ZM11.6819 9.97108 11.7547 10.5721 11.7273 10.4316 12.0908 11.7758 10.1621 12.2973 9.77993 10.8838 9.69844 10.2115ZM12.9068 13.1078 13.6104 13.9997 13.432 13.8242 14.1173 14.347 12.9055 15.9354 12.1199 15.3361 11.3382 14.3452ZM15.7057 15.5588 15.7998 15.6306 15.6597 15.541 17.3225 16.4173 16.391 18.1848 14.6544 17.2697 14.4939 17.1472ZM18.997 17.2514 20.8668 17.9552 20.163 19.8251 18.2931 19.1212ZM22.6527 18.5749 24.5863 19.0777 24.0835 21.0114 22.1499 20.5086ZM26.397 19.5131 28.2625 19.7396 28.0218 21.723 26.1562 21.4965ZM27.2086 16.624 34.7698 21.3846 26.4246 24.5772Z" transform="matrix(1.83888e-16 1 1.00104 -1.83697e-16 799 135.859)"/><path d="M707 174.319C707 164.112 715.283 155.838 725.5 155.838 735.717 155.838 744 164.112 744 174.319 744 184.526 735.717 192.8 725.5 192.8 715.283 192.8 707 184.526 707 174.319Z" stroke="#FFFFFF" stroke-width="2" stroke-miterlimit="8" fill="#84E291" fill-rule="evenodd"/><text font-family="Cambria Math,Cambria Math_MSFontService,sans-serif" font-weight="400" font-size="16" transform="matrix(1 0 0 0.998963 712.365 177)">𝑚</text><text font-family="Cambria Math,Cambria Math_MSFontService,sans-serif" font-weight="400" font-size="12" transform="matrix(1 0 0 0.998963 725.698 180)">𝑏𝑑</text><text font-family="Times New Roman,Times New Roman_MSFontService,sans-serif" font-style="italic" font-weight="400" font-size="19" transform="matrix(1 0 0 0.998963 100.151 301)">Convolutional</text><text font-family="Times New Roman,Times New Roman_MSFontService,sans-serif" font-style="italic" font-weight="400" font-size="19" transform="matrix(1 0 0 0.998963 435.726 301)">Attentive</text><text font-family="Times New Roman,Times New Roman_MSFontService,sans-serif" font-style="italic" font-weight="400" font-size="19" transform="matrix(1 0 0 0.998963 733.387 301)">Message</text><text font-family="Times New Roman,Times New Roman_MSFontService,sans-serif" font-style="italic" font-weight="400" font-size="19" transform="matrix(1 0 0 0.998963 798.22 301)">-</text><text font-family="Times New Roman,Times New Roman_MSFontService,sans-serif" font-style="italic" font-weight="400" font-size="19" transform="matrix(1 0 0 0.998963 804.387 301)">passing</text><path d="M135 77.9191C135 67.9883 143.283 59.9378 153.5 59.9378 163.717 59.9378 172 67.9883 172 77.9191 172 87.8499 163.717 95.9004 153.5 95.9004 143.283 95.9004 135 87.8499 135 77.9191Z" stroke="#FFFFFF" stroke-width="2" stroke-miterlimit="8" fill="#FFFFFF" fill-rule="evenodd"/><text font-family="Cambria Math,Cambria Math_MSFontService,sans-serif" font-weight="400" font-size="19" transform="matrix(1 0 0 0.998963 139.335 83)">𝐶</text><text font-family="Cambria Math,Cambria Math_MSFontService,sans-serif" font-weight="400" font-size="14" transform="matrix(1 0 0 0.998963 149.249 87)">𝑏</text><text font-family="Cambria Math,Cambria Math_MSFontService,sans-serif" font-weight="400" font-size="14" transform="matrix(1 0 0 0.998963 157.415 87)">𝑏</text><path d="M198 125.869C198 115.938 206.283 107.888 216.5 107.888 226.717 107.888 235 115.938 235 125.869 235 135.8 226.717 143.851 216.5 143.851 206.283 143.851 198 135.8 198 125.869Z" stroke="#FFFFFF" stroke-width="2" stroke-miterlimit="8" fill="#FFFFFF" fill-rule="evenodd"/><text font-family="Cambria Math,Cambria Math_MSFontService,sans-serif" font-weight="400" font-size="19" transform="matrix(1 0 0 0.998963 204.383 128)">𝐶</text><text font-family="Cambria Math,Cambria Math_MSFontService,sans-serif" font-weight="400" font-size="14" transform="matrix(1 0 0 0.998963 214.296 132)">𝑏</text><text font-family="Cambria Math,Cambria Math_MSFontService,sans-serif" font-weight="400" font-size="14" transform="matrix(1 0 0 0.998963 222.463 132)">𝑐</text><path d="M162 187.805C162 177.874 170.283 169.824 180.5 169.824 190.717 169.824 199 177.874 199 187.805 199 197.736 190.717 205.786 180.5 205.786 170.283 205.786 162 197.736 162 187.805Z" stroke="#FFFFFF" stroke-width="2" stroke-miterlimit="8" fill="#FFFFFF" fill-rule="evenodd"/><text font-family="Cambria Math,Cambria Math_MSFontService,sans-serif" font-weight="400" font-size="19" transform="matrix(1 0 0 0.998963 168.906 190)">𝐶</text><text font-family="Cambria Math,Cambria Math_MSFontService,sans-serif" font-weight="400" font-size="14" transform="matrix(1 0 0 0.998963 178.819 194)">𝑏</text><text font-family="Cambria Math,Cambria Math_MSFontService,sans-serif" font-weight="400" font-size="14" transform="matrix(1 0 0 0.998963 186.986 194)">𝑒</text><path d="M69 173.82C69 163.889 77.0589 155.838 87 155.838 96.9411 155.838 105 163.889 105 173.82 105 183.75 96.9411 191.801 87 191.801 77.0589 191.801 69 183.75 69 173.82Z" stroke="#FFFFFF" stroke-width="2" stroke-miterlimit="8" fill="#FFFFFF" fill-rule="evenodd"/><text font-family="Cambria Math,Cambria Math_MSFontService,sans-serif" font-weight="400" font-size="19" transform="matrix(1 0 0 0.998963 77.7334 177)">𝐶</text><text font-family="Cambria Math,Cambria Math_MSFontService,sans-serif" font-weight="400" font-size="14" transform="matrix(1 0 0 0.998963 87.6468 181)">𝑏</text><text font-family="Cambria Math,Cambria Math_MSFontService,sans-serif" font-weight="400" font-size="14" transform="matrix(1 0 0 0.998963 95.8134 181)">𝑑</text><path d="M393 174.818C393 164.888 401.283 156.837 411.5 156.837 421.717 156.837 430 164.888 430 174.818 430 184.749 421.717 192.8 411.5 192.8 401.283 192.8 393 184.749 393 174.818Z" stroke="#FFFFFF" stroke-width="2" stroke-miterlimit="8" fill="#FFFFFF" fill-rule="evenodd"/><text font-family="Cambria Math,Cambria Math_MSFontService,sans-serif" font-weight="400" font-size="19" transform="matrix(1 0 0 0.998963 402.37 178)">𝛼</text><text font-family="Cambria Math,Cambria Math_MSFontService,sans-serif" font-weight="400" font-size="14" transform="matrix(1 0 0 0.998963 413.537 182)">𝑏</text><text font-family="Cambria Math,Cambria Math_MSFontService,sans-serif" font-weight="400" font-size="14" transform="matrix(1 0 0 0.998963 421.704 182)">𝑑</text><path d="M391 77.4196C391 67.2129 399.059 58.9388 409 58.9388 418.941 58.9388 427 67.2129 427 77.4196 427 87.6263 418.941 95.9004 409 95.9004 399.059 95.9004 391 87.6263 391 77.4196Z" stroke="#FFFFFF" stroke-width="2" stroke-miterlimit="8" fill="#FFFFFF" fill-rule="evenodd"/><text font-family="Cambria Math,Cambria Math_MSFontService,sans-serif" font-weight="400" font-size="19" transform="matrix(1 0 0 0.998963 394.482 78)">𝛼</text><text font-family="Cambria Math,Cambria Math_MSFontService,sans-serif" font-weight="400" font-size="14" transform="matrix(1 0 0 0.998963 405.648 82)">𝑏</text><text font-family="Cambria Math,Cambria Math_MSFontService,sans-serif" font-weight="400" font-size="14" transform="matrix(1 0 0 0.998963 413.815 82)">𝑎</text><path d="M459 74.4227C459 64.216 467.283 55.9419 477.5 55.9419 487.717 55.9419 496 64.216 496 74.4227 496 84.6294 487.717 92.9035 477.5 92.9035 467.283 92.9035 459 84.6294 459 74.4227Z" stroke="#FFFFFF" stroke-width="2" stroke-miterlimit="8" fill="#FFFFFF" fill-rule="evenodd"/><text font-family="Cambria Math,Cambria Math_MSFontService,sans-serif" font-weight="400" font-size="19" transform="matrix(1 0 0 0.998963 464.942 77)">𝛼</text><text font-family="Cambria Math,Cambria Math_MSFontService,sans-serif" font-weight="400" font-size="14" transform="matrix(1 0 0 0.998963 476.109 81)">𝑏</text><text font-family="Cambria Math,Cambria Math_MSFontService,sans-serif" font-weight="400" font-size="14" transform="matrix(1 0 0 0.998963 484.275 81)">𝑏</text><path d="M0.966324-0.253267 1.47286 1.67938-0.45979 2.18592-0.966324 0.253267ZM1.97939 3.61203 2.48593 5.54468 0.553278 6.05121 0.0467441 4.11856ZM2.99246 7.47733 3.49899 9.40997 1.56635 9.91651 1.05981 7.98386ZM6.53969 9.19089 4.70053 17.9346-1.19091 11.217Z" transform="matrix(1.00104 0 0 -1 471 102.846)"/><path d="M521 122.872C521 112.942 529.283 104.891 539.5 104.891 549.717 104.891 558 112.942 558 122.872 558 132.803 549.717 140.854 539.5 140.854 529.283 140.854 521 132.803 521 122.872Z" stroke="#FFFFFF" stroke-width="2" stroke-miterlimit="8" fill="#FFFFFF" fill-rule="evenodd"/><text font-family="Cambria Math,Cambria Math_MSFontService,sans-serif" font-weight="400" font-size="19" transform="matrix(1 0 0 0.998963 526.709 126)">𝛼</text><text font-family="Cambria Math,Cambria Math_MSFontService,sans-serif" font-weight="400" font-size="14" transform="matrix(1 0 0 0.998963 537.876 130)">𝑏</text><text font-family="Cambria Math,Cambria Math_MSFontService,sans-serif" font-weight="400" font-size="14" transform="matrix(1 0 0 0.998963 546.042 130)">𝑐</text><path d="M483 182.81C483 172.879 491.059 164.829 501 164.829 510.941 164.829 519 172.879 519 182.81 519 192.741 510.941 200.792 501 200.792 491.059 200.792 483 192.741 483 182.81Z" stroke="#FFFFFF" stroke-width="2" stroke-miterlimit="8" fill="#FFFFFF" fill-rule="evenodd"/><text font-family="Cambria Math,Cambria Math_MSFontService,sans-serif" font-weight="400" font-size="19" transform="matrix(1 0 0 0.998963 494.263 183)">𝛼</text><text font-family="Cambria Math,Cambria Math_MSFontService,sans-serif" font-weight="400" font-size="14" transform="matrix(1 0 0 0.998963 505.43 187)">𝑏</text><text font-family="Cambria Math,Cambria Math_MSFontService,sans-serif" font-weight="400" font-size="14" transform="matrix(1 0 0 0.998963 513.597 187)">𝑒</text><path d="M706 80.4165C706 70.2098 714.283 61.9357 724.5 61.9357 734.717 61.9357 743 70.2098 743 80.4165 743 90.6232 734.717 98.8973 724.5 98.8973 714.283 98.8973 706 90.6232 706 80.4165Z" stroke="#FFFFFF" stroke-width="2" stroke-miterlimit="8" fill="#84E291" fill-rule="evenodd"/><text font-family="Cambria Math,Cambria Math_MSFontService,sans-serif" font-weight="400" font-size="16" transform="matrix(1 0 0 0.998963 711.438 85)">𝑚</text><text font-family="Cambria Math,Cambria Math_MSFontService,sans-serif" font-weight="400" font-size="12" transform="matrix(1 0 0 0.998963 724.772 88)">𝑏</text><text font-family="Cambria Math,Cambria Math_MSFontService,sans-serif" font-weight="400" font-size="12" transform="matrix(1 0 0 0.998963 731.772 88)">𝑎</text><path d="M776 68.4289C776 58.2223 784.283 49.9481 794.5 49.9481 804.717 49.9481 813 58.2223 813 68.4289 813 78.6356 804.717 86.9097 794.5 86.9097 784.283 86.9097 776 78.6356 776 68.4289Z" stroke="#FFFFFF" stroke-width="2" stroke-miterlimit="8" fill="#84E291" fill-rule="evenodd"/><text font-family="Cambria Math,Cambria Math_MSFontService,sans-serif" font-weight="400" font-size="16" transform="matrix(1 0 0 0.998963 780.784 71)">𝑚</text><text font-family="Cambria Math,Cambria Math_MSFontService,sans-serif" font-weight="400" font-size="12" transform="matrix(1 0 0 0.998963 794.117 74)">𝑏</text><text font-family="Cambria Math,Cambria Math_MSFontService,sans-serif" font-weight="400" font-size="12" transform="matrix(1 0 0 0.998963 801.117 74)">𝑏</text><path d="M840 121.374C840 111.167 848.283 102.893 858.5 102.893 868.717 102.893 877 111.167 877 121.374 877 131.581 868.717 139.855 858.5 139.855 848.283 139.855 840 131.581 840 121.374Z" stroke="#FFFFFF" stroke-width="2" stroke-miterlimit="8" fill="#84E291" fill-rule="evenodd"/><text font-family="Cambria Math,Cambria Math_MSFontService,sans-serif" font-weight="400" font-size="16" transform="matrix(1 0 0 0.998963 846.335 125)">𝑚</text><text font-family="Cambria Math,Cambria Math_MSFontService,sans-serif" font-weight="400" font-size="12" transform="matrix(1 0 0 0.998963 859.669 128)">𝑏</text><text font-family="Cambria Math,Cambria Math_MSFontService,sans-serif" font-weight="400" font-size="12" transform="matrix(1 0 0 0.998963 866.669 128)">𝑐</text><path d="M802 189.303C802 179.097 810.283 170.823 820.5 170.823 830.717 170.823 839 179.097 839 189.303 839 199.51 830.717 207.784 820.5 207.784 810.283 207.784 802 199.51 802 189.303Z" stroke="#FFFFFF" stroke-width="2" stroke-miterlimit="8" fill="#84E291" fill-rule="evenodd"/><text font-family="Cambria Math,Cambria Math_MSFontService,sans-serif" font-weight="400" font-size="16" transform="matrix(1 0 0 0.998963 806.751 192)">𝑚</text><text font-family="Cambria Math,Cambria Math_MSFontService,sans-serif" font-weight="400" font-size="12" transform="matrix(1 0 0 0.998963 820.085 196)">𝑏</text><text font-family="Cambria Math,Cambria Math_MSFontService,sans-serif" font-weight="400" font-size="12" transform="matrix(1 0 0 0.998963 827.085 196)">𝑒</text></g></svg>