<svg width="1923" height="646" xmlns="http://www.w3.org/2000/svg" xmlns:xlink="http://www.w3.org/1999/xlink" overflow="hidden"><defs><clipPath id="clip0"><rect x="0" y="0" width="1923" height="646"/></clipPath></defs><g clip-path="url(#clip0)"><rect x="0" y="0" width="1923" height="646.498" fill="#FFFFFF"/><path d="M259.5 193.35C259.5 172.379 276.737 155.379 298 155.379 319.263 155.379 336.5 172.379 336.5 193.35 336.5 214.32 319.263 231.32 298 231.32 276.737 231.32 259.5 214.32 259.5 193.35Z" stroke="#000000" stroke-width="3.00078" stroke-miterlimit="8" fill="#FFFFFF" fill-rule="evenodd"/><path d="M242 248.807C242 226.181 260.356 207.839 283 207.839 305.644 207.839 324 226.181 324 248.807 324 271.433 305.644 289.775 283 289.775 260.356 289.775 242 271.433 242 248.807Z" stroke="#042433" stroke-width="2.00052" stroke-miterlimit="8" fill="#F2AA84" fill-rule="evenodd"/><text fill="#FFFFFF" font-family="Cambria Math,Cambria Math_MSFontService,sans-serif" font-weight="400" font-size="53" transform="matrix(1 0 0 0.999224 259.283 262)">𝑋</text><text fill="#FFFFFF" font-family="Cambria Math,Cambria Math_MSFontService,sans-serif" font-weight="400" font-size="39" transform="matrix(1 0 0 0.999224 291.278 273)">𝑏</text><path d="M40 79.9379C40 57.3118 58.3563 38.9697 81 38.9697 103.644 38.9697 122 57.3118 122 79.9379 122 102.564 103.644 120.906 81 120.906 58.3563 120.906 40 102.564 40 79.9379Z" stroke="#042433" stroke-width="2.00052" stroke-miterlimit="8" fill="#156082" fill-rule="evenodd"/><text fill="#FFFFFF" font-family="Cambria Math,Cambria Math_MSFontService,sans-serif" font-weight="400" font-size="53" transform="matrix(1 0 0 0.999224 57.6768 94)">𝑋</text><text fill="#FFFFFF" font-family="Cambria Math,Cambria Math_MSFontService,sans-serif" font-weight="400" font-size="39" transform="matrix(1 0 0 0.999224 89.6718 104)">𝑎</text><path d="M526 248.807C526 226.181 544.58 207.839 567.5 207.839 590.42 207.839 609 226.181 609 248.807 609 271.433 590.42 289.775 567.5 289.775 544.58 289.775 526 271.433 526 248.807Z" stroke="#042433" stroke-width="2.00052" stroke-miterlimit="8" fill="#156082" fill-rule="evenodd"/><text fill="#FFFFFF" font-family="Cambria Math,Cambria Math_MSFontService,sans-serif" font-weight="400" font-size="53" transform="matrix(1 0 0 0.999224 544.143 262)">𝑋</text><text fill="#FFFFFF" font-family="Cambria Math,Cambria Math_MSFontService,sans-serif" font-weight="400" font-size="39" transform="matrix(1 0 0 0.999224 576.138 273)">𝑐</text><path d="M382 479.628C382 457.002 400.58 438.66 423.5 438.66 446.42 438.66 465 457.002 465 479.628 465 502.254 446.42 520.596 423.5 520.596 400.58 520.596 382 502.254 382 479.628Z" stroke="#042433" stroke-width="2.00052" stroke-miterlimit="8" fill="#156082" fill-rule="evenodd"/><text fill="#FFFFFF" font-family="Cambria Math,Cambria Math_MSFontService,sans-serif" font-weight="400" font-size="53" transform="matrix(1 0 0 0.999224 401.633 493)">𝑋</text><text fill="#FFFFFF" font-family="Cambria Math,Cambria Math_MSFontService,sans-serif" font-weight="400" font-size="39" transform="matrix(1 0 0 0.999224 433.628 504)">𝑒</text><path d="M35 436.661C35 414.035 53.3563 395.693 76 395.693 98.6436 395.693 117 414.035 117 436.661 117 459.287 98.6436 477.629 76 477.629 53.3563 477.629 35 459.287 35 436.661Z" stroke="#042433" stroke-width="2.00052" stroke-miterlimit="8" fill="#156082" fill-rule="evenodd"/><text fill="#FFFFFF" font-family="Cambria Math,Cambria Math_MSFontService,sans-serif" font-weight="400" font-size="53" transform="matrix(1 0 0 0.999224 52.0064 450)">𝑋</text><text fill="#FFFFFF" font-family="Cambria Math,Cambria Math_MSFontService,sans-serif" font-weight="400" font-size="39" transform="matrix(1 0 0 0.999224 84.0014 461)">𝑑</text><path d="M111.437 108.244 241.012 211.796C241.66 212.313 241.765 213.257 241.247 213.903 240.729 214.55 239.785 214.655 239.138 214.138L109.563 110.586C108.916 110.069 108.811 109.125 109.328 108.479 109.846 107.832 110.79 107.727 111.437 108.244ZM243.589 206.176 250.621 221.395 234.218 217.885Z"/><path d="M7.76881e-07-1.49923 189.006-1.49913 189.006 1.49932-7.76881e-07 1.49923ZM187.507-7.49603 202.499 0.000104933 187.507 7.49623Z" transform="matrix(-1.00078 0 0 1 527.157 249.307)"/><path d="M400.512 445.753 307.512 300.451 310.04 298.836 403.04 444.138ZM303.264 304.945 301.5 288.276 315.904 296.868Z"/><path d="M1.01482-1.10355 135.415 122.489 133.385 124.697-1.01482 1.10355ZM138.37 117.06 144.332 132.726 128.222 128.096Z" transform="matrix(1.00078 0 0 -1 106.5 409.012)"/><path d="M0.00711821-7.92262 7.59902 4.89753-7.21224 3.27896Z" transform="matrix(-1.00078 0 0 1 323.605 220.829)"/><path d="M135 160.875C135 140.456 151.565 123.904 172 123.904 192.435 123.904 209 140.456 209 160.875 209 181.294 192.435 197.846 172 197.846 151.565 197.846 135 181.294 135 160.875Z" stroke="#FFFFFF" stroke-width="2.00052" stroke-miterlimit="8" fill="#FFFFFF" fill-rule="evenodd"/><text font-family="Cambria Math,Cambria Math_MSFontService,sans-serif" font-weight="400" font-size="37" transform="matrix(1 0 0 0.999224 143.926 169)">𝐶</text><text font-family="Cambria Math,Cambria Math_MSFontService,sans-serif" font-weight="400" font-size="27" transform="matrix(1 0 0 0.999224 164.078 176)">𝑏𝑎</text><path d="M910.5 192.351C910.5 171.38 927.513 154.38 948.5 154.38 969.487 154.38 986.5 171.38 986.5 192.351 986.5 213.321 969.487 230.321 948.5 230.321 927.513 230.321 910.5 213.321 910.5 192.351Z" stroke="#000000" stroke-width="3.00078" stroke-miterlimit="8" fill="#FFFFFF" fill-rule="evenodd"/><path d="M892 247.808C892 225.182 910.356 206.839 933 206.839 955.644 206.839 974 225.182 974 247.808 974 270.434 955.644 288.776 933 288.776 910.356 288.776 892 270.434 892 247.808Z" stroke="#042433" stroke-width="2.00052" stroke-miterlimit="8" fill="#F2AA84" fill-rule="evenodd"/><text fill="#FFFFFF" font-family="Cambria Math,Cambria Math_MSFontService,sans-serif" font-weight="400" font-size="53" transform="matrix(1 0 0 0.999224 909.356 261)">𝑋</text><text fill="#FFFFFF" font-family="Cambria Math,Cambria Math_MSFontService,sans-serif" font-weight="400" font-size="39" transform="matrix(1 0 0 0.999224 941.351 272)">𝑏</text><path d="M690 78.9387C690 56.3126 708.356 37.9705 731 37.9705 753.644 37.9705 772 56.3126 772 78.9387 772 101.565 753.644 119.907 731 119.907 708.356 119.907 690 101.565 690 78.9387Z" stroke="#042433" stroke-width="2.00052" stroke-miterlimit="8" fill="#156082" fill-rule="evenodd"/><text fill="#FFFFFF" font-family="Cambria Math,Cambria Math_MSFontService,sans-serif" font-weight="400" font-size="53" transform="matrix(1 0 0 0.999224 704.416 93)">𝑋</text><text fill="#FFFFFF" font-family="Cambria Math,Cambria Math_MSFontService,sans-serif" font-weight="400" font-size="39" transform="matrix(1 0 0 0.999224 736.411 104)">𝑎</text><path d="M1176 247.808C1176 225.182 1194.58 206.839 1217.5 206.839 1240.42 206.839 1259 225.182 1259 247.808 1259 270.434 1240.42 288.776 1217.5 288.776 1194.58 288.776 1176 270.434 1176 247.808Z" stroke="#042433" stroke-width="2.00052" stroke-miterlimit="8" fill="#156082" fill-rule="evenodd"/><text fill="#FFFFFF" font-family="Cambria Math,Cambria Math_MSFontService,sans-serif" font-weight="400" font-size="53" transform="matrix(1 0 0 0.999224 1194.22 261)">𝑋</text><text fill="#FFFFFF" font-family="Cambria Math,Cambria Math_MSFontService,sans-serif" font-weight="400" font-size="39" transform="matrix(1 0 0 0.999224 1226.21 272)">𝑐</text><path d="M1032 478.628C1032 456.002 1050.58 437.66 1073.5 437.66 1096.42 437.66 1115 456.002 1115 478.628 1115 501.255 1096.42 519.597 1073.5 519.597 1050.58 519.597 1032 501.255 1032 478.628Z" stroke="#042433" stroke-width="2.00052" stroke-miterlimit="8" fill="#156082" fill-rule="evenodd"/><text fill="#FFFFFF" font-family="Cambria Math,Cambria Math_MSFontService,sans-serif" font-weight="400" font-size="53" transform="matrix(1 0 0 0.999224 1051.71 492)">𝑋</text><text fill="#FFFFFF" font-family="Cambria Math,Cambria Math_MSFontService,sans-serif" font-weight="400" font-size="39" transform="matrix(1 0 0 0.999224 1083.7 503)">𝑒</text><path d="M685 435.662C685 413.036 703.356 394.694 726 394.694 748.644 394.694 767 413.036 767 435.662 767 458.288 748.644 476.63 726 476.63 703.356 476.63 685 458.288 685 435.662Z" stroke="#042433" stroke-width="2.00052" stroke-miterlimit="8" fill="#156082" fill-rule="evenodd"/><text fill="#FFFFFF" font-family="Cambria Math,Cambria Math_MSFontService,sans-serif" font-weight="400" font-size="53" transform="matrix(1 0 0 0.999224 702.08 449)">𝑋</text><text fill="#FFFFFF" font-family="Cambria Math,Cambria Math_MSFontService,sans-serif" font-weight="400" font-size="39" transform="matrix(1 0 0 0.999224 734.075 460)">𝑑</text><path d="M761.437 107.245 891.012 210.797C891.66 211.314 891.765 212.258 891.247 212.904 890.729 213.551 889.785 213.656 889.138 213.139L759.563 109.587C758.916 109.07 758.811 108.126 759.328 107.479 759.846 106.833 760.79 106.728 761.437 107.245ZM893.589 205.177 900.621 220.395 884.218 216.886Z"/><path d="M7.76881e-07-1.49923 189.006-1.49913 189.006 1.49932-7.76881e-07 1.49923ZM187.507-7.49603 202.499 0.000104933 187.507 7.49623Z" transform="matrix(-1.00078 0 0 1 1177.16 248.307)"/><path d="M1050.51 444.754 957.511 299.452 960.039 297.836 1053.04 443.138ZM953.264 303.946 951.5 287.277 965.904 295.868Z"/><path d="M1.01482-1.10355 135.415 122.489 133.385 124.697-1.01482 1.10355ZM138.37 117.06 144.332 132.726 128.222 128.096Z" transform="matrix(1.00078 0 0 -1 756.5 408.013)"/><path d="M0.00711821-7.92262 7.59902 4.89753-7.21224 3.27896Z" transform="matrix(-1.00078 0 0 1 973.605 219.829)"/><path d="M731.003 395.169 731.208 392.177 734.202 392.382 733.997 395.374ZM731.631 389.018 732.224 386.079 735.165 386.671 734.573 389.61ZM733.202 383.056 733.759 381.37 734.337 380.107 737.066 381.354 736.522 382.542 736.583 382.388 736.052 383.995ZM735.585 377.38 735.787 376.938 737.137 374.64 739.725 376.157 738.414 378.39 738.484 378.255 738.314 378.627ZM738.795 371.975 740.552 369.544 742.985 371.299 741.228 373.73ZM742.522 367.112 744.488 364.846 746.755 366.81 744.789 369.076ZM746.721 362.658 748.321 361.103 749.084 360.528 750.893 362.92 750.205 363.439 750.346 363.318 748.813 364.808ZM751.478 358.72 753.871 356.912 755.681 359.304 753.287 361.112ZM756.265 355.104 756.607 354.845 758.996 353.468 760.496 356.065 758.188 357.396 758.343 357.293 758.075 357.496ZM761.728 351.95 764.445 350.676 765.72 353.391 763.003 354.664ZM767.331 349.466 770.149 348.436 771.18 351.252 768.362 352.282ZM773.164 347.568 775.947 346.835 776.266 346.794 776.642 349.769 776.421 349.797 776.616 349.759 773.93 350.467ZM776.851 343.662 786.261 347.23 777.758 352.612Z"/><path d="M934.51 289.389 934.283 292.379 931.291 292.152 931.518 289.162ZM933.942 295.569 933.29 298.496 930.361 297.843 931.014 294.917ZM932.445 301.571 931.416 304.387 928.597 303.358 929.627 300.542ZM930.156 307.298 928.8 309.973 926.123 308.618 927.479 305.943ZM927.207 312.697 925.572 315.211 923.056 313.577 924.691 311.063ZM923.712 317.744 921.838 320.086 919.494 318.214 921.368 315.872ZM919.764 322.433 917.685 324.596 915.521 322.519 917.599 320.356ZM915.434 326.763 913.179 328.741 911.199 326.488 913.454 324.509ZM910.779 330.734 908.37 332.522 906.58 330.115 908.989 328.327ZM905.842 334.347 903.298 335.939 901.706 333.397 904.249 331.806ZM900.755 337.53 900.587 337.635 897.997 338.984 896.61 336.325 899.148 335.003 899.045 335.062 899.162 334.989ZM895.336 340.37 894.572 340.768 892.492 341.649 891.321 338.888 893.346 338.031 893.237 338.082 893.949 337.711ZM889.729 342.819 888.288 343.429 886.808 343.918 885.867 341.07 887.289 340.601 887.174 340.644 888.558 340.058ZM883.959 344.858 881.788 345.575 880.969 345.77 880.273 342.853 881.03 342.673 880.907 342.708 883.018 342.011ZM878.05 346.465 875.108 347.165 874.971 347.182 874.592 344.208 874.65 344.201 874.491 344.23 877.354 343.548ZM871.994 347.561 869.171 347.919 868.792 344.945 871.616 344.586ZM870.809 350.807 861.5 346.984 870.146 341.836Z"/><path d="M0.306861-1.46749 2.80914-0.944243 3.62811-0.444574 2.06642 2.11508 1.46825 1.75013 1.94224 1.93779-0.306861 1.46749ZM6.30056 1.56336 7.62727 2.90838 8.40459 4.04919 5.92667 5.73757 5.22572 4.70884 5.39733 4.91747 4.16586 3.66902ZM10.0764 6.7881 11.2227 9.14346 11.405 9.68567 8.56289 10.6412 8.41136 10.1905 8.48438 10.3688 7.38027 8.10029ZM12.3605 12.5278 12.4726 12.8612 13.0346 15.6388 10.0957 16.2335 9.55228 13.5475 9.60067 13.728 9.51841 13.4833ZM13.4128 18.8041 13.5536 20.8349 13.546 20.7555 13.6635 21.7111 10.6875 22.0773 10.5651 21.0821 10.4215 19.0116ZM14.3843 24.2572 14.4122 24.3345 14.2921 24.08 15.4263 25.9944 15.2951 25.807 15.7337 26.3411 13.4165 28.2441 12.9051 27.6214 11.6404 25.4867 11.5644 25.2765ZM17.6115 28.3117 19.8927 30.2577 17.9467 32.5389 15.6655 30.5929ZM22.1452 31.7957 24.7285 33.318 23.2062 35.9013 20.6229 34.379ZM27.2268 34.5619 29.9904 35.7251 28.8272 38.4888 26.0636 37.3255ZM32.6166 36.7584 35.4958 37.5955 34.6587 40.4747 31.7795 39.6376ZM38.375 38.4327 39.0818 38.6382 38.8944 38.5965 41.1298 38.9454 40.6673 41.908 38.337 41.5442 37.5379 41.3119ZM44.0924 39.4079 46.8566 39.8394 46.3941 42.802 43.6299 42.3705ZM45.4642 36.7241 54.1008 41.8772 44.7964 45.6947Z" transform="matrix(1.8384e-16 1 1.00078 -1.83697e-16 962.5 277.285)"/><path d="M1035.4 476.968 1032.3 476.539 1032.07 476.445 1033.2 473.668 1033.26 473.691 1032.9 473.594 1035.81 473.998ZM1029.29 475.314 1029.1 475.235 1026.52 473.519 1028.19 471.025 1030.64 472.657 1030.37 472.515 1030.42 472.537ZM1024.09 471.395 1023.1 470.479 1021.91 469.075 1024.21 467.143 1025.33 468.475 1025.2 468.341 1026.12 469.194ZM1019.93 466.628 1018.24 464.154 1020.71 462.46 1022.41 464.934ZM1016.62 461.487 1015.16 458.94 1015.09 458.786 1017.8 457.487 1017.85 457.594 1017.8 457.5 1019.23 460.002ZM1013.79 456.083 1012.85 454.122 1012.5 453.274 1015.28 452.145 1015.61 452.95 1015.57 452.865 1016.5 454.784ZM1011.37 450.497 1010.72 448.901 1010.28 447.615 1013.12 446.642 1013.55 447.888 1013.52 447.81 1014.15 449.367ZM1009.31 444.778 1008.8 443.305 1008.41 441.797 1011.32 441.047 1011.69 442.499 1011.66 442.388 1012.15 443.806ZM1007.66 438.893 1006.91 435.99 1009.82 435.241 1010.57 438.144ZM1006.16 433.087 1005.7 431.301 1005.5 430.015 1008.47 429.554 1008.66 430.768 1008.63 430.623 1009.07 432.337ZM1005.04 427.052 1004.58 424.089 1007.55 423.629 1008.01 426.591ZM1004.12 421.126 1003.7 418.453 1003.68 418.009 1006.68 417.849 1006.7 418.218 1006.68 418.067 1007.09 420.666ZM1003.52 415.014 1003.4 412.751 1006.4 412.591 1006.52 414.855ZM1000.48 414.407 1004.5 405.185 1009.47 413.929Z"/><path d="M0.124908-1.49401 3.11294-1.2442 2.86312 1.74383-0.124908 1.49401ZM6.10096-0.99438 6.9083-0.926883 9.26173-0.352787 8.55112 2.56025 6.31143 2.01389 6.54182 2.05139 5.85115 1.99365ZM12.1748 0.357819 13.5857 0.702013 15.2216 1.36508 14.0952 4.14393 12.5609 3.522 12.7687 3.58909 11.4642 3.27085ZM18.0004 2.49146 19.827 3.23182 20.9018 3.86249 19.3843 6.4486 18.4038 5.87324 18.5993 5.96962 16.8741 5.27031ZM23.4879 5.37999 25.4332 6.52148 26.1896 7.14285 24.2863 9.45977 23.621 8.91328 23.8139 9.04787 21.9704 7.96609ZM28.5065 9.04617 30.2037 10.4404 30.8978 11.2659 28.6029 13.1956 27.9977 12.4759 28.1935 12.6695 26.6032 11.3631ZM32.8276 13.5608 33.9298 14.8716 34.6673 16.3289 31.9919 17.6828 31.3328 16.3805 31.5231 16.6684 30.5327 15.4906ZM36.0212 19.0043 36.35 19.654 37.0195 22.2362 37.0349 22.4104 34.0481 22.674 34.0436 22.6238 34.0858 22.8683 33.4881 20.5631 33.6016 20.8637 33.3458 20.3581ZM37.2993 25.3951 37.4436 27.005 37.4002 26.7571 37.7521 28.0936 34.8525 28.8571 34.4684 27.3985 34.3128 25.6628ZM38.8035 30.5347 40.174 33.2016 37.5072 34.5722 36.1366 31.9053ZM41.9191 35.1994 43.5815 37.1462 43.3843 36.9542 43.7252 37.2299 41.8394 39.5611 41.3911 39.1985 39.6389 37.1466ZM46.0564 39.1157 48.0278 40.7104 47.8349 40.5779 48.2357 40.8095 46.7355 43.4057 46.2332 43.1154 44.1706 41.4469ZM50.8319 42.3096 53.3291 43.7526 53.1348 43.6583 53.241 43.7007 52.1294 46.4855 51.9227 46.4029 49.3317 44.9058ZM56.0258 44.8122 58.8106 45.9237 57.6991 48.7086 54.9142 47.597ZM61.4991 46.6261 64.4146 47.3265 63.7143 50.242 60.7987 49.5416ZM67.1457 47.7237 70.1341 47.9697 69.888 50.9581 66.8997 50.7121ZM72.8807 48.0599 75.8697 47.822 76.1075 50.811 73.1185 51.0489ZM78.6347 47.5935 81.5554 46.9153 82.2336 49.836 79.3129 50.5142ZM84.4762 46.2371 85.0275 46.1091 84.827 46.1707 87.0963 45.2951 88.1757 48.0926 85.8082 49.006 85.1544 49.1578ZM89.8938 44.2158 90.9592 43.8048 90.7677 43.8946 92.3886 42.9893 93.8507 45.6071 92.1374 46.5641 90.9731 47.0133ZM95.0064 41.5271 96.2619 40.8259 96.0695 40.9537 97.2987 39.9926 99.1457 42.3546 97.8252 43.3872 96.4685 44.1449ZM99.6607 38.1456 100.713 37.3228 100.513 37.5113 101.614 36.2651 103.861 38.2503 102.669 39.5999 101.508 40.5076ZM103.599 34.0179 104.093 33.4587 103.815 33.9177 104.473 32.1903 107.275 33.2574 106.521 35.2396 105.846 36.0031ZM101.134 32.6631 108.336 25.6434 109.63 35.6168Z" transform="matrix(1.00078 0 0 -1 973.5 235.98)"/><path d="M1190.15 277.421 1189.87 280.407 1186.89 280.135 1187.16 277.149ZM1189.12 283.567 1188.87 284.501 1187.96 286.57 1185.21 285.366 1186.08 283.401 1186 283.616 1186.22 282.792ZM1186.48 289.398 1185.29 291.364 1184.75 292.051 1182.38 290.207 1182.87 289.588 1182.77 289.732 1183.92 287.84ZM1182.9 294.416 1182.76 294.602 1180.74 296.706 1178.57 294.63 1180.54 292.581 1180.44 292.697 1180.54 292.572ZM1178.45 298.851 1176.45 300.587 1176.07 300.867 1174.3 298.447 1174.63 298.204 1174.53 298.282 1176.49 296.586ZM1173.65 302.637 1172.73 303.309 1170.96 304.313 1169.47 301.707 1171.17 300.744 1171.02 300.838 1171.87 300.217ZM1168.35 305.795 1165.74 307.278 1164.26 304.671 1166.87 303.189ZM1162.84 308.643 1160.05 309.74 1158.95 306.949 1161.74 305.853ZM1157.25 310.836 1155.2 311.643 1154.22 311.874 1153.53 308.956 1154.4 308.749 1154.2 308.813 1156.16 308.045ZM1151.3 312.564 1148.38 313.254 1147.69 310.335 1150.61 309.646ZM1145.46 313.943 1145.33 313.973 1142.32 314.338 1141.95 311.361 1144.89 311.006 1144.72 311.036 1144.77 311.025ZM1139.21 314.634 1136.21 314.757 1136.09 311.761 1139.09 311.638ZM1133.06 314.674 1130.06 314.479 1130.26 311.487 1133.25 311.682ZM1127.07 314.283 1124.89 314.141 1123.91 313.953 1124.47 311.008 1125.36 311.179 1125.18 311.155 1127.26 311.291ZM1120.96 313.392 1118.01 312.831 1118.57 309.885 1121.52 310.447ZM1114.89 312.219 1112.03 311.314 1112.94 308.455 1115.8 309.36ZM1109.17 310.408 1106.31 309.503 1107.22 306.645 1110.08 307.55ZM1103.39 308.237 1100.66 306.987 1101.91 304.261 1104.64 305.511ZM1097.94 305.738 1097.55 305.56 1095.2 304.175 1096.72 301.592 1099 302.938 1098.87 302.866 1099.19 303.012ZM1092.58 302.493 1090.47 301.024 1090.04 300.659 1091.97 298.363 1092.35 298.686 1092.25 298.605 1094.3 300.036ZM1087.74 298.73 1087.51 298.532 1085.53 296.486 1087.68 294.402 1089.61 296.391 1089.5 296.286 1089.67 296.434ZM1083.65 293.733 1082.68 292.108 1085.26 290.577 1086.23 292.202ZM1080.22 294.24 1081.5 284.265 1088.72 291.276Z"/><path d="M894.895 246.16 891.897 246.035 892.022 243.039 895.02 243.164ZM888.898 245.91 887.77 245.863 885.793 245.621 886.158 242.644 888.075 242.879 887.955 242.869 889.023 242.914ZM882.814 245.256 880.643 244.99 879.734 244.808 880.324 241.868 881.178 242.039 881.065 242.021 883.179 242.28ZM876.791 244.217 873.849 243.627 874.44 240.687 877.382 241.278ZM870.849 242.809 867.958 242.005 868.763 239.116 871.653 239.92ZM865.005 241.043 862.179 240.034 863.188 237.21 866.014 238.219ZM859.278 238.925 856.531 237.719 857.738 234.974 860.485 236.18ZM853.691 236.458 851.037 235.059 852.437 232.407 855.091 233.806ZM848.383 233.66 847.849 233.378 845.723 232.049 847.315 229.507 849.394 230.807 849.298 230.752 849.783 231.008ZM843.18 230.458 842.235 229.867 840.625 228.676 842.41 226.266 843.973 227.421 843.877 227.356 844.772 227.916ZM838.213 226.893 837.062 226.043 835.788 224.925 837.768 222.672 838.995 223.748 838.897 223.67 839.997 224.483ZM833.533 222.947 832.386 221.941 831.277 220.773 833.454 218.709 834.516 219.828 834.417 219.733 835.513 220.694ZM829.212 218.597 828.261 217.595 827.178 216.193 829.555 214.362 830.59 215.704 830.491 215.588 831.389 216.534ZM825.346 213.819 824.743 213.038 823.616 211.164 826.188 209.62 827.271 211.419 827.173 211.275 827.722 211.988ZM822.071 208.594 821.893 208.3 820.758 205.682 823.511 204.489 824.607 207.016 824.516 206.84 824.643 207.05ZM819.598 202.589 819.286 201.035 822.228 200.445 822.54 202ZM816.571 202.972 819.5 193.35 825.446 201.464Z"/><path d="M772.579 77.9412 775.575 78.0988 775.418 81.0931 772.421 80.9355ZM778.705 78.438 781.441 78.8608 781.804 78.9527 781.067 81.8593 780.773 81.7848 780.913 81.8131 778.247 81.4012ZM784.713 79.6893 785.812 79.9675 787.701 80.6306 786.706 83.4596 784.881 82.8187 785.009 82.8575 783.976 82.5959ZM790.68 81.7634 793.362 83.1075 792.017 85.7878 789.335 84.4437ZM796.044 84.4515 798.122 85.4924 798.868 86.0337 797.105 88.4602 796.458 87.9909 796.667 88.1178 794.699 87.1319ZM801.297 87.7952 803.725 89.5566 801.962 91.9832 799.534 90.2217ZM806.219 91.6221 808.323 93.7594 806.185 95.8624 804.08 93.7251ZM810.428 95.8967 811.419 96.9032 812.493 98.3308 810.094 100.132 809.08 98.7844 809.21 98.9352 808.289 97.9997ZM814.331 100.878 815.896 103.437 813.335 105 811.77 102.441ZM817.301 106.258 817.952 107.625 818.417 109.312 815.523 110.107 815.094 108.547 815.186 108.795 814.592 107.548ZM821.728 109.571 818.831 119.203 812.858 111.108Z"/><path d="M1546 191.851C1546 170.881 1563.24 153.881 1584.5 153.881 1605.76 153.881 1623 170.881 1623 191.851 1623 212.822 1605.76 229.822 1584.5 229.822 1563.24 229.822 1546 212.822 1546 191.851Z" stroke="#000000" stroke-width="4.00104" stroke-miterlimit="8" fill="#FFFFFF" fill-rule="evenodd"/><rect x="1537" y="138.892" width="32" height="87.9317" fill="#FFFFFF"/><path d="M1528 247.808C1528 225.182 1546.58 206.839 1569.5 206.839 1592.42 206.839 1611 225.182 1611 247.808 1611 270.434 1592.42 288.776 1569.5 288.776 1546.58 288.776 1528 270.434 1528 247.808Z" stroke="#042433" stroke-width="2.00052" stroke-miterlimit="8" fill="#F2AA84" fill-rule="evenodd"/><text fill="#FFFFFF" font-family="Cambria Math,Cambria Math_MSFontService,sans-serif" font-weight="400" font-size="53" transform="matrix(1 0 0 0.999224 1544.49 261)">𝑋</text><text fill="#FFFFFF" font-family="Cambria Math,Cambria Math_MSFontService,sans-serif" font-weight="400" font-size="39" transform="matrix(1 0 0 0.999224 1576.49 272)">𝑏</text><path d="M1327 78.9387C1327 56.3126 1345.36 37.9705 1368 37.9705 1390.64 37.9705 1409 56.3126 1409 78.9387 1409 101.565 1390.64 119.907 1368 119.907 1345.36 119.907 1327 101.565 1327 78.9387Z" stroke="#042433" stroke-width="2.00052" stroke-miterlimit="8" fill="#156082" fill-rule="evenodd"/><text fill="#FFFFFF" font-family="Cambria Math,Cambria Math_MSFontService,sans-serif" font-weight="400" font-size="53" transform="matrix(1 0 0 0.999224 1341.15 93)">𝑋</text><text fill="#FFFFFF" font-family="Cambria Math,Cambria Math_MSFontService,sans-serif" font-weight="400" font-size="39" transform="matrix(1 0 0 0.999224 1373.15 104)">𝑎</text><path d="M1813 247.808C1813 225.182 1831.36 206.839 1854 206.839 1876.64 206.839 1895 225.182 1895 247.808 1895 270.434 1876.64 288.776 1854 288.776 1831.36 288.776 1813 270.434 1813 247.808Z" stroke="#042433" stroke-width="2.00052" stroke-miterlimit="8" fill="#156082" fill-rule="evenodd"/><text fill="#FFFFFF" font-family="Cambria Math,Cambria Math_MSFontService,sans-serif" font-weight="400" font-size="53" transform="matrix(1 0 0 0.999224 1830.95 261)">𝑋</text><text fill="#FFFFFF" font-family="Cambria Math,Cambria Math_MSFontService,sans-serif" font-weight="400" font-size="39" transform="matrix(1 0 0 0.999224 1862.95 272)">𝑐</text><path d="M1669 478.628C1669 456.002 1687.36 437.66 1710 437.66 1732.64 437.66 1751 456.002 1751 478.628 1751 501.255 1732.64 519.597 1710 519.597 1687.36 519.597 1669 501.255 1669 478.628Z" stroke="#042433" stroke-width="2.00052" stroke-miterlimit="8" fill="#156082" fill-rule="evenodd"/><text fill="#FFFFFF" font-family="Cambria Math,Cambria Math_MSFontService,sans-serif" font-weight="400" font-size="53" transform="matrix(1 0 0 0.999224 1688.44 492)">𝑋</text><text fill="#FFFFFF" font-family="Cambria Math,Cambria Math_MSFontService,sans-serif" font-weight="400" font-size="39" transform="matrix(1 0 0 0.999224 1720.44 503)">𝑒</text><path d="M1321 435.662C1321 413.036 1339.58 394.694 1362.5 394.694 1385.42 394.694 1404 413.036 1404 435.662 1404 458.288 1385.42 476.63 1362.5 476.63 1339.58 476.63 1321 458.288 1321 435.662Z" stroke="#042433" stroke-width="2.00052" stroke-miterlimit="8" fill="#156082" fill-rule="evenodd"/><text fill="#FFFFFF" font-family="Cambria Math,Cambria Math_MSFontService,sans-serif" font-weight="400" font-size="53" transform="matrix(1 0 0 0.999224 1338.82 449)">𝑋</text><text fill="#FFFFFF" font-family="Cambria Math,Cambria Math_MSFontService,sans-serif" font-weight="400" font-size="39" transform="matrix(1 0 0 0.999224 1370.81 460)">𝑑</text><path d="M1473.31 178.101 1526.8 212.617C1527.49 213.066 1527.69 213.994 1527.24 214.69 1526.79 215.385 1525.86 215.585 1525.17 215.136L1471.69 180.62C1470.99 180.171 1470.79 179.243 1471.24 178.547 1471.69 177.852 1472.62 177.652 1473.31 178.101ZM1528.79 206.766 1537.32 221.197 1520.65 219.36Z"/><path d="M0.0157135-1.49914 65.2005-0.8159 65.1691 2.18239-0.0157135 1.49914ZM63.7642-6.82819 78.6771 0.824666 63.6071 8.16325Z" transform="matrix(-1.00078 0 0 1 1690.24 247.308)"/><path d="M1628.39 352.113 1594.54 299.44 1597.06 297.82 1630.92 350.493ZM1590.3 303.942 1588.5 287.277 1602.92 295.84Z"/><path d="M1.02883-1.0905 55.989 50.7611 53.9313 52.9421-1.02883 1.0905ZM59.0137 45.3703 64.7747 61.111 48.7255 56.2753Z" transform="matrix(1.00078 0 0 -1 1473.5 338.396)"/><path d="M-1.89086-11.1277 7.59902 4.89753-10.9151 2.87432Z" transform="matrix(-1.00078 0 0 1 1611.1 220.329)"/><path d="M1368 394.735 1368.19 391.742 1371.19 391.932 1371 394.924ZM1368.59 388.593 1369.14 385.595 1369.18 385.483 1372.05 386.357 1372.04 386.388 1372.08 386.225 1371.54 389.141ZM1370.05 382.615 1370.52 381.088 1371.12 379.652 1373.89 380.819 1373.31 382.182 1373.37 382.036 1372.92 383.488ZM1372.29 376.89 1372.37 376.702 1373.77 374.117 1376.41 375.545 1375.04 378.066 1375.11 377.935 1375.06 378.056ZM1375.36 371.419 1377.03 368.924 1379.53 370.586 1377.86 373.082ZM1379.06 366.468 1381.04 364.208 1383.3 366.179 1381.32 368.439ZM1383.01 361.948 1383.81 361.026 1385.38 359.742 1387.28 362.062 1385.81 363.266 1385.99 363.091 1385.27 363.919ZM1387.7 357.842 1390.03 355.942 1391.93 358.262 1389.6 360.162ZM1392.6 354.064 1395.14 352.474 1396.73 355.016 1394.19 356.606ZM1397.91 351.011 1399.99 349.954 1400.74 349.657 1401.85 352.444 1401.16 352.716 1401.29 352.658 1399.27 353.684ZM1403.53 348.552 1404.51 348.164 1406.52 347.588 1407.35 350.471 1405.41 351.026 1405.55 350.979 1404.64 351.339ZM1409.65 346.77 1411.02 346.602 1411.39 349.578 1410.02 349.746ZM1409.2 343.793 1418.66 347.232 1410.23 352.729Z"/><path d="M1571.2 289.394 1570.97 292.383 1567.98 292.146 1568.21 289.157ZM1570.62 295.581 1569.94 298.502 1567.01 297.822 1567.69 294.902ZM1569.07 301.577 1568 304.379 1565.2 303.311 1566.27 300.509ZM1566.71 307.282 1565.31 309.933 1562.66 308.532 1564.06 305.881ZM1563.69 312.645 1562.01 315.126 1559.52 313.443 1561.21 310.962ZM1560.12 317.646 1558.2 319.948 1555.9 318.028 1557.82 315.725ZM1556.11 322.285 1553.99 324.403 1551.87 322.28 1553.99 320.162ZM1551.73 326.566 1549.44 328.496 1547.51 326.202 1549.8 324.272ZM1547.04 330.498 1544.6 332.237 1542.86 329.794 1545.3 328.055ZM1542.15 333.976 1541.53 334.421 1539.51 335.629 1537.97 333.058 1539.93 331.88 1539.84 331.944 1540.41 331.533ZM1536.94 337.172 1535.54 338.009 1534.21 338.673 1532.87 335.991 1534.15 335.352 1534.05 335.408 1535.4 334.6ZM1531.53 340.013 1529.22 341.162 1528.72 341.366 1527.59 338.588 1528.04 338.406 1527.94 338.454 1530.19 337.331ZM1525.94 342.495 1523.16 343.623 1522.03 340.844 1524.81 339.716ZM1520.2 344.606 1517.34 345.511 1516.44 342.652 1519.3 341.748ZM1514.33 346.334 1511.41 347.001 1510.74 344.078 1513.66 343.411ZM1508.32 347.656 1505.34 348.021 1504.98 345.045 1507.96 344.68ZM1502.36 348.387 1502.17 348.411 1501.8 345.435 1502 345.411ZM1503.78 351.31 1494.5 347.426 1503.18 342.335Z"/><path d="M1672.06 477.283 1669.47 476.934 1668.77 476.658 1669.87 473.87 1670.4 474.078 1670.05 473.987 1672.46 474.311ZM1665.8 475.242 1664.18 474.191 1663.21 473.319 1665.22 471.09 1666.1 471.883 1665.92 471.74 1667.44 472.727ZM1660.95 471.085 1659.39 469.292 1658.95 468.657 1661.4 466.931 1661.8 467.504 1661.71 467.385 1663.22 469.122ZM1657.15 466.1 1655.63 463.514 1658.22 461.997 1659.74 464.584ZM1654.19 460.765 1653.17 458.705 1652.87 457.922 1655.67 456.846 1655.95 457.565 1655.89 457.438 1656.88 459.436ZM1651.8 455.123 1650.72 452.324 1653.52 451.248 1654.6 454.047ZM1649.65 449.352 1648.88 446.454 1651.79 445.685 1652.55 448.583ZM1648.11 443.556 1647.35 440.658 1650.25 439.889 1651.02 442.787ZM1646.81 437.555 1646.34 434.595 1649.3 434.122 1649.77 437.083ZM1645.86 431.634 1645.58 429.896 1645.51 428.504 1648.5 428.34 1648.58 429.654 1648.56 429.5 1648.83 431.161ZM1642.5 428.402 1646.5 419.175 1651.49 427.911Z"/><path d="M0.126111-1.49391 3.11394-1.24169 2.86172 1.74613-0.126111 1.49391ZM6.10176-0.989469 7.35317-0.883829 9.27463-0.410563 8.55752 2.50088 6.75078 2.05587 6.98322 2.09406 5.84954 1.99836ZM12.1861 0.30654 14.4611 0.866884 15.272 1.19877 14.1363 3.9738 13.4275 3.68373 13.6368 3.75193 11.469 3.21798ZM18.047 2.3345 20.8221 3.47023 19.6863 6.24527 16.9113 5.10954ZM23.6108 5.07077 26.1904 6.59916 24.6621 9.17884 22.0824 7.65044ZM28.7732 8.53298 31.0811 10.4473 29.1668 12.7551 26.8589 10.8409ZM33.356 12.7843 35.2749 15.0884 32.9708 17.0073 31.052 14.7032ZM37.0812 17.7754 37.5747 18.6213 38.4336 20.6618 35.67 21.8251 34.8489 19.8743 34.9358 20.0482 34.4913 19.2865ZM39.3241 23.7497 39.3792 23.9643 39.6086 26.5889 39.6422 26.9778 36.6549 27.2362 36.6215 26.85 36.4028 24.3483 36.4443 24.5906 36.4198 24.4955ZM40.0002 29.7014 40.415 31.3341 40.346 31.1269 40.851 32.34 38.083 33.4925 37.5358 32.1785 37.0941 30.4397ZM42.1105 34.8397 42.6538 35.781 42.5124 35.5772 43.728 37.0526 41.4137 38.9592 40.1191 37.3877 39.5136 36.3387ZM45.6345 39.3668 46.2314 40.0913 46.0375 39.8958 47.6159 41.2192 45.6894 43.5168 44.0051 42.1046 43.3203 41.2734ZM49.9136 43.1457 50.8611 43.9402 50.6682 43.8028 52.1797 44.7081 50.6391 47.2805 49.0256 46.3142 47.9871 45.4434ZM54.7521 46.2488 56.3755 47.221 56.1783 47.1219 57.2005 47.5448 56.0542 50.3155 54.9298 49.8503 53.2115 48.8211ZM59.9712 48.691 62.5484 49.7573 62.3375 49.6878 62.5407 49.7384 61.8162 52.648 61.505 52.5705 58.8249 51.4617ZM65.4503 50.4628 68.3599 51.1873 67.6355 54.0969 64.7258 53.3725ZM71.0916 51.5306 74.0792 51.7856 73.8242 54.7732 70.8366 54.5182ZM76.8256 51.8582 79.8153 51.6291 80.0443 54.6188 77.0546 54.8479ZM82.591 51.4224 85.5172 50.7683 86.1713 53.6945 83.2451 54.3486ZM88.4435 50.1142 89.338 49.9143 89.143 49.972 91.0947 49.2471 92.1386 52.0579 90.0915 52.8183 89.0976 53.0404ZM93.9055 48.2031 95.5131 47.606 95.3252 47.691 96.4556 47.0831 97.8756 49.724 96.6541 50.3808 94.9495 51.0139ZM99.0965 45.6632 101.032 44.6222 100.841 44.7449 101.48 44.2635 103.284 46.6591 102.553 47.2091 100.516 48.3041ZM103.876 42.4603 105.664 41.1139 105.461 41.2981 105.975 40.7383 108.184 42.7656 107.578 43.4268 105.679 44.8559ZM108.003 38.529 109.18 37.2455 108.899 37.6881 109.377 36.5265 112.15 37.6686 111.57 39.0765 110.212 40.5564ZM106.265 36.4109 113.525 29.4512 114.737 39.435Z" transform="matrix(1.00078 0 0 -1 1610.5 236.79)"/><path d="M1826.95 277.414 1826.69 280.401 1823.7 280.143 1823.96 277.155ZM1825.98 283.558 1825.74 284.479 1824.87 286.572 1822.1 285.417 1822.93 283.426 1822.86 283.633 1823.07 282.818ZM1823.44 289.421 1822.33 291.335 1821.76 292.105 1819.35 290.318 1819.87 289.617 1819.78 289.76 1820.84 287.92ZM1819.88 294.63 1817.85 296.845 1815.64 294.823 1817.66 292.608ZM1815.5 299.008 1813.2 300.932 1811.28 298.632 1813.58 296.708ZM1810.9 302.856 1810.4 303.274 1808.18 304.599 1806.64 302.026 1808.76 300.761 1808.56 300.898 1808.97 300.556ZM1805.6 306.138 1803.03 307.676 1801.49 305.102 1804.06 303.564ZM1800.09 308.987 1797.32 310.131 1796.17 307.36 1798.95 306.215ZM1794.54 311.275 1793.67 311.636 1791.46 312.185 1790.74 309.275 1792.84 308.753 1792.63 308.822 1793.4 308.504ZM1788.55 312.908 1785.63 313.631 1784.91 310.721 1787.82 309.998ZM1782.51 314.193 1779.54 314.572 1779.16 311.598 1782.13 311.219ZM1776.42 314.72 1774.46 314.805 1773.24 314.716 1773.46 311.726 1774.59 311.808 1774.41 311.806 1776.29 311.725ZM1770.25 314.496 1767.26 314.275 1767.48 311.285 1770.47 311.505ZM1764.07 313.944 1761.14 313.315 1761.77 310.383 1764.7 311.013ZM1758.21 312.685 1755.35 312.071 1755.09 311.978 1756.1 309.155 1756.26 309.214 1756.08 309.16 1758.84 309.753ZM1752.26 310.97 1749.44 309.962 1750.45 307.138 1753.27 308.146ZM1746.43 308.869 1743.76 307.492 1745.14 304.829 1747.81 306.206ZM1741.1 306.116 1738.64 304.848 1738.27 304.577 1740.03 302.148 1740.31 302.353 1740.12 302.236 1742.47 303.452ZM1735.84 302.819 1733.41 301.061 1735.16 298.632 1737.6 300.39ZM1730.93 299.045 1729.1 297.312 1728.69 296.831 1730.97 294.879 1731.33 295.301 1731.22 295.189 1733 296.868ZM1726.63 294.412 1724.96 291.919 1727.45 290.252 1729.12 292.745ZM1721.69 292.042 1723.5 282.149 1730.33 289.533Z"/><path d="M1529.53 245.817 1526.54 245.709 1526.64 242.713 1529.64 242.82ZM1523.54 245.601 1522.45 245.563 1520.44 245.351 1520.76 242.369 1522.72 242.575 1522.61 242.568 1523.64 242.605ZM1517.46 245.036 1515.38 244.816 1514.39 244.645 1514.9 241.691 1515.84 241.853 1515.74 241.84 1517.77 242.054ZM1511.43 244.135 1508.47 243.624 1508.98 240.669 1511.94 241.18ZM1505.46 242.906 1502.54 242.207 1503.24 239.291 1506.16 239.99ZM1499.57 241.355 1496.7 240.474 1497.58 237.608 1500.45 238.489ZM1493.77 239.482 1490.96 238.421 1492.02 235.617 1494.83 236.678ZM1488.08 237.282 1485.35 236.041 1486.59 233.312 1489.32 234.552ZM1482.53 234.741 1479.89 233.318 1481.32 230.679 1483.96 232.102ZM1477.16 231.84 1474.63 230.229 1476.24 227.7 1478.77 229.311ZM1472 228.548 1469.6 226.74 1471.41 224.348 1473.81 226.156ZM1467.12 224.825 1464.9 222.809 1466.92 220.589 1469.14 222.605ZM1462.64 220.619 1460.64 218.385 1462.87 216.385 1464.87 218.618ZM1458.69 215.874 1456.89 213.295 1456.82 213.137 1459.59 211.975 1459.6 211.986 1459.44 211.709 1461.15 214.158ZM1455.66 210.373 1454.76 208.239 1457.53 207.077 1458.43 209.21ZM1452.08 210.108 1454.5 200.344 1460.87 208.133Z"/><path d="M1409.59 77.9421 1412.59 78.1301 1412.4 81.1227 1409.41 80.9347ZM1415.74 78.5504 1418.27 79.0171 1418.84 79.1892 1417.97 82.0592 1417.48 81.9113 1417.64 81.9506 1415.19 81.499ZM1421.71 80.0575 1422.54 80.3104 1424.65 81.1924 1423.49 83.9575 1421.46 83.1055 1421.6 83.1579 1420.84 82.9275ZM1427.51 82.4877 1430.15 83.9085 1428.73 86.5489 1426.09 85.1281ZM1432.8 85.5884 1434.59 86.7709 1435.38 87.4588 1433.42 89.7247 1432.7 89.1004 1432.85 89.2176 1431.14 88.0888ZM1437.65 89.4225 1439.92 91.3863 1437.95 93.6522 1435.69 91.6884ZM1442.25 93.6371 1444.16 95.9509 1441.84 97.858 1439.94 95.5442ZM1446.07 98.2648 1447.49 99.9941 1448 100.797 1445.46 102.394 1445.01 101.672 1445.12 101.827 1443.75 100.172ZM1449.6 103.335 1449.99 103.95 1451.08 106.091 1448.41 107.457 1447.35 105.376 1447.41 105.491 1447.06 104.932ZM1452.43 108.92 1453.55 111.705 1450.76 112.816 1449.65 110.031ZM1454.4 114.796 1455.1 117.71 1452.19 118.417 1451.48 115.503ZM1457.97 116.17 1454.6 125.649 1449.03 117.271Z"/><path d="M1.46623-0.31283 2.09189 2.61962-0.840565 3.24528-1.46623 0.31283ZM2.71755 5.55207 3.34321 8.48452 0.410755 9.11018-0.214905 6.17773ZM3.96887 11.417 4.59453 14.3494 1.66208 14.9751 1.03642 12.0426ZM7.51912 13.6869 4.99742 23.4228-1.27824 15.5639Z" transform="matrix(1.00078 0 0 -1 1577.5 207.78)"/><path d="M0.17808-1.48861 3.15531-1.13245 2.79914 1.84477-0.17808 1.48861ZM6.35447-0.296802 8.58206 0.480727 9.38169 0.944501 7.87735 3.53828 7.20113 3.14608 7.45923 3.26467 5.36634 2.53415ZM11.9755 2.44884 12.4772 2.73984 14.5283 4.462 12.6003 6.75837 10.6486 5.11974 10.8605 5.26845 10.4711 5.04262ZM16.8534 6.71694 18.7963 9.00073 16.5125 10.9437 14.5696 8.65988ZM20.4679 11.7965 21.1641 12.9812 21.8017 14.7839 18.9748 15.7836 18.3852 14.1167 18.5061 14.3764 17.8828 13.3157ZM22.7393 17.9623 23.1001 20.939 20.1235 21.2998 19.7626 18.3232ZM23.5384 23.4931 24.1352 24.9696 23.9951 24.7034 24.7715 25.8755 22.2718 27.5314 21.4119 26.2334 20.7585 24.6167ZM26.5357 27.9905 26.9162 28.4048 26.7821 28.2759 28.6392 29.8521 26.6989 32.1382 24.7708 30.5016 24.3272 30.0186ZM30.9622 31.4984 31.4286 31.8202 31.2761 31.7279 33.4274 32.8616 32.0295 35.5143 29.7992 34.3389 29.2593 33.9664ZM36.0801 34.2595 37.4567 34.985 37.2859 34.9082 38.6358 35.4163 37.5795 38.2226 36.1418 37.6814 34.6822 36.9122ZM41.4421 36.4727 44.2483 37.529 43.1919 40.3352 40.3857 39.2789ZM46.9874 38.2734 49.8894 39.028 49.1348 41.9299 46.2328 41.1754ZM52.6496 39.7342 55.612 40.1978 55.1484 43.1602 52.186 42.6966ZM58.5744 40.6613 61.1931 41.0711 61.0416 41.0553 61.389 41.0739 61.2284 44.068 60.8048 44.0453 58.1108 43.6237ZM61.2311 38.0627 69.9727 43.0356 60.7494 47.0451Z" transform="matrix(1.8384e-16 1 1.00078 -1.83697e-16 1603.5 274.287)"/><path d="M1417 350.228C1417 329.534 1433.79 312.757 1454.5 312.757 1475.21 312.757 1492 329.534 1492 350.228 1492 370.923 1475.21 387.699 1454.5 387.699 1433.79 387.699 1417 370.923 1417 350.228Z" stroke="#FFFFFF" stroke-width="2.00052" stroke-miterlimit="8" fill="#84E291" fill-rule="evenodd"/><text font-family="Cambria Math,Cambria Math_MSFontService,sans-serif" font-weight="400" font-size="32" transform="matrix(1 0 0 0.999224 1427.73 358)">𝑚</text><text font-family="Cambria Math,Cambria Math_MSFontService,sans-serif" font-weight="400" font-size="23" transform="matrix(1 0 0 0.999224 1454.57 364)">𝑏𝑑</text><text font-family="Times New Roman,Times New Roman_MSFontService,sans-serif" font-style="italic" font-weight="400" font-size="37" transform="matrix(1 0 0 0.999224 187.557 601)">Convolutional</text><text font-family="Times New Roman,Times New Roman_MSFontService,sans-serif" font-style="italic" font-weight="400" font-size="37" transform="matrix(1 0 0 0.999224 862.712 601)">Attentive</text><text font-family="Times New Roman,Times New Roman_MSFontService,sans-serif" font-style="italic" font-weight="400" font-size="37" transform="matrix(1 0 0 0.999224 1461.59 601)">Message</text><text font-family="Times New Roman,Times New Roman_MSFontService,sans-serif" font-style="italic" font-weight="400" font-size="37" transform="matrix(1 0 0 0.999224 1592.12 601)">-</text><text font-family="Times New Roman,Times New Roman_MSFontService,sans-serif" font-style="italic" font-weight="400" font-size="37" transform="matrix(1 0 0 0.999224 1604.62 601)">passing</text><path d="M268 156.878C268 136.46 284.565 119.907 305 119.907 325.435 119.907 342 136.46 342 156.878 342 177.297 325.435 193.85 305 193.85 284.565 193.85 268 177.297 268 156.878Z" stroke="#FFFFFF" stroke-width="2.00052" stroke-miterlimit="8" fill="#FFFFFF" fill-rule="evenodd"/><text font-family="Cambria Math,Cambria Math_MSFontService,sans-serif" font-weight="400" font-size="37" transform="matrix(1 0 0 0.999224 277.314 164)">𝐶</text><text font-family="Cambria Math,Cambria Math_MSFontService,sans-serif" font-weight="400" font-size="27" transform="matrix(1 0 0 0.999224 297.466 172)">𝑏</text><text font-family="Cambria Math,Cambria Math_MSFontService,sans-serif" font-weight="400" font-size="27" transform="matrix(1 0 0 0.999224 313.803 172)">𝑏</text><path d="M395 252.804C395 232.385 411.565 215.832 432 215.832 452.435 215.832 469 232.385 469 252.804 469 273.222 452.435 289.775 432 289.775 411.565 289.775 395 273.222 395 252.804Z" stroke="#FFFFFF" stroke-width="2.00052" stroke-miterlimit="8" fill="#FFFFFF" fill-rule="evenodd"/><text font-family="Cambria Math,Cambria Math_MSFontService,sans-serif" font-weight="400" font-size="37" transform="matrix(1 0 0 0.999224 405.153 260)">𝐶</text><text font-family="Cambria Math,Cambria Math_MSFontService,sans-serif" font-weight="400" font-size="27" transform="matrix(1 0 0 0.999224 425.305 268)">𝑏</text><text font-family="Cambria Math,Cambria Math_MSFontService,sans-serif" font-weight="400" font-size="27" transform="matrix(1 0 0 0.999224 441.642 268)">𝑐</text><path d="M323 377.707C323 357.288 339.342 340.735 359.5 340.735 379.658 340.735 396 357.288 396 377.707 396 398.125 379.658 414.678 359.5 414.678 339.342 414.678 323 398.125 323 377.707Z" stroke="#FFFFFF" stroke-width="2.00052" stroke-miterlimit="8" fill="#FFFFFF" fill-rule="evenodd"/><text font-family="Cambria Math,Cambria Math_MSFontService,sans-serif" font-weight="400" font-size="37" transform="matrix(1 0 0 0.999224 332.237 385)">𝐶</text><text font-family="Cambria Math,Cambria Math_MSFontService,sans-serif" font-weight="400" font-size="27" transform="matrix(1 0 0 0.999224 352.389 393)">𝑏</text><text font-family="Cambria Math,Cambria Math_MSFontService,sans-serif" font-weight="400" font-size="27" transform="matrix(1 0 0 0.999224 368.726 393)">𝑒</text><path d="M134 349.729C134 329.31 150.565 312.757 171 312.757 191.435 312.757 208 329.31 208 349.729 208 370.147 191.435 386.7 171 386.7 150.565 386.7 134 370.147 134 349.729Z" stroke="#FFFFFF" stroke-width="2.00052" stroke-miterlimit="8" fill="#FFFFFF" fill-rule="evenodd"/><text font-family="Cambria Math,Cambria Math_MSFontService,sans-serif" font-weight="400" font-size="37" transform="matrix(1 0 0 0.999224 142.454 357)">𝐶</text><text font-family="Cambria Math,Cambria Math_MSFontService,sans-serif" font-weight="400" font-size="27" transform="matrix(1 0 0 0.999224 162.606 365)">𝑏</text><text font-family="Cambria Math,Cambria Math_MSFontService,sans-serif" font-weight="400" font-size="27" transform="matrix(1 0 0 0.999224 178.944 365)">𝑑</text><path d="M787 351.727C787 331.308 803.565 314.756 824 314.756 844.435 314.756 861 331.308 861 351.727 861 372.146 844.435 388.698 824 388.698 803.565 388.698 787 372.146 787 351.727Z" stroke="#FFFFFF" stroke-width="2.00052" stroke-miterlimit="8" fill="#FFFFFF" fill-rule="evenodd"/><text font-family="Cambria Math,Cambria Math_MSFontService,sans-serif" font-weight="400" font-size="37" transform="matrix(1 0 0 0.999224 795.602 359)">𝛼</text><text font-family="Cambria Math,Cambria Math_MSFontService,sans-serif" font-weight="400" font-size="27" transform="matrix(1 0 0 0.999224 817.941 367)">𝑏</text><text font-family="Cambria Math,Cambria Math_MSFontService,sans-serif" font-weight="400" font-size="27" transform="matrix(1 0 0 0.999224 834.279 367)">𝑑</text><path d="M782 155.879C782 135.46 798.342 118.908 818.5 118.908 838.658 118.908 855 135.46 855 155.879 855 176.298 838.658 192.85 818.5 192.85 798.342 192.85 782 176.298 782 155.879Z" stroke="#FFFFFF" stroke-width="2.00052" stroke-miterlimit="8" fill="#FFFFFF" fill-rule="evenodd"/><text font-family="Cambria Math,Cambria Math_MSFontService,sans-serif" font-weight="400" font-size="37" transform="matrix(1 0 0 0.999224 790.282 163)">𝛼</text><text font-family="Cambria Math,Cambria Math_MSFontService,sans-serif" font-weight="400" font-size="27" transform="matrix(1 0 0 0.999224 812.622 171)">𝑏</text><text font-family="Cambria Math,Cambria Math_MSFontService,sans-serif" font-weight="400" font-size="27" transform="matrix(1 0 0 0.999224 828.959 171)">𝑎</text><path d="M920 149.884C920 129.465 936.565 112.912 957 112.912 977.435 112.912 994 129.465 994 149.884 994 170.302 977.435 186.855 957 186.855 936.565 186.855 920 170.302 920 149.884Z" stroke="#FFFFFF" stroke-width="2.00052" stroke-miterlimit="8" fill="#FFFFFF" fill-rule="evenodd"/><text font-family="Cambria Math,Cambria Math_MSFontService,sans-serif" font-weight="400" font-size="37" transform="matrix(1 0 0 0.999224 928.876 158)">𝛼</text><text font-family="Cambria Math,Cambria Math_MSFontService,sans-serif" font-weight="400" font-size="27" transform="matrix(1 0 0 0.999224 951.215 165)">𝑏</text><text font-family="Cambria Math,Cambria Math_MSFontService,sans-serif" font-weight="400" font-size="27" transform="matrix(1 0 0 0.999224 967.553 165)">𝑏</text><path d="M1.45024-0.3801 2.21044 2.52038-0.690042 3.28059-1.45024 0.3801ZM2.97064 5.42087 3.73085 8.32135 0.83036 9.08156 0.0701594 6.18107ZM4.49105 11.2218 5.25125 14.1223 2.35076 14.8825 1.59056 11.982ZM6.01145 17.0228 6.77165 19.9233 3.87116 20.6835 3.11096 17.783ZM7.53185 22.8238 8.29205 25.7243 5.39157 26.4845 4.63137 23.584ZM11.5298 26.2509 9.45969 36.0927 2.82836 28.5315Z" transform="matrix(1.00078 0 0 -1 943.5 207.46)"/><path d="M1044 246.808C1044 226.39 1060.57 209.837 1081 209.837 1101.43 209.837 1118 226.39 1118 246.808 1118 267.227 1101.43 283.78 1081 283.78 1060.57 283.78 1044 267.227 1044 246.808Z" stroke="#FFFFFF" stroke-width="2.00052" stroke-miterlimit="8" fill="#FFFFFF" fill-rule="evenodd"/><text font-family="Cambria Math,Cambria Math_MSFontService,sans-serif" font-weight="400" font-size="37" transform="matrix(1 0 0 0.999224 1053.61 254)">𝛼</text><text font-family="Cambria Math,Cambria Math_MSFontService,sans-serif" font-weight="400" font-size="27" transform="matrix(1 0 0 0.999224 1075.95 262)">𝑏</text><text font-family="Cambria Math,Cambria Math_MSFontService,sans-serif" font-weight="400" font-size="27" transform="matrix(1 0 0 0.999224 1092.28 262)">𝑐</text><path d="M967 367.715C967 347.296 983.565 330.743 1004 330.743 1024.43 330.743 1041 347.296 1041 367.715 1041 388.133 1024.43 404.686 1004 404.686 983.565 404.686 967 388.133 967 367.715Z" stroke="#FFFFFF" stroke-width="2.00052" stroke-miterlimit="8" fill="#FFFFFF" fill-rule="evenodd"/><text font-family="Cambria Math,Cambria Math_MSFontService,sans-serif" font-weight="400" font-size="37" transform="matrix(1 0 0 0.999224 980.485 370)">𝛼</text><text font-family="Cambria Math,Cambria Math_MSFontService,sans-serif" font-weight="400" font-size="27" transform="matrix(1 0 0 0.999224 1002.82 377)">𝑏</text><text font-family="Cambria Math,Cambria Math_MSFontService,sans-serif" font-weight="400" font-size="27" transform="matrix(1 0 0 0.999224 1019.16 377)">𝑒</text><path d="M1417 162.374C1417 141.679 1433.57 124.903 1454 124.903 1474.43 124.903 1491 141.679 1491 162.374 1491 183.069 1474.43 199.845 1454 199.845 1433.57 199.845 1417 183.069 1417 162.374Z" stroke="#FFFFFF" stroke-width="2.00052" stroke-miterlimit="8" fill="#84E291" fill-rule="evenodd"/><text font-family="Cambria Math,Cambria Math_MSFontService,sans-serif" font-weight="400" font-size="32" transform="matrix(1 0 0 0.999224 1426.93 170)">𝑚</text><text font-family="Cambria Math,Cambria Math_MSFontService,sans-serif" font-weight="400" font-size="23" transform="matrix(1 0 0 0.999224 1453.77 177)">𝑏</text><text font-family="Cambria Math,Cambria Math_MSFontService,sans-serif" font-weight="400" font-size="23" transform="matrix(1 0 0 0.999224 1467.77 177)">𝑎</text><path d="M1555 148.884C1555 128.466 1571.79 111.913 1592.5 111.913 1613.21 111.913 1630 128.466 1630 148.884 1630 169.303 1613.21 185.856 1592.5 185.856 1571.79 185.856 1555 169.303 1555 148.884Z" stroke="#FFFFFF" stroke-width="2.00052" stroke-miterlimit="8" fill="#84E291" fill-rule="evenodd"/><text font-family="Cambria Math,Cambria Math_MSFontService,sans-serif" font-weight="400" font-size="32" transform="matrix(1 0 0 0.999224 1565.41 156)">𝑚</text><text font-family="Cambria Math,Cambria Math_MSFontService,sans-serif" font-weight="400" font-size="23" transform="matrix(1 0 0 0.999224 1592.25 163)">𝑏</text><text font-family="Cambria Math,Cambria Math_MSFontService,sans-serif" font-weight="400" font-size="23" transform="matrix(1 0 0 0.999224 1606.25 163)">𝑏</text><path d="M1686 244.31C1686 223.616 1702.79 206.839 1723.5 206.839 1744.21 206.839 1761 223.616 1761 244.31 1761 265.005 1744.21 281.781 1723.5 281.781 1702.79 281.781 1686 265.005 1686 244.31Z" stroke="#FFFFFF" stroke-width="2.00052" stroke-miterlimit="8" fill="#84E291" fill-rule="evenodd"/><text font-family="Cambria Math,Cambria Math_MSFontService,sans-serif" font-weight="400" font-size="32" transform="matrix(1 0 0 0.999224 1697.26 252)">𝑚</text><text font-family="Cambria Math,Cambria Math_MSFontService,sans-serif" font-weight="400" font-size="23" transform="matrix(1 0 0 0.999224 1724.1 258)">𝑏</text><text font-family="Cambria Math,Cambria Math_MSFontService,sans-serif" font-weight="400" font-size="23" transform="matrix(1 0 0 0.999224 1738.11 258)">𝑐</text><path d="M1608 381.204C1608 360.509 1624.79 343.733 1645.5 343.733 1666.21 343.733 1683 360.509 1683 381.204 1683 401.899 1666.21 418.675 1645.5 418.675 1624.79 418.675 1608 401.899 1608 381.204Z" stroke="#FFFFFF" stroke-width="2.00052" stroke-miterlimit="8" fill="#84E291" fill-rule="evenodd"/><text font-family="Cambria Math,Cambria Math_MSFontService,sans-serif" font-weight="400" font-size="32" transform="matrix(1 0 0 0.999224 1619.34 388)">𝑚</text><text font-family="Cambria Math,Cambria Math_MSFontService,sans-serif" font-weight="400" font-size="23" transform="matrix(1 0 0 0.999224 1646.18 395)">𝑏</text><text font-family="Cambria Math,Cambria Math_MSFontService,sans-serif" font-weight="400" font-size="23" transform="matrix(1 0 0 0.999224 1660.18 395)">𝑒</text></g></svg>