<?xml version="1.0" encoding="UTF-8" standalone="no"?>
<svg
   xmlns:dc="http://purl.org/dc/elements/1.1/"
   xmlns:cc="http://creativecommons.org/ns#"
   xmlns:rdf="http://www.w3.org/1999/02/22-rdf-syntax-ns#"
   xmlns:svg="http://www.w3.org/2000/svg"
   xmlns="http://www.w3.org/2000/svg"
   xmlns:xlink="http://www.w3.org/1999/xlink"
   xmlns:sodipodi="http://sodipodi.sourceforge.net/DTD/sodipodi-0.dtd"
   xmlns:inkscape="http://www.inkscape.org/namespaces/inkscape"
   height="360pt"
   version="1.1"
   viewBox="0 0 720 360"
   width="720pt"
   id="svg207"
   sodipodi:docname="aqualoc_delentropies_edit.svg"
   inkscape:version="1.0.2 (1.0.2+r75+1)">
  <metadata
     id="metadata211">
    <rdf:RDF>
      <cc:Work
         rdf:about="">
        <dc:format>image/svg+xml</dc:format>
        <dc:type
           rdf:resource="http://purl.org/dc/dcmitype/StillImage" />
        <dc:title></dc:title>
      </cc:Work>
    </rdf:RDF>
  </metadata>
  <sodipodi:namedview
     pagecolor="#ffffff"
     bordercolor="#666666"
     borderopacity="1"
     objecttolerance="10"
     gridtolerance="10"
     guidetolerance="10"
     inkscape:pageopacity="0"
     inkscape:pageshadow="2"
     inkscape:window-width="1853"
     inkscape:window-height="1145"
     id="namedview209"
     showgrid="false"
     inkscape:zoom="0.44027026"
     inkscape:cx="483.55114"
     inkscape:cy="296.21089"
     inkscape:window-x="67"
     inkscape:window-y="27"
     inkscape:window-maximized="1"
     inkscape:current-layer="axes_1" />
  <defs
     id="defs4">
    <style
       type="text/css"
       id="style2">
*{stroke-linecap:butt;stroke-linejoin:round;}
  </style>
  </defs>
  <g
     id="figure_1">
    <g
       id="patch_1">
      <path
         d="M 0 360  L 720 360  L 720 0  L 0 0  z "
         style="fill:#ffffff;"
         id="path6" />
    </g>
    <g
       id="axes_1">
      <g
         id="patch_2">
        <path
           d="M 123.647376 271.043177  L 674.64 271.043177  L 674.64 45.36  L 123.647376 45.36  z "
           style="fill:#ffffff;"
           id="path9" />
      </g>
      <g
         id="xtick_1"
         transform="translate(-23.033858,0.22809471)">
        <g
           id="text_1">
          <!-- Archaeological -->
          <defs
             id="defs22">
            <path
               d="M 36.296875,68.40625 C 35.796875,69.703125 35.59375,70 34.59375,70 c -1,0 -1.1875,-0.296875 -1.6875,-1.59375 L 11.703125,8.84375 C 9.796875,3.484375 5.796875,2.390625 2.296875,2.390625 v -2.59375 C 4.09375,0 8.09375,0 10,0 c 2.5,0 6.5,0 8.90625,-0.203125 v 2.59375 c -4.703125,0 -5.40625,3.25 -5.40625,4.46875 0,0.90625 0.203125,1.421875 0.40625,2.03125 L 19.203125,24 H 45.40625 l 6,-17.09375 c 0.5,-1.203125 0.5,-1.40625 0.5,-1.796875 0,-2.71875 -4.3125,-2.71875 -6.203125,-2.71875 V 0 c 2.890625,0 8.09375,0 11.203125,0 2.59375,0 7.59375,0 10,-0.203125 v 2.59375 c -5.3125,0 -7.109375,0 -8.40625,3.65625 z m -4,-7.578125 L 44.5,26.59375 H 20.09375 Z"
               id="CMR17-65" />
            <path
               d="M 15,23.390625 C 15,33 19.09375,42 26.59375,42 27.296875,42 28,41.90625 28.703125,41.59375 c 0,0 -2.203125,-0.703125 -2.203125,-3.28125 0,-2.40625 1.90625,-3.40625 3.40625,-3.40625 1.1875,0 3.390625,0.703125 3.390625,3.5 0,3.203125 -3.203125,5.1875 -6.59375,5.1875 -7.609375,0 -10.90625,-7.390625 -11.90625,-10.890625 h -0.09375 V 43.59375 L 3.09375,42.5 V 39.90625 C 9,39.90625 9.90625,39.296875 9.90625,34.5 V 6.6875 C 9.90625,2.875 9.5,2.390625 3.09375,2.390625 v -2.59375 C 5.5,0 10.09375,0 12.703125,0 c 2.890625,0 8,0 10.703125,-0.203125 v 2.59375 C 16.203125,2.390625 15,2.390625 15,6.875 Z"
               id="CMR17-114" />
            <path
               d="M 34.90625,35 C 33,35 30.203125,35 30.203125,31.515625 c 0,-2.796875 2.296875,-3.59375 3.59375,-3.59375 0.703125,0 3.609375,0.3125 3.609375,3.703125 0,6.921875 -6.8125,12.171875 -14.5,12.171875 -10.609375,0 -19.609375,-9.765625 -19.609375,-22.5 C 3.296875,8.0625 12.703125,-1 22.90625,-1 c 12.390625,0 15.5,11.578125 15.5,12.6875 0,0.40625 -0.109375,0.703125 -0.8125,0.703125 -0.6875,0 -0.796875,-0.09375 -1.1875,-1.40625 -2.609375,-8.171875 -8.3125,-10.1875 -12.609375,-10.1875 -6.390625,0 -14.09375,5.875 -14.09375,20.59375 C 9.703125,36.53125 17.09375,42 23,42 c 3.90625,0 9.703125,-1.796875 11.90625,-7 z"
               id="CMR17-99" />
            <path
               d="m 41.5,30.203125 c 0,5.09375 -1,13.390625 -12.796875,13.390625 C 20.5,43.59375 16.5,37 15.296875,33.703125 h -0.09375 V 68.6875 L 3.296875,67.59375 V 65 c 5.90625,0 6.796875,-0.59375 6.796875,-5.359375 V 6.65625 c 0,-3.78125 -0.390625,-4.265625 -6.796875,-4.265625 v -2.59375 C 5.703125,0 10.09375,0 12.703125,0 c 2.59375,0 7.09375,0 9.5,-0.203125 v 2.59375 c -6.40625,0 -6.796875,0.390625 -6.796875,4.296875 V 25.90625 C 15.40625,35.109375 21,42 28,42 c 7.40625,0 8.203125,-6.59375 8.203125,-11.40625 V 6.6875 c 0,-3.8125 -0.40625,-4.296875 -6.796875,-4.296875 v -2.59375 C 31.796875,0 36.203125,0 38.796875,0 c 2.609375,0 7.109375,0 9.5,-0.203125 v 2.59375 C 41.90625,2.390625 41.5,2.78125 41.5,6.6875 Z"
               id="CMR17-104" />
            <path
               d="M 36,25.828125 C 36,32.375 36,35.84375 31.796875,39.734375 28.09375,43 23.796875,44 20.40625,44 12.5,44 6.796875,37.609375 6.796875,30.796875 6.796875,27 9.796875,27 10.40625,27 11.703125,27 14,27.78125 14,30.53125 14,33 12.09375,34.078125 10.40625,34.078125 10,34.078125 9.5,33.96875 9.203125,33.875 c 2.09375,6.625 7.5,8.53125 11,8.53125 5,0 10.5,-4.453125 10.5,-12.953125 V 25 c -5.90625,0 -13,-0.796875 -18.609375,-3.796875 C 5.796875,17.703125 4,12.703125 4,8.90625 4,1.203125 13,-1 18.296875,-1 c 5.5,0 10.609375,3.171875 12.796875,8.984375 0.203125,-4.34375 3,-8.265625 7.40625,-8.265625 2.09375,0 7.40625,1.375 7.40625,9.140625 V 14.375 h -1.8125 V 8.78125 c 0,-6 -2.6875,-6.78125 -4,-6.78125 C 36,2 36,7.15625 36,11.53125 Z M 30.703125,13.59375 c 0,-8.640625 -6.203125,-13 -11.703125,-13 -5,0 -8.90625,3.703125 -8.90625,8.3125 0,2.984375 1.3125,8.28125 7.109375,11.484375 C 22,23.09375 27.5,23.5 30.703125,23.5 Z"
               id="CMR17-97" />
            <path
               d="M 38.09375,23 C 38.5,23.40625 38.5,23.609375 38.5,24.625 38.5,34.96875 33.09375,44 21.703125,44 c -10.609375,0 -19,-10.109375 -19,-22.390625 0,-13 9.5,-22.609375 20.09375,-22.609375 C 34,-1 38.40625,9.484375 38.40625,11.5625 c 0,0.6875 -0.609375,0.6875 -0.8125,0.6875 -0.6875,0 -0.796875,-0.203125 -1.1875,-1.375 C 34.203125,4.140625 28.703125,0.796875 23.5,0.796875 19.203125,0.796875 14.90625,3.171875 12.203125,7.5 9.09375,12.546875 9.09375,18.375 9.09375,23 Z M 9.203125,24.5 c 0.703125,14.640625 8.390625,17.90625 12.390625,17.90625 6.8125,0 11.40625,-6.515625 11.5,-17.90625 z"
               id="CMR17-101" />
            <path
               d="M 43.09375,21.1875 C 43.09375,34 33.796875,44 22.90625,44 12,44 2.703125,34 2.703125,21.1875 2.703125,8.609375 12,-1 22.90625,-1 c 10.890625,0 20.1875,9.609375 20.1875,22.1875 z M 22.90625,0.796875 c -4.703125,0 -8.703125,2.796875 -11,6.703125 -2.5,4.484375 -2.8125,10.09375 -2.8125,14.5 0,4.203125 0.203125,9.40625 2.8125,13.90625 2,3.296875 5.890625,6.5 11,6.5 4.5,0 8.296875,-2.5 10.6875,-6 C 36.703125,31.703125 36.703125,25.109375 36.703125,22 c 0,-3.90625 -0.203125,-9.890625 -2.90625,-14.703125 -2.796875,-4.59375 -7.09375,-6.5 -10.890625,-6.5 z"
               id="CMR17-111" />
            <path
               d="M 15.296875,68.6875 3.40625,67.59375 V 65 c 5.890625,0 6.796875,-0.59375 6.796875,-5.359375 V 6.65625 c 0,-3.78125 -0.40625,-4.265625 -6.796875,-4.265625 v -2.59375 C 5.796875,0 10.203125,0 12.703125,0 c 2.59375,0 7,0 9.390625,-0.203125 v 2.59375 c -6.390625,0 -6.796875,0.390625 -6.796875,4.265625 z"
               id="CMR17-108" />
            <path
               d="M 11.09375,18.1875 C 13,16.6875 16.296875,15 20.296875,15 28.203125,15 35,21.203125 35,29.5 35,32.09375 34.203125,36.09375 31.203125,39.203125 34,42.0625 38.09375,43 40.40625,43 c 0.390625,0 1,0 1.5,-0.28125 -0.40625,-0.09375 -1.3125,-0.484375 -1.3125,-2.015625 0,-1.21875 0.90625,-2.09375 2.203125,-2.09375 1.5,0 2.296875,0.96875 2.296875,2.234375 0,1.828125 -1.5,3.75 -4.6875,3.75 -4,0 -7.5,-1.8125 -10.3125,-4.28125 C 27.09375,43.015625 23.5,44 20.296875,44 12.40625,44 5.59375,37.796875 5.59375,29.5 c 0,-5.71875 3.3125,-9.3125 4.3125,-10.3125 -3,-3.5 -3,-7.578125 -3,-8.078125 0,-2.59375 1,-6.390625 4.390625,-8.484375 C 6.09375,1.328125 2,-2.640625 2,-7.59375 2,-14.734375 11.5,-20 22.90625,-20 c 11,0 20.890625,5.0625 20.890625,12.515625 C 43.796875,6 29,6 21.296875,6 19,6 14.90625,6 14.40625,6.109375 c -3.109375,0.5 -5.203125,3.296875 -5.203125,6.796875 0,0.890625 0,3.09375 1.890625,5.28125 z m 9.203125,-1.5 C 11.5,16.6875 11.5,27.5 11.5,29.515625 11.5,31.5 11.5,42.3125 20.296875,42.3125 c 8.796875,0 8.796875,-10.8125 8.796875,-12.796875 0,-2.015625 0,-12.828125 -8.796875,-12.828125 z m 2.609375,-34.984375 c -10,0 -16.90625,5.25 -16.90625,10.703125 0,3.078125 1.703125,5.953125 3.90625,7.53125 2.5,1.6875 3.5,1.6875 10.296875,1.6875 8.203125,0 19.59375,0 19.59375,-9.21875 0,-5.453125 -6.890625,-10.703125 -16.890625,-10.703125 z"
               id="CMR17-103" />
            <path
               d="m 15.5,61.078125 c 0,2.1875 -1.796875,4.078125 -4.09375,4.078125 -2.203125,0 -4.109375,-1.78125 -4.109375,-4.078125 C 7.296875,58.890625 9.09375,57 11.40625,57 13.59375,57 15.5,58.796875 15.5,61.078125 Z M 3.796875,42.28125 v -2.578125 c 5.609375,0 6.40625,-0.609375 6.40625,-5.375 V 6.671875 c 0,-3.796875 -0.40625,-4.28125 -6.796875,-4.28125 v -2.59375 C 5.796875,0 10.09375,0 12.59375,0 c 2.40625,0 6.5,0 8.8125,-0.203125 v 2.59375 c -5.90625,0 -6.109375,0.59375 -6.109375,4.171875 V 43.375 Z"
               id="CMR17-105" />
          </defs>
          <text
             xml:space="preserve"
             style="font-style:normal;font-weight:normal;font-size:30px;line-height:1.25;font-family:sans-serif;letter-spacing:0px;word-spacing:0px;fill:#000000;fill-opacity:1;stroke:none;stroke-width:0.75;stroke-linecap:butt;stroke-linejoin:round"
             x="138.21814"
             y="308.52542"
             id="text1047"><tspan
               sodipodi:role="line"
               id="tspan1045"
               x="138.21814"
               y="308.52542"
               style="font-style:normal;font-variant:normal;font-weight:bold;font-stretch:normal;font-size:40px;font-family:'CMU Serif';-inkscape-font-specification:'CMU Serif, Bold';font-variant-ligatures:normal;font-variant-caps:normal;font-variant-numeric:normal;font-variant-east-asian:normal;stroke-width:0.75">Archaeological</tspan></text>
        </g>
      </g>
      <g
         id="text_2">
        <!-- Harbor -->
        <defs
           id="defs58">
          <path
             d="m 56.09375,61.015625 c 0,4.484375 1.109375,4.484375 8,4.484375 V 68 c -2.890625,0 -8.1875,0 -11.296875,0 C 49.703125,68 44.40625,68 41.5,68 v -2.5 c 6.90625,0 8,0 8,-4.5 V 36.578125 H 19.703125 V 61 c 0,4.5 1.09375,4.5 8,4.5 V 68 C 24.796875,68 19.5,68 16.40625,68 13.296875,68 8,68 5.09375,68 v -2.5 c 6.90625,0 8,0 8,-4.484375 V 6.984375 C 13.09375,2.5 12,2.5 5.09375,2.5 V 0 C 8,0 13.296875,0 16.40625,0 19.5,0 24.796875,0 27.703125,0 v 2.5 c -6.90625,0 -8,0 -8,4.46875 V 34 H 49.5 V 6.96875 C 49.5,2.5 48.40625,2.5 41.5,2.5 V 0 c 2.90625,0 8.203125,0 11.296875,0 3.109375,0 8.40625,0 11.296875,0 v 2.5 c -6.890625,0 -8,0 -8,4.484375 z"
             id="CMR17-72" />
          <path
             d="M 15,68.6875 3.09375,67.59375 V 65 C 9,65 9.90625,64.40625 9.90625,59.640625 v -59.84375 h 1.796875 l 2.890625,7.09375 C 17.5,2.203125 21.796875,-1 27.59375,-1 c 10,0 20.109375,8.8125 20.109375,22.40625 0,12.78125 -9,22.1875 -19.109375,22.1875 C 22.40625,43.59375 18,40.296875 15,36.40625 Z m 0.203125,-37.375 c 0,1.78125 0,2.09375 1.390625,4.1875 C 20.5,41.515625 26.09375,42 28,42 31,42 41.296875,40.390625 41.296875,21.5 41.296875,1.6875 29.5,0.59375 27.09375,0.59375 c -3.09375,0 -7.59375,1.1875 -10.796875,7 -1.09375,1.90625 -1.09375,2.109375 -1.09375,3.890625 z"
             id="CMR17-98" />
        </defs>
      </g>
      <text
         xml:space="preserve"
         style="font-style:normal;font-weight:normal;font-size:30px;line-height:1.25;font-family:sans-serif;letter-spacing:0px;word-spacing:0px;fill:#000000;fill-opacity:1;stroke:none;stroke-width:0.75;stroke-linecap:butt;stroke-linejoin:round"
         x="463.75623"
         y="308.59351"
         id="text1112"><tspan
           sodipodi:role="line"
           id="tspan1110"
           x="463.75623"
           y="308.59351"
           style="font-style:normal;font-variant:normal;font-weight:bold;font-stretch:normal;font-size:40px;font-family:'CMU Serif';-inkscape-font-specification:'CMU Serif, Bold';font-variant-ligatures:normal;font-variant-caps:normal;font-variant-numeric:normal;font-variant-east-asian:normal;stroke-width:0.75">Harbor</tspan></text>
      <g
         id="matplotlib.axis_2">
        <g
           id="ytick_1">
          <g
             id="text_3">
            <!-- $0$ -->
            <defs
               id="defs78">
              <path
                 d="M 42 31.640625  C 42 37.75 41.90625 48.125 37.703125 56.109375  C 34 63.109375 28.09375 65.59375 22.90625 65.59375  C 18.09375 65.59375 12 63.40625 8.203125 56.203125  C 4.203125 48.71875 3.796875 39.4375 3.796875 31.640625  C 3.796875 25.953125 3.90625 17.28125 7 9.671875  C 11.296875 -0.609375 19 -2 22.90625 -2  C 27.5 -2 34.5 -0.109375 38.59375 9.375  C 41.59375 16.28125 42 24.359375 42 31.640625  z M 22.90625 -0.40625  C 16.5 -0.40625 12.703125 5.078125 11.296875 12.6875  C 10.203125 18.5625 10.203125 27.15625 10.203125 32.75  C 10.203125 40.4375 10.203125 46.828125 11.5 52.921875  C 13.40625 61.390625 19 64 22.90625 64  C 27 64 32.296875 61.296875 34.203125 53.125  C 35.5 47.4375 35.59375 40.734375 35.59375 32.75  C 35.59375 26.25 35.59375 18.265625 34.40625 12.375  C 32.296875 1.484375 26.40625 -0.40625 22.90625 -0.40625  z "
                 id="CMR17-48" />
            </defs>
            <g
               style="fill:#262626;"
               transform="translate(86.556542 267.644019)scale(0.385 -0.385)"
               id="g82">
              <use
                 transform="scale(0.996264)"
                 xlink:href="#CMR17-48"
                 id="use80" />
            </g>
          </g>
        </g>
        <g
           id="ytick_2">
          <g
             id="text_4">
            <!-- $2$ -->
            <defs
               id="defs87">
              <path
                 d="M 41.703125 15.453125  L 39.90625 15.453125  C 38.90625 8.375 38.09375 7.171875 37.703125 6.5625  C 37.203125 5.765625 30 5.765625 28.59375 5.765625  L 9.40625 5.765625  C 13 9.671875 20 16.75 28.5 24.953125  C 34.59375 30.734375 41.703125 37.53125 41.703125 47.421875  C 41.703125 59.21875 32.296875 66 21.796875 66  C 10.796875 66 4.09375 56.3125 4.09375 47.34375  C 4.09375 43.4375 7 42.9375 8.203125 42.9375  C 9.203125 42.9375 12.203125 43.546875 12.203125 47.03125  C 12.203125 50.109375 9.59375 51 8.203125 51  C 7.59375 51 7 50.90625 6.59375 50.703125  C 8.5 59.21875 14.296875 63.40625 20.40625 63.40625  C 29.09375 63.40625 34.796875 56.515625 34.796875 47.421875  C 34.796875 38.734375 29.703125 31.25 24 24.75  L 4.09375 2.28125  L 4.09375 0  L 39.296875 0  z "
                 id="CMR17-50" />
            </defs>
            <g
               style="fill:#262626;"
               transform="translate(86.556542 184.057657)scale(0.385 -0.385)"
               id="g91">
              <use
                 transform="scale(0.996264)"
                 xlink:href="#CMR17-50"
                 id="use89" />
            </g>
          </g>
        </g>
        <g
           id="ytick_3">
          <g
             id="text_5">
            <!-- $4$ -->
            <defs
               id="defs96">
              <path
                 d="M 33.59375 64.40625  C 33.59375 66.5 33.5 66.5 31.703125 66.5  L 2 19.59375  L 2 17  L 27.796875 17  L 27.796875 7.140625  C 27.796875 3.5 27.59375 2.5 20.59375 2.5  L 18.703125 2.5  L 18.703125 0  C 21.90625 0 27.296875 0 30.703125 0  C 34.09375 0 39.5 0 42.703125 0  L 42.703125 2.5  L 40.796875 2.5  C 33.796875 2.5 33.59375 3.5 33.59375 7.140625  L 33.59375 17  L 43.796875 17  L 43.796875 19.59375  L 33.59375 19.59375  z M 28.09375 57.859375  L 28.09375 19.59375  L 4 19.59375  z "
                 id="CMR17-52" />
            </defs>
            <g
               style="fill:#262626;"
               transform="translate(86.556542 100.471295)scale(0.385 -0.385)"
               id="g100">
              <use
                 transform="scale(0.996264)"
                 xlink:href="#CMR17-52"
                 id="use98" />
            </g>
          </g>
        </g>
      </g>
      <g
         id="PolyCollection_1">
        <defs
           id="defs136">
          <path
             d="M 261.447928 -204.295768  L 261.343136 -204.295768  L 261.293553 -205.05439  L 261.206457 -205.813012  L 261.060309 -206.571634  L 260.825163 -207.330255  L 260.461309 -208.088877  L 259.918667 -208.847499  L 259.137333 -209.606121  L 258.049331 -210.364743  L 256.581069 -211.123365  L 254.655688 -211.881986  L 252.194874 -212.640608  L 249.120614 -213.39923  L 245.35824 -214.157852  L 240.841766 -214.916474  L 235.521416 -215.675096  L 229.372278 -216.433717  L 222.403596 -217.192339  L 214.669645 -217.950961  L 206.283285 -218.709583  L 197.430473 -219.468205  L 188.37962 -220.226827  L 179.477893 -220.985449  L 171.130208 -221.74407  L 163.764087 -222.502692  L 157.7887 -223.261314  L 153.554981 -224.019936  L 151.317662 -224.778558  L 151.197007 -225.53718  L 153.143081 -226.295801  L 156.915196 -227.054423  L 162.093726 -227.813045  L 168.133126 -228.571667  L 174.446854 -229.330289  L 180.498844 -230.088911  L 185.873617 -230.847532  L 190.309329 -231.606154  L 193.696168 -232.364776  L 196.055139 -233.123398  L 197.513394 -233.88202  L 198.284264 -234.640642  L 198.649625 -235.399263  L 198.935742 -236.157885  L 199.474542 -236.916507  L 200.549899 -237.675129  L 202.339185 -238.433751  L 204.868227 -239.192373  L 207.997569 -239.950995  L 211.448434 -240.709616  L 214.862175 -241.468238  L 217.874979 -242.22686  L 220.186374 -242.985482  L 221.60641 -243.744104  L 222.077213 -244.502726  L 221.672937 -245.261347  L 220.584043 -246.019969  L 219.088708 -246.778591  L 217.511295 -247.537213  L 216.169371 -248.295835  L 215.316801 -249.054457  L 215.096709 -249.813078  L 215.519252 -250.5717  L 216.472776 -251.330322  L 217.765252 -252.088944  L 219.181664 -252.847566  L 220.537887 -253.606188  L 221.715135 -254.36481  L 222.668953 -255.123431  L 223.417608 -255.882053  L 224.02093 -256.640675  L 224.559682 -257.399297  L 225.119411 -258.157919  L 225.776661 -258.916541  L 226.584321 -259.675162  L 227.557487 -260.433784  L 228.667361 -261.192406  L 229.851796 -261.951028  L 231.043934 -262.70965  L 232.20868 -263.468272  L 233.368803 -264.226893  L 234.605191 -264.985515  L 236.028661 -265.744137  L 237.735764 -266.502759  L 239.768842 -267.261381  L 242.097082 -268.020003  L 244.623814 -268.778625  L 247.213467 -269.537246  L 249.725356 -270.295868  L 252.042171 -271.05449  L 254.086162 -271.813112  L 255.821937 -272.571734  L 257.249201 -273.330356  L 258.390731 -274.088977  L 259.280633 -274.847599  L 259.956037 -275.606221  L 260.452942 -276.364843  L 260.805009 -277.123465  L 261.04345 -277.882087  L 261.19671 -278.640708  L 261.289627 -279.39933  L 261.501436 -279.39933  L 261.501436 -279.39933  L 261.594353 -278.640708  L 261.747614 -277.882087  L 261.986055 -277.123465  L 262.338121 -276.364843  L 262.835027 -275.606221  L 263.510431 -274.847599  L 264.400333 -274.088977  L 265.541863 -273.330356  L 266.969126 -272.571734  L 268.704901 -271.813112  L 270.748892 -271.05449  L 273.065707 -270.295868  L 275.577596 -269.537246  L 278.16725 -268.778625  L 280.693981 -268.020003  L 283.022222 -267.261381  L 285.0553 -266.502759  L 286.762402 -265.744137  L 288.185873 -264.985515  L 289.422261 -264.226893  L 290.582383 -263.468272  L 291.747129 -262.70965  L 292.939267 -261.951028  L 294.123702 -261.192406  L 295.233577 -260.433784  L 296.206742 -259.675162  L 297.014403 -258.916541  L 297.671653 -258.157919  L 298.231381 -257.399297  L 298.770134 -256.640675  L 299.373456 -255.882053  L 300.122111 -255.123431  L 301.075928 -254.36481  L 302.253177 -253.606188  L 303.6094 -252.847566  L 305.025811 -252.088944  L 306.318288 -251.330322  L 307.271812 -250.5717  L 307.694355 -249.813078  L 307.474263 -249.054457  L 306.621693 -248.295835  L 305.279769 -247.537213  L 303.702356 -246.778591  L 302.20702 -246.019969  L 301.118126 -245.261347  L 300.713851 -244.502726  L 301.184653 -243.744104  L 302.604689 -242.985482  L 304.916084 -242.22686  L 307.928888 -241.468238  L 311.34263 -240.709616  L 314.793495 -239.950995  L 317.922836 -239.192373  L 320.451879 -238.433751  L 322.241165 -237.675129  L 323.316522 -236.916507  L 323.855322 -236.157885  L 324.141439 -235.399263  L 324.5068 -234.640642  L 325.27767 -233.88202  L 326.735925 -233.123398  L 329.094896 -232.364776  L 332.481735 -231.606154  L 336.917446 -230.847532  L 342.29222 -230.088911  L 348.344209 -229.330289  L 354.657938 -228.571667  L 360.697338 -227.813045  L 365.875867 -227.054423  L 369.647983 -226.295801  L 371.594057 -225.53718  L 371.473402 -224.778558  L 369.236082 -224.019936  L 365.002364 -223.261314  L 359.026977 -222.502692  L 351.660855 -221.74407  L 343.313171 -220.985449  L 334.411444 -220.226827  L 325.360591 -219.468205  L 316.507778 -218.709583  L 308.121419 -217.950961  L 300.387468 -217.192339  L 293.418785 -216.433717  L 287.269648 -215.675096  L 281.949298 -214.916474  L 277.432824 -214.157852  L 273.670449 -213.39923  L 270.59619 -212.640608  L 268.135375 -211.881986  L 266.209995 -211.123365  L 264.741732 -210.364743  L 263.653731 -209.606121  L 262.872397 -208.847499  L 262.329754 -208.088877  L 261.9659 -207.330255  L 261.730754 -206.571634  L 261.584607 -205.813012  L 261.497511 -205.05439  L 261.447928 -204.295768  z "
             id="mde99889189"
             style="stroke:#4c4c4c;stroke-width:4;" />
        </defs>
        <g
           clip-path="url(#p8707a1a2c6)"
           id="g140">
          <use
             style="fill:#5875a4;stroke:#4c4c4c;stroke-width:4;"
             x="0"
             xlink:href="#mde99889189"
             y="360"
             id="use138" />
        </g>
      </g>
      <g
         id="PolyCollection_2">
        <defs
           id="defs144">
          <path
             d="M 536.903262 -195.453589  L 536.880426 -195.453589  L 536.869973 -196.307319  L 536.854888 -197.161049  L 536.836658 -198.014779  L 536.818744 -198.868509  L 536.805277 -199.722239  L 536.798728 -200.575969  L 536.79821 -201.429699  L 536.799998 -202.283429  L 536.800194 -203.137159  L 536.797507 -203.990889  L 536.7938 -204.844619  L 536.791958 -205.698349  L 536.792969 -206.552079  L 536.794727 -207.405809  L 536.793024 -208.259539  L 536.782122 -209.113269  L 536.750673 -209.966998  L 536.669946 -210.820728  L 536.475266 -211.674458  L 536.047452 -212.528188  L 535.207313 -213.381918  L 533.738847 -214.235648  L 531.44844 -215.089378  L 528.244933 -215.943108  L 524.200051 -216.796838  L 519.544628 -217.650568  L 514.589476 -218.504298  L 509.61547 -219.358028  L 504.811904 -220.211758  L 500.31761 -221.065488  L 496.340466 -221.919218  L 493.251561 -222.772948  L 491.540416 -223.626678  L 491.60496 -224.480408  L 493.48175 -225.334138  L 496.693587 -226.187868  L 500.33604 -227.041598  L 503.376393 -227.895328  L 505.006373 -228.749058  L 504.864519 -229.602788  L 503.03549 -230.456518  L 499.87415 -231.310248  L 495.794405 -232.163978  L 491.145974 -233.017708  L 486.204114 -233.871438  L 481.212181 -234.725168  L 476.412296 -235.578898  L 472.04847 -236.432628  L 468.356876 -237.286358  L 465.546108 -238.140088  L 463.756181 -238.993818  L 463.00163 -239.847547  L 463.13356 -240.701277  L 463.858248 -241.555007  L 464.812877 -242.408737  L 465.653081 -243.262467  L 466.100015 -244.116197  L 465.939682 -244.969927  L 465.01985 -245.823657  L 463.291298 -246.677387  L 460.884874 -247.531117  L 458.15911 -248.384847  L 455.651058 -249.238577  L 453.920249 -250.092307  L 453.350069 -250.946037  L 454.011232 -251.799767  L 455.668763 -252.653497  L 457.932022 -253.507227  L 460.454995 -254.360957  L 463.061374 -255.214687  L 465.729324 -256.068417  L 468.47669 -256.922147  L 471.250054 -257.775877  L 473.898975 -258.629607  L 476.246022 -259.483337  L 478.203323 -260.337067  L 479.865148 -261.190797  L 481.520385 -262.044527  L 483.568226 -262.898257  L 486.368301 -263.751987  L 490.089325 -264.605717  L 494.62291 -265.459447  L 499.603948 -266.313177  L 504.53613 -267.166907  L 508.973563 -268.020637  L 512.678408 -268.874367  L 515.683126 -269.728096  L 518.233772 -270.581826  L 520.6489 -271.435556  L 523.164481 -272.289286  L 525.83545 -273.143016  L 528.532982 -273.996746  L 531.027577 -274.850476  L 533.105379 -275.704206  L 534.654639 -276.557936  L 535.687017 -277.411666  L 536.30197 -278.265396  L 536.62974 -279.119126  L 536.786267 -279.972856  L 536.99742 -279.972856  L 536.99742 -279.972856  L 537.153947 -279.119126  L 537.481718 -278.265396  L 538.096671 -277.411666  L 539.129049 -276.557936  L 540.678309 -275.704206  L 542.756111 -274.850476  L 545.250706 -273.996746  L 547.948238 -273.143016  L 550.619206 -272.289286  L 553.134788 -271.435556  L 555.549916 -270.581826  L 558.100562 -269.728096  L 561.10528 -268.874367  L 564.810125 -268.020637  L 569.247558 -267.166907  L 574.17974 -266.313177  L 579.160777 -265.459447  L 583.694363 -264.605717  L 587.415386 -263.751987  L 590.215462 -262.898257  L 592.263303 -262.044527  L 593.91854 -261.190797  L 595.580365 -260.337067  L 597.537666 -259.483337  L 599.884712 -258.629607  L 602.533634 -257.775877  L 605.306997 -256.922147  L 608.054364 -256.068417  L 610.722314 -255.214687  L 613.328693 -254.360957  L 615.851666 -253.507227  L 618.114925 -252.653497  L 619.772456 -251.799767  L 620.433619 -250.946037  L 619.863438 -250.092307  L 618.13263 -249.238577  L 615.624578 -248.384847  L 612.898814 -247.531117  L 610.49239 -246.677387  L 608.763838 -245.823657  L 607.844006 -244.969927  L 607.683672 -244.116197  L 608.130607 -243.262467  L 608.970811 -242.408737  L 609.92544 -241.555007  L 610.650128 -240.701277  L 610.782057 -239.847547  L 610.027507 -238.993818  L 608.23758 -238.140088  L 605.426811 -237.286358  L 601.735218 -236.432628  L 597.371392 -235.578898  L 592.571506 -234.725168  L 587.579574 -233.871438  L 582.637714 -233.017708  L 577.989283 -232.163978  L 573.909537 -231.310248  L 570.748198 -230.456518  L 568.919168 -229.602788  L 568.777315 -228.749058  L 570.407295 -227.895328  L 573.447648 -227.041598  L 577.090101 -226.187868  L 580.301938 -225.334138  L 582.178728 -224.480408  L 582.243272 -223.626678  L 580.532127 -222.772948  L 577.443222 -221.919218  L 573.466078 -221.065488  L 568.971784 -220.211758  L 564.168218 -219.358028  L 559.194212 -218.504298  L 554.23906 -217.650568  L 549.583637 -216.796838  L 545.538755 -215.943108  L 542.335248 -215.089378  L 540.044841 -214.235648  L 538.576375 -213.381918  L 537.736236 -212.528188  L 537.308422 -211.674458  L 537.113742 -210.820728  L 537.033014 -209.966998  L 537.001566 -209.113269  L 536.990664 -208.259539  L 536.988961 -207.405809  L 536.990719 -206.552079  L 536.99173 -205.698349  L 536.989888 -204.844619  L 536.986181 -203.990889  L 536.983493 -203.137159  L 536.98369 -202.283429  L 536.985478 -201.429699  L 536.98496 -200.575969  L 536.978411 -199.722239  L 536.964943 -198.868509  L 536.94703 -198.014779  L 536.9288 -197.161049  L 536.913714 -196.307319  L 536.903262 -195.453589  z "
             id="m6674745916"
             style="stroke:#4c4c4c;stroke-width:4;" />
        </defs>
        <g
           clip-path="url(#p8707a1a2c6)"
           id="g148">
          <use
             style="fill:#cc8963;stroke:#4c4c4c;stroke-width:4;"
             x="0"
             xlink:href="#m6674745916"
             y="360"
             id="use146" />
        </g>
      </g>
      <g
         id="line2d_1">
        <path
           clip-path="url(#p8707a1a2c6)"
           d="M 261.395532 150.198443  L 261.395532 86.106459  "
           style="fill:none;stroke:#4c4c4c;stroke-linecap:round;stroke-width:4;"
           id="path151" />
      </g>
      <g
         id="line2d_2">
        <path
           clip-path="url(#p8707a1a2c6)"
           d="M 261.395532 134.864916  L 261.395532 111.28575  "
           style="fill:none;stroke:#4c4c4c;stroke-linecap:round;stroke-width:12;"
           id="path154" />
      </g>
      <g
         id="line2d_3">
        <path
           clip-path="url(#p8707a1a2c6)"
           d="M 536.891844 149.266634  L 536.891844 84.822713  "
           style="fill:none;stroke:#4c4c4c;stroke-linecap:round;stroke-width:4;"
           id="path157" />
      </g>
      <g
         id="line2d_4">
        <path
           clip-path="url(#p8707a1a2c6)"
           d="M 536.891844 123.82857  L 536.891844 104.088579  "
           style="fill:none;stroke:#4c4c4c;stroke-linecap:round;stroke-width:12;"
           id="path160" />
      </g>
      <g
         id="patch_3">
        <path
           d="M 113.647376 254.325905  L 113.647376 87.153181  "
           style="fill:none;stroke:#262626;stroke-linecap:square;stroke-linejoin:miter;stroke-width:1.25;"
           id="path163" />
      </g>
      <g
         id="PathCollection_1">
        <defs
           id="defs167">
          <path
             d="M 0 4  C 1.060812 4 2.078319 3.578535 2.828427 2.828427  C 3.578535 2.078319 4 1.060812 4 0  C 4 -1.060812 3.578535 -2.078319 2.828427 -2.828427  C 2.078319 -3.578535 1.060812 -4 0 -4  C -1.060812 -4 -2.078319 -3.578535 -2.828427 -2.828427  C -3.578535 -2.078319 -4 -1.060812 -4 0  C -4 1.060812 -3.578535 2.078319 -2.828427 2.828427  C -2.078319 3.578535 -1.060812 4 0 4  z "
             id="mfd140ddf48"
             style="stroke:#4c4c4c;" />
        </defs>
        <g
           clip-path="url(#p8707a1a2c6)"
           id="g171">
          <use
             style="fill:#ffffff;stroke:#4c4c4c;"
             x="261.395532"
             xlink:href="#mfd140ddf48"
             y="126.228854"
             id="use169" />
        </g>
      </g>
      <g
         id="PathCollection_2">
        <g
           clip-path="url(#p8707a1a2c6)"
           id="g176">
          <use
             style="fill:#ffffff;stroke:#4c4c4c;"
             x="536.891844"
             xlink:href="#mfd140ddf48"
             y="113.432081"
             id="use174" />
        </g>
      </g>
    </g>
    <text
       xml:space="preserve"
       style="font-style:normal;font-weight:normal;font-size:30px;line-height:1.25;font-family:sans-serif;letter-spacing:0px;word-spacing:0px;fill:#000000;fill-opacity:1;stroke:none;stroke-width:0.75;stroke-linecap:butt;stroke-linejoin:round"
       x="-277.51361"
       y="69.527367"
       id="text1129"
       transform="rotate(-90)"><tspan
         sodipodi:role="line"
         id="tspan1127"
         x="-277.51361"
         y="69.527367"
         style="font-style:normal;font-variant:normal;font-weight:bold;font-stretch:normal;font-size:40px;font-family:'CMU Serif';-inkscape-font-specification:'CMU Serif, Bold';font-variant-ligatures:normal;font-variant-caps:normal;font-variant-numeric:normal;font-variant-east-asian:normal;stroke-width:0.75">delentropy</tspan></text>
    <text
       xml:space="preserve"
       style="font-style:normal;font-weight:normal;font-size:30px;line-height:1.25;font-family:sans-serif;letter-spacing:0px;word-spacing:0px;fill:#000000;fill-opacity:1;stroke:none;stroke-width:0.75;stroke-linecap:butt;stroke-linejoin:round"
       x="111.38238"
       y="37.989838"
       id="text1143"><tspan
         sodipodi:role="line"
         id="tspan1141"
         x="111.38238"
         y="37.989838"
         style="font-style:normal;font-variant:normal;font-weight:bold;font-stretch:normal;font-size:40px;font-family:'CMU Serif';-inkscape-font-specification:'CMU Serif, Bold';font-variant-ligatures:normal;font-variant-caps:normal;font-variant-numeric:normal;font-variant-east-asian:normal;stroke-width:0.75">Aqualoc</tspan></text>
  </g>
  <defs
     id="defs205">
    <clipPath
       id="p8707a1a2c6">
      <rect
         height="225.683177"
         width="550.992624"
         x="123.647376"
         y="45.36"
         id="rect202" />
    </clipPath>
  </defs>
</svg>
