<?xml version="1.0" encoding="UTF-8" standalone="no"?>
<svg
   xmlns:dc="http://purl.org/dc/elements/1.1/"
   xmlns:cc="http://creativecommons.org/ns#"
   xmlns:rdf="http://www.w3.org/1999/02/22-rdf-syntax-ns#"
   xmlns:svg="http://www.w3.org/2000/svg"
   xmlns="http://www.w3.org/2000/svg"
   xmlns:xlink="http://www.w3.org/1999/xlink"
   xmlns:sodipodi="http://sodipodi.sourceforge.net/DTD/sodipodi-0.dtd"
   xmlns:inkscape="http://www.inkscape.org/namespaces/inkscape"
   height="360pt"
   version="1.1"
   viewBox="0 0 1440 360"
   width="1440pt"
   id="svg305"
   sodipodi:docname="euroc_delentropies_edit.svg"
   inkscape:version="1.0.2 (1.0.2+r75+1)">
  <metadata
     id="metadata309">
    <rdf:RDF>
      <cc:Work
         rdf:about="">
        <dc:format>image/svg+xml</dc:format>
        <dc:type
           rdf:resource="http://purl.org/dc/dcmitype/StillImage" />
        <dc:title></dc:title>
      </cc:Work>
    </rdf:RDF>
  </metadata>
  <sodipodi:namedview
     pagecolor="#ffffff"
     bordercolor="#666666"
     borderopacity="1"
     objecttolerance="10"
     gridtolerance="10"
     guidetolerance="10"
     inkscape:pageopacity="0"
     inkscape:pageshadow="2"
     inkscape:window-width="1853"
     inkscape:window-height="1145"
     id="namedview307"
     showgrid="false"
     inkscape:zoom="0.33203125"
     inkscape:cx="1418.3956"
     inkscape:cy="355.78878"
     inkscape:window-x="67"
     inkscape:window-y="27"
     inkscape:window-maximized="1"
     inkscape:current-layer="axes_1" />
  <defs
     id="defs4">
    <style
       type="text/css"
       id="style2">
*{stroke-linecap:butt;stroke-linejoin:round;}
  </style>
  </defs>
  <g
     id="figure_1">
    <g
       id="patch_1">
      <path
         d="M 0 360  L 1440 360  L 1440 0  L 0 0  z "
         style="fill:#ffffff;"
         id="path6" />
    </g>
    <g
       id="axes_1">
      <g
         id="patch_2">
        <path
           d="M 123.647376 271.043177  L 1394.64 271.043177  L 1394.64 45.36  L 123.647376 45.36  z "
           style="fill:#ffffff;"
           id="path9" />
      </g>
      <g
         id="matplotlib.axis_2">
        <g
           id="ytick_1">
          <g
             id="text_5">
            <!-- $0$ -->
            <g
               style="fill:#262626;"
               transform="translate(86.556542 267.644019)scale(0.385 -0.385)"
               id="g149">
              <path
                 d="m 41.843088,31.522416 c 0,6.08655 -0.0934,16.422789 -4.280822,24.377334 -3.68929,6.973848 -9.573474,9.448942 -14.741594,9.448942 -4.79452,0 -10.865504,-2.179328 -14.6481939,-9.355542 C 4.1874221,48.536737 3.7826899,39.290162 3.7826899,31.522416 3.7826899,25.856164 3.8916563,17.216687 6.973848,9.6357409 11.25467,-0.60709838 18.929016,-1.992528 22.820672,-1.992528 c 4.576588,0 11.550436,1.88356162 15.628892,11.332503 2.988792,6.880448 3.393524,14.928393 3.393524,22.182441 z M 22.820672,-0.40473225 c -6.382316,0 -10.165006,5.46388535 -11.566002,13.04483225 -1.089664,5.853051 -1.089664,14.414694 -1.089664,19.987546 0,7.658779 0,14.025529 1.29203,20.096513 1.899128,8.437111 7.47198,11.036737 11.363636,11.036737 4.078456,0 9.355542,-2.693026 11.25467,-10.834371 1.29203,-5.666251 1.38543,-12.344334 1.38543,-20.298879 0,-6.475716 0,-14.430261 -1.183064,-20.298879 C 32.176214,1.4788294 26.307596,-0.40473225 22.820672,-0.40473225 Z"
                 id="use147"
                 style="stroke-width:0.996264" />
            </g>
          </g>
        </g>
        <g
           id="ytick_2">
          <g
             id="text_6">
            <!-- $2$ -->
            <defs
               id="defs154">
              <path
                 d="M 41.703125 15.453125  L 39.90625 15.453125  C 38.90625 8.375 38.09375 7.171875 37.703125 6.5625  C 37.203125 5.765625 30 5.765625 28.59375 5.765625  L 9.40625 5.765625  C 13 9.671875 20 16.75 28.5 24.953125  C 34.59375 30.734375 41.703125 37.53125 41.703125 47.421875  C 41.703125 59.21875 32.296875 66 21.796875 66  C 10.796875 66 4.09375 56.3125 4.09375 47.34375  C 4.09375 43.4375 7 42.9375 8.203125 42.9375  C 9.203125 42.9375 12.203125 43.546875 12.203125 47.03125  C 12.203125 50.109375 9.59375 51 8.203125 51  C 7.59375 51 7 50.90625 6.59375 50.703125  C 8.5 59.21875 14.296875 63.40625 20.40625 63.40625  C 29.09375 63.40625 34.796875 56.515625 34.796875 47.421875  C 34.796875 38.734375 29.703125 31.25 24 24.75  L 4.09375 2.28125  L 4.09375 0  L 39.296875 0  z "
                 id="CMR17-50" />
            </defs>
            <g
               style="fill:#262626;"
               transform="translate(86.556542 184.057657)scale(0.385 -0.385)"
               id="g158">
              <use
                 transform="scale(0.996264)"
                 xlink:href="#CMR17-50"
                 id="use156" />
            </g>
          </g>
        </g>
        <g
           id="ytick_3">
          <g
             id="text_7">
            <!-- $4$ -->
            <g
               style="fill:#262626;"
               transform="translate(86.556542 100.471295)scale(0.385 -0.385)"
               id="g164">
              <path
                 d="m 33.468244,64.165628 c 0,2.085928 -0.0934,2.085928 -1.883562,2.085928 L 1.992528,19.520548 v -2.58406 H 27.693026 V 7.1139476 C 27.693026,3.486924 27.49066,2.49066 20.516812,2.49066 H 18.63325 V 0 c 3.191158,0 8.561644,0 11.955168,0 3.377958,0 8.76401,0 11.955168,0 v 2.49066 h -1.899128 c -6.973848,0 -7.176214,0.996264 -7.176214,4.6232876 V 16.936488 H 43.63325 v 2.58406 H 33.468244 Z M 27.988792,57.643212 V 19.520548 H 3.985056 Z"
                 id="use162"
                 style="stroke-width:0.996264" />
            </g>
          </g>
        </g>
      </g>
      <g
         id="PolyCollection_1">
        <defs
           id="defs199">
          <path
             d="M 282.616657 -211.743202  L 282.426251 -211.743202  L 282.309981 -212.403673  L 282.111596 -213.064144  L 281.826285 -213.724616  L 281.485319 -214.385087  L 281.156199 -215.045558  L 280.916561 -215.70603  L 280.814221 -216.366501  L 280.84185 -217.026972  L 280.945958 -217.687444  L 281.062255 -218.347915  L 281.149823 -219.008386  L 281.201768 -219.668858  L 281.231316 -220.329329  L 281.249035 -220.9898  L 281.247914 -221.650272  L 281.202036 -222.310743  L 281.074067 -222.971214  L 280.826025 -223.631686  L 280.433604 -224.292157  L 279.90492 -224.952628  L 279.296165 -225.6131  L 278.710776 -226.273571  L 278.275197 -226.934043  L 278.097666 -227.594514  L 278.225658 -228.254985  L 278.620269 -228.915457  L 279.162813 -229.575928  L 279.696886 -230.236399  L 280.088958 -230.896871  L 280.274809 -231.557342  L 280.2635 -232.217813  L 280.097771 -232.878285  L 279.802219 -233.538756  L 279.359663 -234.199227  L 278.728081 -234.859699  L 277.86974 -235.52017  L 276.757235 -236.180641  L 275.360725 -236.841113  L 273.657333 -237.501584  L 271.683383 -238.162055  L 269.593094 -238.822527  L 267.666464 -239.482998  L 266.247791 -240.143469  L 265.641284 -240.803941  L 266.001694 -241.464412  L 267.259436 -242.124883  L 269.126383 -242.785355  L 271.202128 -243.445826  L 273.128239 -244.106297  L 274.69141 -244.766769  L 275.820247 -245.42724  L 276.511273 -246.087711  L 276.759074 -246.748183  L 276.527575 -247.408654  L 275.747656 -248.069125  L 274.318749 -248.729597  L 272.118834 -249.390068  L 269.041956 -250.05054  L 265.059938 -250.711011  L 260.263864 -251.371482  L 254.825666 -252.031954  L 248.868143 -252.692425  L 242.329538 -253.352896  L 234.967631 -254.013368  L 226.566095 -254.673839  L 217.205784 -255.33431  L 207.338071 -255.994782  L 197.532649 -256.655253  L 188.104579 -257.315724  L 179.026134 -257.976196  L 170.314277 -258.636667  L 162.580339 -259.297138  L 157.144068 -259.95761  L 155.422191 -260.618081  L 157.957448 -261.278552  L 163.80416 -261.939024  L 170.710168 -262.599495  L 175.990897 -263.259966  L 177.689658 -263.920438  L 175.58876 -264.580909  L 171.618456 -265.24138  L 169.266158 -265.901852  L 172.029654 -266.562323  L 181.669937 -267.222794  L 197.334362 -267.883266  L 216.092179 -268.543737  L 234.443755 -269.204208  L 249.785541 -269.86468  L 261.060633 -270.525151  L 268.53727 -271.185623  L 273.169193 -271.846094  L 276.008138 -272.506565  L 277.871312 -273.167037  L 279.244422 -273.827508  L 280.332652 -274.487979  L 281.178981 -275.148451  L 281.781148 -275.808922  L 282.159232 -276.469393  L 282.365491 -277.129865  L 282.677416 -277.129865  L 282.677416 -277.129865  L 282.883675 -276.469393  L 283.261759 -275.808922  L 283.863927 -275.148451  L 284.710256 -274.487979  L 285.798486 -273.827508  L 287.171596 -273.167037  L 289.034769 -272.506565  L 291.873714 -271.846094  L 296.505637 -271.185623  L 303.982274 -270.525151  L 315.257366 -269.86468  L 330.599153 -269.204208  L 348.950729 -268.543737  L 367.708546 -267.883266  L 383.37297 -267.222794  L 393.013254 -266.562323  L 395.77675 -265.901852  L 393.424451 -265.24138  L 389.454148 -264.580909  L 387.353249 -263.920438  L 389.052011 -263.259966  L 394.33274 -262.599495  L 401.238747 -261.939024  L 407.085459 -261.278552  L 409.620716 -260.618081  L 407.89884 -259.95761  L 402.462569 -259.297138  L 394.728631 -258.636667  L 386.016773 -257.976196  L 376.938328 -257.315724  L 367.510259 -256.655253  L 357.704837 -255.994782  L 347.837124 -255.33431  L 338.476812 -254.673839  L 330.075277 -254.013368  L 322.713369 -253.352896  L 316.174765 -252.692425  L 310.217241 -252.031954  L 304.779043 -251.371482  L 299.982969 -250.711011  L 296.000951 -250.05054  L 292.924073 -249.390068  L 290.724159 -248.729597  L 289.295251 -248.069125  L 288.515333 -247.408654  L 288.283833 -246.748183  L 288.531634 -246.087711  L 289.22266 -245.42724  L 290.351498 -244.766769  L 291.914669 -244.106297  L 293.84078 -243.445826  L 295.916525 -242.785355  L 297.783472 -242.124883  L 299.041213 -241.464412  L 299.401624 -240.803941  L 298.795116 -240.143469  L 297.376444 -239.482998  L 295.449814 -238.822527  L 293.359525 -238.162055  L 291.385574 -237.501584  L 289.682182 -236.841113  L 288.285673 -236.180641  L 287.173167 -235.52017  L 286.314826 -234.859699  L 285.683244 -234.199227  L 285.240689 -233.538756  L 284.945137 -232.878285  L 284.779407 -232.217813  L 284.768098 -231.557342  L 284.95395 -230.896871  L 285.346021 -230.236399  L 285.880094 -229.575928  L 286.422638 -228.915457  L 286.817249 -228.254985  L 286.945241 -227.594514  L 286.767711 -226.934043  L 286.332131 -226.273571  L 285.746742 -225.6131  L 285.137988 -224.952628  L 284.609303 -224.292157  L 284.216883 -223.631686  L 283.968841 -222.971214  L 283.840872 -222.310743  L 283.794993 -221.650272  L 283.793873 -220.9898  L 283.811592 -220.329329  L 283.841139 -219.668858  L 283.893085 -219.008386  L 283.980652 -218.347915  L 284.09695 -217.687444  L 284.201057 -217.026972  L 284.228687 -216.366501  L 284.126347 -215.70603  L 283.886709 -215.045558  L 283.557589 -214.385087  L 283.216623 -213.724616  L 282.931311 -213.064144  L 282.732926 -212.403673  L 282.616657 -211.743202  z "
             id="mefa2d96676"
             style="stroke:#4c4c4c;stroke-width:4;" />
        </defs>
        <g
           clip-path="url(#p80ae326207)"
           id="g203">
          <use
             style="fill:#5875a4;stroke:#4c4c4c;stroke-width:4;"
             x="0"
             xlink:href="#mefa2d96676"
             y="360"
             id="use201" />
        </g>
      </g>
      <g
         id="PolyCollection_2">
        <defs
           id="defs207">
          <path
             d="M 600.388787 -117.569635  L 600.150432 -117.569635  L 600.062985 -119.197314  L 599.933417 -120.824993  L 599.755653 -122.452673  L 599.530253 -124.080352  L 599.266795 -125.708032  L 598.983959 -127.335711  L 598.706571 -128.96339  L 598.460122 -130.59107  L 598.264491 -132.218749  L 598.129109 -133.846428  L 598.051225 -135.474108  L 598.017607 -137.101787  L 598.00878 -138.729466  L 598.004239 -140.357146  L 597.987261 -141.984825  L 597.948318 -143.612504  L 597.886492 -145.240184  L 597.808502 -146.867863  L 597.725367 -148.495542  L 597.647465 -150.123222  L 597.579595 -151.750901  L 597.517968 -153.37858  L 597.450575 -155.00626  L 597.36115 -156.633939  L 597.235541 -158.261618  L 597.068353 -159.889298  L 596.867508 -161.516977  L 596.654897 -163.144656  L 596.462436 -164.772336  L 596.324352 -166.400015  L 596.267991 -168.027695  L 596.306297 -169.655374  L 596.434739 -171.283053  L 596.633767 -172.910733  L 596.87557 -174.538412  L 597.132176 -176.166091  L 597.381623 -177.793771  L 597.610325 -179.42145  L 597.811758 -181.049129  L 597.98324 -182.676809  L 598.122903 -184.304488  L 598.228185 -185.932167  L 598.295836 -187.559847  L 598.322485 -189.187526  L 598.304649 -190.815205  L 598.237669 -192.442885  L 598.114049 -194.070564  L 597.922505 -195.698243  L 597.649201 -197.325923  L 597.28203 -198.953602  L 596.817349 -200.581281  L 596.267035 -202.208961  L 595.662685 -203.83664  L 595.054178 -205.464319  L 594.501595 -207.091999  L 594.062209 -208.719678  L 593.776489 -210.347358  L 593.657855 -211.975037  L 593.689618 -213.602716  L 593.829823 -215.230396  L 594.021758 -216.858075  L 594.205913 -218.485754  L 594.328851 -220.113434  L 594.345648 -221.741113  L 594.214752 -223.368792  L 593.886567 -224.996472  L 593.289354 -226.624151  L 592.31749 -228.25183  L 590.82747 -229.87951  L 588.645888 -231.507189  L 585.591357 -233.134868  L 581.509561 -234.762548  L 576.317877 -236.390227  L 570.05342 -238.017906  L 562.915279 -239.645586  L 555.288242 -241.273265  L 547.733419 -242.900944  L 540.934116 -244.528624  L 535.596244 -246.156303  L 532.319966 -247.783982  L 531.476153 -249.411662  L 533.127373 -251.039341  L 537.02178 -252.667021  L 542.662354 -254.2947  L 549.42565 -255.922379  L 556.688155 -257.550059  L 563.921985 -259.177738  L 570.740974 -260.805417  L 576.901014 -262.433097  L 582.273262 -264.060776  L 586.810851 -265.688455  L 590.522329 -267.316135  L 593.455183 -268.943814  L 595.686131 -270.571493  L 597.313194 -272.199173  L 598.446514 -273.826852  L 599.197828 -275.454531  L 599.670436 -277.082211  L 599.951805 -278.70989  L 600.587415 -278.70989  L 600.587415 -278.70989  L 600.868784 -277.082211  L 601.341392 -275.454531  L 602.092706 -273.826852  L 603.226026 -272.199173  L 604.853089 -270.571493  L 607.084037 -268.943814  L 610.016891 -267.316135  L 613.728368 -265.688455  L 618.265958 -264.060776  L 623.638206 -262.433097  L 629.798246 -260.805417  L 636.617234 -259.177738  L 643.851064 -257.550059  L 651.113569 -255.922379  L 657.876866 -254.2947  L 663.517439 -252.667021  L 667.411846 -251.039341  L 669.063066 -249.411662  L 668.219253 -247.783982  L 664.942975 -246.156303  L 659.605104 -244.528624  L 652.805801 -242.900944  L 645.250978 -241.273265  L 637.623941 -239.645586  L 630.485799 -238.017906  L 624.221343 -236.390227  L 619.029658 -234.762548  L 614.947862 -233.134868  L 611.893332 -231.507189  L 609.711749 -229.87951  L 608.22173 -228.25183  L 607.249866 -226.624151  L 606.652652 -224.996472  L 606.324468 -223.368792  L 606.193572 -221.741113  L 606.210369 -220.113434  L 606.333306 -218.485754  L 606.517461 -216.858075  L 606.709397 -215.230396  L 606.849602 -213.602716  L 606.881365 -211.975037  L 606.762731 -210.347358  L 606.47701 -208.719678  L 606.037624 -207.091999  L 605.485042 -205.464319  L 604.876534 -203.83664  L 604.272185 -202.208961  L 603.721871 -200.581281  L 603.25719 -198.953602  L 602.890018 -197.325923  L 602.616715 -195.698243  L 602.425171 -194.070564  L 602.301551 -192.442885  L 602.23457 -190.815205  L 602.216734 -189.187526  L 602.243384 -187.559847  L 602.311035 -185.932167  L 602.416317 -184.304488  L 602.55598 -182.676809  L 602.727461 -181.049129  L 602.928895 -179.42145  L 603.157596 -177.793771  L 603.407044 -176.166091  L 603.663649 -174.538412  L 603.905453 -172.910733  L 604.10448 -171.283053  L 604.232923 -169.655374  L 604.271229 -168.027695  L 604.214868 -166.400015  L 604.076784 -164.772336  L 603.884323 -163.144656  L 603.671711 -161.516977  L 603.470867 -159.889298  L 603.303679 -158.261618  L 603.17807 -156.633939  L 603.088645 -155.00626  L 603.021252 -153.37858  L 602.959624 -151.750901  L 602.891754 -150.123222  L 602.813852 -148.495542  L 602.730717 -146.867863  L 602.652728 -145.240184  L 602.590902 -143.612504  L 602.551958 -141.984825  L 602.53498 -140.357146  L 602.53044 -138.729466  L 602.521613 -137.101787  L 602.487995 -135.474108  L 602.410111 -133.846428  L 602.274729 -132.218749  L 602.079098 -130.59107  L 601.832649 -128.96339  L 601.555261 -127.335711  L 601.272424 -125.708032  L 601.008966 -124.080352  L 600.783567 -122.452673  L 600.605803 -120.824993  L 600.476234 -119.197314  L 600.388787 -117.569635  z "
             id="mc34338ebd0"
             style="stroke:#4c4c4c;stroke-width:4;" />
        </defs>
        <g
           clip-path="url(#p80ae326207)"
           id="g211">
          <use
             style="fill:#cc8963;stroke:#4c4c4c;stroke-width:4;"
             x="0"
             xlink:href="#mc34338ebd0"
             y="360"
             id="use209" />
        </g>
      </g>
      <g
         id="PolyCollection_3">
        <defs
           id="defs215">
          <path
             d="M 918.124142 -215.603732  L 917.91139 -215.603732  L 917.793971 -216.226755  L 917.586345 -216.849779  L 917.254153 -217.472803  L 916.773454 -218.095827  L 916.143974 -218.718851  L 915.395484 -219.341875  L 914.579335 -219.964898  L 913.744389 -220.587922  L 912.907618 -221.210946  L 912.036486 -221.83397  L 911.056395 -222.456994  L 909.88388 -223.080018  L 908.472742 -223.703042  L 906.852681 -224.326065  L 905.140141 -224.949089  L 903.509717 -225.572113  L 902.132204 -226.195137  L 901.106522 -226.818161  L 900.422696 -227.441185  L 899.978899 -228.064208  L 899.643147 -228.687232  L 899.322766 -229.310256  L 899.002982 -229.93328  L 898.738323 -230.556304  L 898.60753 -231.179328  L 898.657963 -231.802352  L 898.867046 -232.425375  L 899.14068 -233.048399  L 899.352182 -233.671423  L 899.401851 -234.294447  L 899.259622 -234.917471  L 898.959676 -235.540495  L 898.547733 -236.163518  L 898.015626 -236.786542  L 897.265581 -237.409566  L 896.123781 -238.03259  L 894.39125 -238.655614  L 891.905223 -239.278638  L 888.591171 -239.901661  L 884.499251 -240.524685  L 879.822343 -241.147709  L 874.884636 -241.770733  L 870.085095 -242.393757  L 865.793758 -243.016781  L 862.227674 -243.639805  L 859.356432 -244.262828  L 856.883433 -244.885852  L 854.316726 -245.508876  L 851.102412 -246.1319  L 846.771135 -246.754924  L 841.05638 -247.377948  L 833.969872 -248.000971  L 825.837693 -248.623995  L 817.296202 -249.247019  L 809.232595 -249.870043  L 802.657 -250.493067  L 798.517958 -251.116091  L 797.500679 -251.739115  L 799.857719 -252.362138  L 805.319441 -252.985162  L 813.128622 -253.608186  L 822.226925 -254.23121  L 831.56435 -254.854234  L 840.419202 -255.477258  L 848.573881 -256.100281  L 856.251447 -256.723305  L 863.854949 -257.346329  L 871.665065 -257.969353  L 879.65764 -258.592377  L 887.509484 -259.215401  L 894.748111 -259.838425  L 900.941851 -260.461448  L 905.836333 -261.084472  L 909.392432 -261.707496  L 911.734041 -262.33052  L 913.050074 -262.953544  L 913.506603 -263.576568  L 913.213216 -264.199591  L 912.258531 -264.822615  L 910.791865 -265.445639  L 909.094415 -266.068663  L 907.575517 -266.691687  L 906.666107 -267.314711  L 906.651811 -267.937734  L 907.543506 -268.560758  L 909.07237 -269.183782  L 910.818591 -269.806806  L 912.397106 -270.42983  L 913.59582 -271.052854  L 914.405467 -271.675878  L 914.952552 -272.298901  L 915.39455 -272.921925  L 915.838209 -273.544949  L 916.311214 -274.167973  L 916.781522 -274.790997  L 917.197573 -275.414021  L 917.522082 -276.037044  L 917.745686 -276.660068  L 917.882353 -277.283092  L 918.153179 -277.283092  L 918.153179 -277.283092  L 918.289846 -276.660068  L 918.513449 -276.037044  L 918.837959 -275.414021  L 919.25401 -274.790997  L 919.724317 -274.167973  L 920.197322 -273.544949  L 920.640982 -272.921925  L 921.08298 -272.298901  L 921.630065 -271.675878  L 922.439712 -271.052854  L 923.638426 -270.42983  L 925.216941 -269.806806  L 926.963162 -269.183782  L 928.492026 -268.560758  L 929.383721 -267.937734  L 929.369425 -267.314711  L 928.460015 -266.691687  L 926.941117 -266.068663  L 925.243667 -265.445639  L 923.777001 -264.822615  L 922.822316 -264.199591  L 922.528929 -263.576568  L 922.985458 -262.953544  L 924.301491 -262.33052  L 926.6431 -261.707496  L 930.199199 -261.084472  L 935.09368 -260.461448  L 941.28742 -259.838425  L 948.526047 -259.215401  L 956.377892 -258.592377  L 964.370467 -257.969353  L 972.180582 -257.346329  L 979.784085 -256.723305  L 987.46165 -256.100281  L 995.61633 -255.477258  L 1004.471182 -254.854234  L 1013.808606 -254.23121  L 1022.906909 -253.608186  L 1030.716091 -252.985162  L 1036.177812 -252.362138  L 1038.534853 -251.739115  L 1037.517574 -251.116091  L 1033.378532 -250.493067  L 1026.802937 -249.870043  L 1018.73933 -249.247019  L 1010.197839 -248.623995  L 1002.06566 -248.000971  L 994.979151 -247.377948  L 989.264397 -246.754924  L 984.933119 -246.1319  L 981.718805 -245.508876  L 979.152098 -244.885852  L 976.679099 -244.262828  L 973.807857 -243.639805  L 970.241774 -243.016781  L 965.950437 -242.393757  L 961.150896 -241.770733  L 956.213189 -241.147709  L 951.536281 -240.524685  L 947.444361 -239.901661  L 944.130309 -239.278638  L 941.644282 -238.655614  L 939.91175 -238.03259  L 938.769951 -237.409566  L 938.019906 -236.786542  L 937.487798 -236.163518  L 937.075856 -235.540495  L 936.77591 -234.917471  L 936.633681 -234.294447  L 936.68335 -233.671423  L 936.894852 -233.048399  L 937.168486 -232.425375  L 937.377569 -231.802352  L 937.428001 -231.179328  L 937.297208 -230.556304  L 937.03255 -229.93328  L 936.712766 -229.310256  L 936.392385 -228.687232  L 936.056633 -228.064208  L 935.612836 -227.441185  L 934.929009 -226.818161  L 933.903328 -226.195137  L 932.525815 -225.572113  L 930.895391 -224.949089  L 929.18285 -224.326065  L 927.56279 -223.703042  L 926.151652 -223.080018  L 924.979137 -222.456994  L 923.999045 -221.83397  L 923.127914 -221.210946  L 922.291143 -220.587922  L 921.456196 -219.964898  L 920.640048 -219.341875  L 919.891558 -218.718851  L 919.262078 -218.095827  L 918.781379 -217.472803  L 918.449187 -216.849779  L 918.241561 -216.226755  L 918.124142 -215.603732  z "
             id="mf187319a29"
             style="stroke:#4c4c4c;stroke-width:4;" />
        </defs>
        <g
           clip-path="url(#p80ae326207)"
           id="g219">
          <path
             d="m 918.12414,144.39627 h -0.21275 l -0.11742,-0.62302 -0.20762,-0.62303 -0.3322,-0.62302 -0.4807,-0.62303 -0.62948,-0.62302 -0.74849,-0.62302 -0.81614,-0.62303 -0.83495,-0.62302 -0.83677,-0.62303 -0.87113,-0.62302 -0.9801,-0.62302 -1.17251,-0.62303 -1.41114,-0.62302 -1.62006,-0.62302 -1.71254,-0.62303 -1.63042,-0.62302 -1.37752,-0.62303 -1.02568,-0.62302 -0.68382,-0.62302 -0.4438,-0.62303 -0.33575,-0.62302 -0.32038,-0.62303 -0.31979,-0.62302 -0.26466,-0.62302 -0.13079,-0.62303 0.0504,-0.62302 0.20909,-0.62302 0.27363,-0.62303 0.2115,-0.62302 0.0497,-0.62303 -0.14223,-0.62302 -0.29994,-0.62302 -0.41195,-0.62303 -0.5321,-0.62302 -0.75005,-0.62303 -1.1418,-0.62302 -1.73253,-0.62302 -2.48603,-0.62303 -3.31405,-0.62302 -4.09192,-0.62302 -4.67691,-0.62303 -4.9377,-0.62302 -4.79954,-0.62303 -4.29134,-0.62302 -3.56609,-0.62302 -2.87124,-0.62303 -2.473,-0.62302 -2.5667,-0.62303 -3.21432,-0.62302 -4.33128,-0.62302 -5.71475,-0.62303 -7.08651,-0.62302 -8.13218,-0.62302 -8.54149,-0.62303 -8.06361,-0.62302 -6.57559,-0.62303 -4.13904,-0.62302 -1.01728,-0.62302 2.35704,-0.62303 5.46172,-0.62302 7.80918,-0.62303 9.09831,-0.62302 9.33742,-0.62302 8.85485,-0.62303 8.15468,-0.62302 7.67757,-0.62302 7.6035,-0.62303 7.81012,-0.62302 7.99257,-0.62303 7.85184,-0.62302 7.23863,-0.62302 6.19374,-0.62303 4.89448,-0.62302 3.5561,-0.62303 2.34161,-0.62302 1.31603,-0.62302 0.45653,-0.62303 -0.29338,-0.62302 -0.95469,-0.62302 -1.46666,-0.62303 -1.69745,-0.62302 -1.5189,-0.62303 -0.90941,-0.62302 -0.0143,-0.62302 0.8917,-0.62303 1.52886,-0.62302 1.74622,-0.62303 1.57852,-0.62302 1.19871,-0.62302 0.80965,-0.62303 0.54708,-0.62302 0.442,-0.62302 0.44366,-0.62303 0.473,-0.62302 0.47031,-0.62303 0.41605,-0.62302 0.32451,-0.62302 0.22361,-0.62303 0.13666,-0.62302 h 0.27083 v 0 l 0.13667,0.62302 0.2236,0.62303 0.32451,0.62302 0.41605,0.62302 0.47031,0.62303 0.473,0.62302 0.44366,0.62303 0.442,0.62302 0.54708,0.62302 0.80965,0.62303 1.19872,0.62302 1.57851,0.62302 1.74622,0.62303 1.52887,0.62302 0.89169,0.62303 -0.0143,0.62302 -0.90941,0.62302 -1.51889,0.62303 -1.69745,0.62302 -1.46667,0.62303 -0.95468,0.62302 -0.29339,0.62302 0.45653,0.62303 1.31603,0.62302 2.34161,0.62302 3.5561,0.62303 4.89448,0.62302 6.19374,0.62303 7.23863,0.62302 7.85184,0.62302 7.99258,0.62303 7.81011,0.62302 7.6035,0.62303 7.67757,0.62302 8.15468,0.62302 8.85487,0.62303 9.3374,0.62302 9.0983,0.62302 7.8092,0.62303 5.4617,0.62302 2.3571,0.62303 -1.0173,0.62302 -4.1391,0.62302 -6.5756,0.62303 -8.0636,0.62302 -8.5415,0.62303 -8.1321,0.62302 -7.08655,0.62302 -5.71475,0.62303 -4.33128,0.62302 -3.21432,0.62302 -2.5667,0.62303 -2.473,0.62302 -2.87124,0.62303 -3.56609,0.62302 -4.29133,0.62302 -4.79954,0.62303 -4.93771,0.62302 -4.67691,0.62303 -4.09192,0.62302 -3.31405,0.62302 -2.48603,0.62303 -1.73253,0.62302 -1.1418,0.62302 -0.75004,0.62303 -0.53211,0.62302 -0.41194,0.62303 -0.29995,0.62302 -0.14223,0.62302 0.0497,0.62303 0.2115,0.62302 0.27364,0.62303 0.20908,0.62302 0.0504,0.62302 -0.13079,0.62303 -0.26466,0.62302 -0.31978,0.62302 -0.32039,0.62303 -0.33575,0.62302 -0.44379,0.62303 -0.68383,0.62302 -1.02568,0.62302 -1.37752,0.62303 -1.63042,0.62302 -1.71254,0.62303 -1.62006,0.62302 -1.41114,0.62302 -1.17251,0.62303 -0.98009,0.62302 -0.87114,0.62302 -0.83677,0.62303 -0.83494,0.62302 -0.81615,0.62303 -0.74849,0.62302 -0.62948,0.62302 -0.4807,0.62303 -0.33219,0.62302 -0.20763,0.62303 z"
             id="use217"
             style="fill:#5f9e6e;stroke:#4c4c4c;stroke-width:4" />
        </g>
      </g>
      <g
         id="PolyCollection_4">
        <defs
           id="defs223">
          <path
             d="M 1235.944643 -192.829829  L 1235.587201 -192.829829  L 1235.438547 -193.610669  L 1235.195589 -194.39151  L 1234.820176 -195.17235  L 1234.271684 -195.95319  L 1233.513681 -196.73403  L 1232.522157 -197.51487  L 1231.293113 -198.29571  L 1229.846838 -199.076551  L 1228.22684 -199.857391  L 1226.493258 -200.638231  L 1224.712919 -201.419071  L 1222.949845 -202.199911  L 1221.259868 -202.980751  L 1219.690839 -203.761592  L 1218.286803 -204.542432  L 1217.092097 -205.323272  L 1216.151208 -206.104112  L 1215.502613 -206.884952  L 1215.168447 -207.665792  L 1215.144617 -208.446632  L 1215.396233 -209.227473  L 1215.860737 -210.008313  L 1216.457359 -210.789153  L 1217.098667 -211.569993  L 1217.699635 -212.350833  L 1218.181919 -213.131673  L 1218.474422 -213.912514  L 1218.513641 -214.693354  L 1218.247268 -215.474194  L 1217.642091 -216.255034  L 1216.693832 -217.035874  L 1215.434175 -217.816714  L 1213.930261 -218.597555  L 1212.274518 -219.378395  L 1210.566632 -220.159235  L 1208.892902 -220.940075  L 1207.309642 -221.720915  L 1205.836019 -222.501755  L 1204.458383 -223.282596  L 1203.144103 -224.063436  L 1201.859889 -224.844276  L 1200.588553 -225.625116  L 1199.339324 -226.405956  L 1198.14938 -227.186796  L 1197.077032 -227.967636  L 1196.188972 -228.748477  L 1195.544949 -229.529317  L 1195.183329 -230.310157  L 1195.110534 -231.090997  L 1195.29644 -231.871837  L 1195.676447 -232.652677  L 1196.159165 -233.433518  L 1196.637121 -234.214358  L 1196.99725 -234.995198  L 1197.128948 -235.776038  L 1196.929711 -236.556878  L 1196.310999 -237.337718  L 1195.208143 -238.118559  L 1193.59664 -238.899399  L 1191.512942 -239.680239  L 1189.072521 -240.461079  L 1186.474627 -241.241919  L 1183.984736 -242.022759  L 1181.89298 -242.8036  L 1180.457407 -243.58444  L 1179.849537 -244.36528  L 1180.121288 -245.14612  L 1181.205206 -245.92696  L 1182.946859 -246.7078  L 1185.155804 -247.48864  L 1187.655595 -248.269481  L 1190.31637 -249.050321  L 1193.063251 -249.831161  L 1195.86458 -250.612001  L 1198.710789 -251.392841  L 1201.595154 -252.173681  L 1204.503135 -252.954522  L 1207.410888 -253.735362  L 1210.28925 -254.516202  L 1213.108458 -255.297042  L 1215.840591 -256.077882  L 1218.45937 -256.858722  L 1220.938826 -257.639563  L 1223.252741 -258.420403  L 1225.375883 -259.201243  L 1227.286796 -259.982083  L 1228.970985 -260.762923  L 1230.423172 -261.543763  L 1231.647838 -262.324604  L 1232.65801 -263.105444  L 1233.472927 -263.886284  L 1234.115432 -264.667124  L 1234.609753 -265.447964  L 1234.979944 -266.228804  L 1235.248926 -267.009644  L 1235.437859 -267.790485  L 1235.565665 -268.571325  L 1235.648636 -269.352165  L 1235.700168 -270.133005  L 1235.831676 -270.133005  L 1235.831676 -270.133005  L 1235.883208 -269.352165  L 1235.966179 -268.571325  L 1236.093985 -267.790485  L 1236.282918 -267.009644  L 1236.5519 -266.228804  L 1236.922091 -265.447964  L 1237.416412 -264.667124  L 1238.058917 -263.886284  L 1238.873834 -263.105444  L 1239.884006 -262.324604  L 1241.108672 -261.543763  L 1242.560859 -260.762923  L 1244.245048 -259.982083  L 1246.155961 -259.201243  L 1248.279103 -258.420403  L 1250.593018 -257.639563  L 1253.072474 -256.858722  L 1255.691253 -256.077882  L 1258.423386 -255.297042  L 1261.242594 -254.516202  L 1264.120956 -253.735362  L 1267.028709 -252.954522  L 1269.93669 -252.173681  L 1272.821055 -251.392841  L 1275.667264 -250.612001  L 1278.468593 -249.831161  L 1281.215474 -249.050321  L 1283.876249 -248.269481  L 1286.37604 -247.48864  L 1288.584985 -246.7078  L 1290.326638 -245.92696  L 1291.410556 -245.14612  L 1291.682307 -244.36528  L 1291.074437 -243.58444  L 1289.638864 -242.8036  L 1287.547108 -242.022759  L 1285.057217 -241.241919  L 1282.459323 -240.461079  L 1280.018902 -239.680239  L 1277.935204 -238.899399  L 1276.323701 -238.118559  L 1275.220845 -237.337718  L 1274.602133 -236.556878  L 1274.402896 -235.776038  L 1274.534594 -234.995198  L 1274.894723 -234.214358  L 1275.372679 -233.433518  L 1275.855397 -232.652677  L 1276.235404 -231.871837  L 1276.42131 -231.090997  L 1276.348515 -230.310157  L 1275.986895 -229.529317  L 1275.342872 -228.748477  L 1274.454812 -227.967636  L 1273.382464 -227.186796  L 1272.19252 -226.405956  L 1270.943291 -225.625116  L 1269.671955 -224.844276  L 1268.387741 -224.063436  L 1267.073461 -223.282596  L 1265.695825 -222.501755  L 1264.222202 -221.720915  L 1262.638942 -220.940075  L 1260.965212 -220.159235  L 1259.257326 -219.378395  L 1257.601583 -218.597555  L 1256.097669 -217.816714  L 1254.838012 -217.035874  L 1253.889753 -216.255034  L 1253.284576 -215.474194  L 1253.018203 -214.693354  L 1253.057422 -213.912514  L 1253.349925 -213.131673  L 1253.832209 -212.350833  L 1254.433177 -211.569993  L 1255.074485 -210.789153  L 1255.671107 -210.008313  L 1256.135611 -209.227473  L 1256.387227 -208.446632  L 1256.363397 -207.665792  L 1256.029231 -206.884952  L 1255.380636 -206.104112  L 1254.439747 -205.323272  L 1253.245041 -204.542432  L 1251.841005 -203.761592  L 1250.271976 -202.980751  L 1248.581999 -202.199911  L 1246.818925 -201.419071  L 1245.038586 -200.638231  L 1243.305004 -199.857391  L 1241.685006 -199.076551  L 1240.238731 -198.29571  L 1239.009687 -197.51487  L 1238.018162 -196.73403  L 1237.26016 -195.95319  L 1236.711668 -195.17235  L 1236.336255 -194.39151  L 1236.093297 -193.610669  L 1235.944643 -192.829829  z "
             id="m69f2eb63db"
             style="stroke:#4c4c4c;stroke-width:4;" />
        </defs>
        <g
           clip-path="url(#p80ae326207)"
           id="g227">
          <use
             style="fill:#b55d60;stroke:#4c4c4c;stroke-width:4;"
             x="0"
             xlink:href="#m69f2eb63db"
             y="360"
             id="use225" />
        </g>
      </g>
      <g
         id="line2d_1">
        <path
           clip-path="url(#p80ae326207)"
           d="M 282.521454 116.20603  L 282.521454 86.27122  "
           style="fill:none;stroke:#4c4c4c;stroke-linecap:round;stroke-width:4;"
           id="path230" />
      </g>
      <g
         id="line2d_2">
        <path
           clip-path="url(#p80ae326207)"
           d="M 282.521454 103.239232  L 282.521454 94.491187  "
           style="fill:none;stroke:#4c4c4c;stroke-linecap:round;stroke-width:12;"
           id="path233" />
      </g>
      <g
         id="line2d_3">
        <path
           clip-path="url(#p80ae326207)"
           d="M 600.26961 138.280186  L 600.26961 93.696034  "
           style="fill:none;stroke:#4c4c4c;stroke-linecap:round;stroke-width:4;"
           id="path236" />
      </g>
      <g
         id="line2d_4">
        <path
           clip-path="url(#p80ae326207)"
           d="M 600.26961 120.390235  L 600.26961 108.208193  "
           style="fill:none;stroke:#4c4c4c;stroke-linecap:round;stroke-width:12;"
           id="path239" />
      </g>
      <g
         id="line2d_5">
        <path
           clip-path="url(#p80ae326207)"
           d="M 918.017766 131.563901  L 918.017766 91.506171  "
           style="fill:none;stroke:#4c4c4c;stroke-linecap:round;stroke-width:4;"
           id="path242" />
      </g>
      <g
         id="line2d_6">
        <path
           clip-path="url(#p80ae326207)"
           d="M 918.017766 116.557406  L 918.017766 106.525038  "
           style="fill:none;stroke:#4c4c4c;stroke-linecap:round;stroke-width:12;"
           id="path245" />
      </g>
      <g
         id="line2d_7">
        <path
           clip-path="url(#p80ae326207)"
           d="M 1235.765922 160.729321  L 1235.765922 96.307844  "
           style="fill:none;stroke:#4c4c4c;stroke-linecap:round;stroke-width:4;"
           id="path248" />
      </g>
      <g
         id="line2d_8">
        <path
           clip-path="url(#p80ae326207)"
           d="M 1235.765922 136.548206  L 1235.765922 114.636696  "
           style="fill:none;stroke:#4c4c4c;stroke-linecap:round;stroke-width:12;"
           id="path251" />
      </g>
      <g
         id="patch_3">
        <path
           d="M 113.647376 254.325905  L 113.647376 87.153181  "
           style="fill:none;stroke:#262626;stroke-linecap:square;stroke-linejoin:miter;stroke-width:1.25;"
           id="path254" />
      </g>
      <g
         id="PathCollection_1">
        <defs
           id="defs258">
          <path
             d="M 0 4  C 1.060812 4 2.078319 3.578535 2.828427 2.828427  C 3.578535 2.078319 4 1.060812 4 0  C 4 -1.060812 3.578535 -2.078319 2.828427 -2.828427  C 2.078319 -3.578535 1.060812 -4 0 -4  C -1.060812 -4 -2.078319 -3.578535 -2.828427 -2.828427  C -3.578535 -2.078319 -4 -1.060812 -4 0  C -4 1.060812 -3.578535 2.078319 -2.828427 2.828427  C -2.078319 3.578535 -1.060812 4 0 4  z "
             id="m14c9d910cd"
             style="stroke:#4c4c4c;" />
        </defs>
        <g
           clip-path="url(#p80ae326207)"
           id="g262">
          <use
             style="fill:#ffffff;stroke:#4c4c4c;"
             x="282.521454"
             xlink:href="#m14c9d910cd"
             y="99.246683"
             id="use260" />
        </g>
      </g>
      <g
         id="PathCollection_2">
        <g
           clip-path="url(#p80ae326207)"
           id="g267">
          <use
             style="fill:#ffffff;stroke:#4c4c4c;"
             x="600.26961"
             xlink:href="#m14c9d910cd"
             y="111.905784"
             id="use265" />
        </g>
      </g>
      <g
         id="PathCollection_3">
        <g
           clip-path="url(#p80ae326207)"
           id="g272">
          <use
             style="fill:#ffffff;stroke:#4c4c4c;"
             x="918.017766"
             xlink:href="#m14c9d910cd"
             y="110.002419"
             id="use270" />
        </g>
      </g>
      <g
         id="PathCollection_4">
        <g
           clip-path="url(#p80ae326207)"
           id="g277">
          <use
             style="fill:#ffffff;stroke:#4c4c4c;"
             x="1235.765922"
             xlink:href="#m14c9d910cd"
             y="124.209676"
             id="use275" />
        </g>
      </g>
      <text
         xml:space="preserve"
         style="font-style:normal;font-weight:normal;font-size:30px;line-height:1.25;font-family:sans-serif;letter-spacing:0px;word-spacing:0px;fill:#000000;fill-opacity:1;stroke:none;stroke-width:0.75;stroke-linecap:butt;stroke-linejoin:round"
         x="140.74646"
         y="307.9259"
         id="text1187"><tspan
           sodipodi:role="line"
           id="tspan1185"
           x="140.74646"
           y="307.9259"
           style="font-style:normal;font-variant:normal;font-weight:bold;font-stretch:normal;font-size:40px;font-family:'CMU Serif';-inkscape-font-specification:'CMU Serif, Bold';font-variant-ligatures:normal;font-variant-caps:normal;font-variant-numeric:normal;font-variant-east-asian:normal;stroke-width:0.75">MH_01_easy</tspan></text>
      <text
         xml:space="preserve"
         style="font-style:normal;font-weight:normal;font-size:30px;line-height:1.25;font-family:sans-serif;letter-spacing:0px;word-spacing:0px;fill:#000000;fill-opacity:1;stroke:none;stroke-width:0.75;stroke-linecap:butt;stroke-linejoin:round"
         x="442.24646"
         y="307.9259"
         id="text1233"><tspan
           sodipodi:role="line"
           id="tspan1231"
           x="442.24646"
           y="307.9259"
           style="font-style:normal;font-variant:normal;font-weight:bold;font-stretch:normal;font-size:40px;font-family:'CMU Serif';-inkscape-font-specification:'CMU Serif, Bold';font-variant-ligatures:normal;font-variant-caps:normal;font-variant-numeric:normal;font-variant-east-asian:normal;stroke-width:0.75">MH_04_difficult</tspan></text>
      <text
         xml:space="preserve"
         style="font-style:normal;font-weight:normal;font-size:30px;line-height:1.25;font-family:sans-serif;letter-spacing:0px;word-spacing:0px;fill:#000000;fill-opacity:1;stroke:none;stroke-width:0.75;stroke-linecap:butt;stroke-linejoin:round"
         x="1105.2474"
         y="307.36591"
         id="text1269-5"><tspan
           sodipodi:role="line"
           id="tspan1267-6"
           x="1105.2474"
           y="307.36591"
           style="font-style:normal;font-variant:normal;font-weight:bold;font-stretch:normal;font-size:40px;font-family:'CMU Serif';-inkscape-font-specification:'CMU Serif, Bold';font-variant-ligatures:normal;font-variant-caps:normal;font-variant-numeric:normal;font-variant-east-asian:normal;stroke-width:0.75">V1_01_easy</tspan></text>
    </g>
    <text
       xml:space="preserve"
       style="font-style:normal;font-weight:normal;font-size:30px;line-height:1.25;font-family:sans-serif;letter-spacing:0px;word-spacing:0px;fill:#000000;fill-opacity:1;stroke:none;stroke-width:0.75;stroke-linecap:butt;stroke-linejoin:round"
       x="806.99933"
       y="307.36591"
       id="text1269"><tspan
         sodipodi:role="line"
         id="tspan1267"
         x="806.99933"
         y="307.36591"
         style="font-style:normal;font-variant:normal;font-weight:bold;font-stretch:normal;font-size:40px;font-family:'CMU Serif';-inkscape-font-specification:'CMU Serif, Bold';font-variant-ligatures:normal;font-variant-caps:normal;font-variant-numeric:normal;font-variant-east-asian:normal;stroke-width:0.75">V1_01_easy</tspan></text>
  </g>
  <defs
     id="defs303">
    <clipPath
       id="p80ae326207">
      <rect
         height="225.683177"
         width="1270.992624"
         x="123.647376"
         y="45.36"
         id="rect300" />
    </clipPath>
  </defs>
  <text
     xml:space="preserve"
     style="font-style:normal;font-weight:normal;font-size:30px;line-height:1.25;font-family:sans-serif;letter-spacing:0px;word-spacing:0px;fill:#000000;fill-opacity:1;stroke:none;stroke-width:0.75;stroke-linecap:butt;stroke-linejoin:round"
     x="-277.51361"
     y="69.886055"
     id="text1163"
     transform="rotate(-90)"><tspan
       sodipodi:role="line"
       id="tspan1161"
       x="-277.51361"
       y="69.886055"
       style="font-style:normal;font-variant:normal;font-weight:bold;font-stretch:normal;font-size:40px;font-family:'CMU Serif';-inkscape-font-specification:'CMU Serif, Bold';font-variant-ligatures:normal;font-variant-caps:normal;font-variant-numeric:normal;font-variant-east-asian:normal;stroke-width:0.75">delentropy</tspan></text>
  <text
     xml:space="preserve"
     style="font-style:normal;font-weight:normal;font-size:30px;line-height:1.25;font-family:sans-serif;letter-spacing:0px;word-spacing:0px;fill:#000000;fill-opacity:1;stroke:none;stroke-width:0.75;stroke-linecap:butt;stroke-linejoin:round"
     x="111.46238"
     y="38.368271"
     id="text1177"><tspan
       sodipodi:role="line"
       id="tspan1175"
       x="111.46238"
       y="38.368271"
       style="font-style:normal;font-variant:normal;font-weight:bold;font-stretch:normal;font-size:40px;font-family:'CMU Serif';-inkscape-font-specification:'CMU Serif, Bold';font-variant-ligatures:normal;font-variant-caps:normal;font-variant-numeric:normal;font-variant-east-asian:normal;stroke-width:0.75">EuRoC</tspan></text>
</svg>
