<?xml version="1.0" encoding="UTF-8" standalone="no"?>
<svg
   xmlns:dc="http://purl.org/dc/elements/1.1/"
   xmlns:cc="http://creativecommons.org/ns#"
   xmlns:rdf="http://www.w3.org/1999/02/22-rdf-syntax-ns#"
   xmlns:svg="http://www.w3.org/2000/svg"
   xmlns="http://www.w3.org/2000/svg"
   xmlns:xlink="http://www.w3.org/1999/xlink"
   xmlns:sodipodi="http://sodipodi.sourceforge.net/DTD/sodipodi-0.dtd"
   xmlns:inkscape="http://www.inkscape.org/namespaces/inkscape"
   height="360pt"
   version="1.1"
   viewBox="0 0 1440 360"
   width="1440pt"
   id="svg295"
   sodipodi:docname="mimir_delentropies_edit.svg"
   inkscape:version="1.0.2 (1.0.2+r75+1)">
  <metadata
     id="metadata299">
    <rdf:RDF>
      <cc:Work
         rdf:about="">
        <dc:format>image/svg+xml</dc:format>
        <dc:type
           rdf:resource="http://purl.org/dc/dcmitype/StillImage" />
      </cc:Work>
    </rdf:RDF>
  </metadata>
  <sodipodi:namedview
     pagecolor="#ffffff"
     bordercolor="#666666"
     borderopacity="1"
     objecttolerance="10"
     gridtolerance="10"
     guidetolerance="10"
     inkscape:pageopacity="0"
     inkscape:pageshadow="2"
     inkscape:window-width="1853"
     inkscape:window-height="1145"
     id="namedview297"
     showgrid="false"
     inkscape:zoom="1.328125"
     inkscape:cx="88.246555"
     inkscape:cy="85.454569"
     inkscape:window-x="67"
     inkscape:window-y="27"
     inkscape:window-maximized="1"
     inkscape:current-layer="axes_1" />
  <defs
     id="defs4">
    <style
       type="text/css"
       id="style2">
*{stroke-linecap:butt;stroke-linejoin:round;}
  </style>
  </defs>
  <g
     id="figure_1">
    <g
       id="patch_1">
      <path
         d="M 0 360  L 1440 360  L 1440 0  L 0 0  z "
         style="fill:#ffffff;"
         id="path6" />
    </g>
    <g
       id="axes_1">
      <g
         id="patch_2">
        <path
           d="M 113.647376 271.043177  L 1394.64 271.043177  L 1394.64 45.36  L 113.647376 45.36  z "
           style="fill:#ffffff;"
           id="path9" />
      </g>
      <g
         id="matplotlib.axis_2">
        <g
           id="ytick_1">
          <g
             id="text_5">
            <!-- $0$ -->
            <defs
               id="defs134">
              <path
                 d="M 42 31.640625  C 42 37.75 41.90625 48.125 37.703125 56.109375  C 34 63.109375 28.09375 65.59375 22.90625 65.59375  C 18.09375 65.59375 12 63.40625 8.203125 56.203125  C 4.203125 48.71875 3.796875 39.4375 3.796875 31.640625  C 3.796875 25.953125 3.90625 17.28125 7 9.671875  C 11.296875 -0.609375 19 -2 22.90625 -2  C 27.5 -2 34.5 -0.109375 38.59375 9.375  C 41.59375 16.28125 42 24.359375 42 31.640625  z M 22.90625 -0.40625  C 16.5 -0.40625 12.703125 5.078125 11.296875 12.6875  C 10.203125 18.5625 10.203125 27.15625 10.203125 32.75  C 10.203125 40.4375 10.203125 46.828125 11.5 52.921875  C 13.40625 61.390625 19 64 22.90625 64  C 27 64 32.296875 61.296875 34.203125 53.125  C 35.5 47.4375 35.59375 40.734375 35.59375 32.75  C 35.59375 26.25 35.59375 18.265625 34.40625 12.375  C 32.296875 1.484375 26.40625 -0.40625 22.90625 -0.40625  z "
                 id="CMR17-48" />
            </defs>
            <g
               style="fill:#262626;"
               transform="translate(86.556542 267.644019)scale(0.385 -0.385)"
               id="g138">
              <use
                 transform="scale(0.996264)"
                 xlink:href="#CMR17-48"
                 id="use136" />
            </g>
          </g>
        </g>
        <g
           id="ytick_2">
          <g
             id="text_6">
            <!-- $2$ -->
            <defs
               id="defs143">
              <path
                 d="M 41.703125 15.453125  L 39.90625 15.453125  C 38.90625 8.375 38.09375 7.171875 37.703125 6.5625  C 37.203125 5.765625 30 5.765625 28.59375 5.765625  L 9.40625 5.765625  C 13 9.671875 20 16.75 28.5 24.953125  C 34.59375 30.734375 41.703125 37.53125 41.703125 47.421875  C 41.703125 59.21875 32.296875 66 21.796875 66  C 10.796875 66 4.09375 56.3125 4.09375 47.34375  C 4.09375 43.4375 7 42.9375 8.203125 42.9375  C 9.203125 42.9375 12.203125 43.546875 12.203125 47.03125  C 12.203125 50.109375 9.59375 51 8.203125 51  C 7.59375 51 7 50.90625 6.59375 50.703125  C 8.5 59.21875 14.296875 63.40625 20.40625 63.40625  C 29.09375 63.40625 34.796875 56.515625 34.796875 47.421875  C 34.796875 38.734375 29.703125 31.25 24 24.75  L 4.09375 2.28125  L 4.09375 0  L 39.296875 0  z "
                 id="CMR17-50" />
            </defs>
            <g
               style="fill:#262626;"
               transform="translate(86.556542 184.057657)scale(0.385 -0.385)"
               id="g147">
              <use
                 transform="scale(0.996264)"
                 xlink:href="#CMR17-50"
                 id="use145" />
            </g>
          </g>
        </g>
        <g
           id="ytick_3">
          <g
             id="text_7">
            <!-- $4$ -->
            <defs
               id="defs152">
              <path
                 d="M 33.59375 64.40625  C 33.59375 66.5 33.5 66.5 31.703125 66.5  L 2 19.59375  L 2 17  L 27.796875 17  L 27.796875 7.140625  C 27.796875 3.5 27.59375 2.5 20.59375 2.5  L 18.703125 2.5  L 18.703125 0  C 21.90625 0 27.296875 0 30.703125 0  C 34.09375 0 39.5 0 42.703125 0  L 42.703125 2.5  L 40.796875 2.5  C 33.796875 2.5 33.59375 3.5 33.59375 7.140625  L 33.59375 17  L 43.796875 17  L 43.796875 19.59375  L 33.59375 19.59375  z M 28.09375 57.859375  L 28.09375 19.59375  L 4 19.59375  z "
                 id="CMR17-52" />
            </defs>
            <g
               style="fill:#262626;"
               transform="translate(86.556542 100.471295)scale(0.385 -0.385)"
               id="g156">
              <use
                 transform="scale(0.996264)"
                 xlink:href="#CMR17-52"
                 id="use154" />
            </g>
          </g>
        </g>
      </g>
      <g
         id="PolyCollection_1">
        <defs
           id="defs189">
          <path
             d="M 273.782204 -134.382335  L 273.760704 -134.382335  L 273.736487 -135.693294  L 273.682152 -137.004252  L 273.586335 -138.315211  L 273.446694 -139.626169  L 273.263596 -140.937128  L 273.023124 -142.248086  L 272.704696 -143.559044  L 272.342352 -144.870003  L 272.054698 -146.180961  L 271.914144 -147.49192  L 271.767585 -148.802878  L 271.309653 -150.113836  L 270.412567 -151.424795  L 269.316172 -152.735753  L 268.421875 -154.046712  L 267.924102 -155.35767  L 267.663545 -156.668629  L 267.277922 -157.979587  L 266.456338 -159.290545  L 265.136985 -160.601504  L 263.575238 -161.912462  L 262.181304 -163.223421  L 261.147411 -164.534379  L 260.254204 -165.845338  L 259.165078 -167.156296  L 257.840629 -168.467254  L 256.565443 -169.778213  L 255.611918 -171.089171  L 254.88012 -172.40013  L 253.90287 -173.711088  L 252.326331 -175.022047  L 250.270357 -176.333005  L 247.944468 -177.643963  L 244.997577 -178.954922  L 240.603186 -180.26588  L 234.314934 -181.576839  L 226.826113 -182.887797  L 219.814662 -184.198756  L 214.717829 -185.509714  L 211.452963 -186.820672  L 208.563343 -188.131631  L 204.793503 -189.442589  L 200.158619 -190.753548  L 195.043911 -192.064506  L 188.797355 -193.375464  L 180.343388 -194.686423  L 170.204653 -195.997381  L 160.80112 -197.30834  L 154.430802 -198.619298  L 151.659516 -199.930257  L 151.544671 -201.241215  L 152.727528 -202.552173  L 154.823483 -203.863132  L 159.154533 -205.17409  L 167.245173 -206.485049  L 178.368052 -207.796007  L 189.207956 -209.106966  L 196.291555 -210.417924  L 199.161791 -211.728882  L 201.222713 -213.039841  L 206.720092 -214.350799  L 216.730376 -215.661758  L 228.63265 -216.972716  L 239.11251 -218.283675  L 246.771261 -219.594633  L 251.994268 -220.905591  L 255.418137 -222.21655  L 257.264121 -223.527508  L 257.786213 -224.838467  L 257.569367 -226.149425  L 257.194977 -227.460384  L 256.88061 -228.771342  L 256.558273 -230.0823  L 256.255267 -231.393259  L 256.356565 -232.704217  L 257.400369 -234.015176  L 259.525277 -235.326134  L 262.260082 -236.637092  L 264.971702 -237.948051  L 267.279187 -239.259009  L 268.995992 -240.569968  L 270.064945 -241.880926  L 270.632035 -243.191885  L 270.90596 -244.502843  L 270.914332 -245.813801  L 270.523646 -247.12476  L 269.665581 -248.435718  L 268.515755 -249.746677  L 267.525165 -251.057635  L 267.245854 -252.368594  L 267.951292 -253.679552  L 269.355031 -254.99051  L 270.823351 -256.301469  L 271.913703 -257.612427  L 272.609075 -258.923386  L 273.079651 -260.234344  L 273.416655 -261.545303  L 273.626419 -262.856261  L 273.726143 -264.167219  L 273.816764 -264.167219  L 273.816764 -264.167219  L 273.916488 -262.856261  L 274.126253 -261.545303  L 274.463256 -260.234344  L 274.933833 -258.923386  L 275.629205 -257.612427  L 276.719556 -256.301469  L 278.187876 -254.99051  L 279.591616 -253.679552  L 280.297054 -252.368594  L 280.017742 -251.057635  L 279.027152 -249.746677  L 277.877326 -248.435718  L 277.019261 -247.12476  L 276.628575 -245.813801  L 276.636948 -244.502843  L 276.910872 -243.191885  L 277.477963 -241.880926  L 278.546916 -240.569968  L 280.26372 -239.259009  L 282.571206 -237.948051  L 285.282826 -236.637092  L 288.01763 -235.326134  L 290.142539 -234.015176  L 291.186342 -232.704217  L 291.28764 -231.393259  L 290.984635 -230.0823  L 290.662298 -228.771342  L 290.347931 -227.460384  L 289.973541 -226.149425  L 289.756694 -224.838467  L 290.278786 -223.527508  L 292.124771 -222.21655  L 295.548639 -220.905591  L 300.771647 -219.594633  L 308.430398 -218.283675  L 318.910257 -216.972716  L 330.812532 -215.661758  L 340.822816 -214.350799  L 346.320195 -213.039841  L 348.381117 -211.728882  L 351.251352 -210.417924  L 358.334952 -209.106966  L 369.174856 -207.796007  L 380.297734 -206.485049  L 388.388375 -205.17409  L 392.719425 -203.863132  L 394.815379 -202.552173  L 395.998237 -201.241215  L 395.883392 -199.930257  L 393.112105 -198.619298  L 386.741787 -197.30834  L 377.338254 -195.997381  L 367.199519 -194.686423  L 358.745553 -193.375464  L 352.498996 -192.064506  L 347.384289 -190.753548  L 342.749404 -189.442589  L 338.979565 -188.131631  L 336.089944 -186.820672  L 332.825079 -185.509714  L 327.728245 -184.198756  L 320.716795 -182.887797  L 313.227974 -181.576839  L 306.939721 -180.26588  L 302.54533 -178.954922  L 299.59844 -177.643963  L 297.272551 -176.333005  L 295.216577 -175.022047  L 293.640038 -173.711088  L 292.662787 -172.40013  L 291.930989 -171.089171  L 290.977465 -169.778213  L 289.702278 -168.467254  L 288.377829 -167.156296  L 287.288704 -165.845338  L 286.395497 -164.534379  L 285.361604 -163.223421  L 283.967669 -161.912462  L 282.405923 -160.601504  L 281.08657 -159.290545  L 280.264986 -157.979587  L 279.879362 -156.668629  L 279.618805 -155.35767  L 279.121032 -154.046712  L 278.226735 -152.735753  L 277.130341 -151.424795  L 276.233255 -150.113836  L 275.775322 -148.802878  L 275.628763 -147.49192  L 275.488209 -146.180961  L 275.200555 -144.870003  L 274.838211 -143.559044  L 274.519783 -142.248086  L 274.279312 -140.937128  L 274.096214 -139.626169  L 273.956572 -138.315211  L 273.860756 -137.004252  L 273.806421 -135.693294  L 273.782204 -134.382335  z "
             id="m1476dca13e"
             style="stroke:#4c4c4c;stroke-width:4;" />
        </defs>
        <g
           clip-path="url(#p535451b29b)"
           id="g193">
          <use
             style="fill:#5875a4;stroke:#4c4c4c;stroke-width:4;"
             x="0"
             xlink:href="#m1476dca13e"
             y="360"
             id="use191" />
        </g>
      </g>
      <g
         id="PolyCollection_2">
        <defs
           id="defs197">
          <path
             d="M 594.025666 -126.005878  L 594.013553 -126.005878  L 593.999562 -127.452312  L 593.97032 -128.898745  L 593.927166 -130.345178  L 593.879859 -131.791611  L 593.831869 -133.238045  L 593.773058 -134.684478  L 593.702291 -136.130911  L 593.641561 -137.577344  L 593.606258 -139.023778  L 593.578848 -140.470211  L 593.52688 -141.916644  L 593.429597 -143.363077  L 593.281726 -144.809511  L 593.084148 -146.255944  L 592.838892 -147.702377  L 592.563426 -149.14881  L 592.296851 -150.595244  L 592.050997 -152.041677  L 591.777305 -153.48811  L 591.456177 -154.934543  L 591.172272 -156.380977  L 591.008556 -157.82741  L 590.937193 -159.273843  L 590.876185 -160.720276  L 590.741854 -162.16671  L 590.363172 -163.613143  L 589.441149 -165.059576  L 587.793322 -166.506009  L 585.748187 -167.952443  L 584.096632 -169.398876  L 583.348478 -170.845309  L 583.171381 -172.291742  L 582.838029 -173.738176  L 581.998174 -175.184609  L 580.762773 -176.631042  L 579.263349 -178.077475  L 577.485805 -179.523909  L 575.562202 -180.970342  L 573.873191 -182.416775  L 572.69185 -183.863208  L 571.824074 -185.309642  L 570.589151 -186.756075  L 568.334749 -188.202508  L 565.207423 -189.648941  L 562.038755 -191.095375  L 559.129014 -192.541808  L 555.743007 -193.988241  L 551.299861 -195.434674  L 546.467532 -196.881108  L 542.471975 -198.327541  L 539.514925 -199.773974  L 536.329222 -201.220407  L 531.327561 -202.666841  L 523.8078 -204.113274  L 514.084689 -205.559707  L 502.908216 -207.006141  L 490.966016 -208.452574  L 479.298266 -209.899007  L 470.107427 -211.34544  L 465.920347 -212.791874  L 467.748061 -214.238307  L 474.987664 -215.68474  L 486.291004 -217.131173  L 499.505571 -218.577607  L 511.932871 -220.02404  L 521.656708 -221.470473  L 528.063229 -222.916906  L 530.859535 -224.36334  L 529.917864 -225.809773  L 526.913929 -227.256206  L 525.751993 -228.702639  L 530.106305 -230.149073  L 540.515766 -231.595506  L 553.856129 -233.041939  L 565.828897 -234.488372  L 574.0089 -235.934806  L 578.392853 -237.381239  L 579.903247 -238.827672  L 579.392502 -240.274105  L 578.047075 -241.720539  L 577.592806 -243.166972  L 578.991261 -244.613405  L 581.510855 -246.059838  L 583.928169 -247.506272  L 585.868783 -248.952705  L 587.467326 -250.399138  L 588.614813 -251.845571  L 589.044568 -253.292005  L 588.783892 -254.738438  L 588.296614 -256.184871  L 588.200344 -257.631304  L 588.784424 -259.077738  L 589.827469 -260.524171  L 590.92946 -261.970604  L 591.892155 -263.417037  L 592.707683 -264.863471  L 593.349152 -266.309904  L 593.754587 -267.756337  L 593.942051 -269.20277  L 594.097169 -269.20277  L 594.097169 -269.20277  L 594.284632 -267.756337  L 594.690068 -266.309904  L 595.331537 -264.863471  L 596.147065 -263.417037  L 597.109759 -261.970604  L 598.211751 -260.524171  L 599.254796 -259.077738  L 599.838876 -257.631304  L 599.742606 -256.184871  L 599.255328 -254.738438  L 598.994652 -253.292005  L 599.424407 -251.845571  L 600.571894 -250.399138  L 602.170436 -248.952705  L 604.11105 -247.506272  L 606.528364 -246.059838  L 609.047958 -244.613405  L 610.446413 -243.166972  L 609.992144 -241.720539  L 608.646717 -240.274105  L 608.135973 -238.827672  L 609.646367 -237.381239  L 614.03032 -235.934806  L 622.210323 -234.488372  L 634.18309 -233.041939  L 647.523454 -231.595506  L 657.932915 -230.149073  L 662.287226 -228.702639  L 661.125291 -227.256206  L 658.121356 -225.809773  L 657.179685 -224.36334  L 659.97599 -222.916906  L 666.382512 -221.470473  L 676.106349 -220.02404  L 688.533649 -218.577607  L 701.748216 -217.131173  L 713.051555 -215.68474  L 720.291158 -214.238307  L 722.118872 -212.791874  L 717.931793 -211.34544  L 708.740954 -209.899007  L 697.073204 -208.452574  L 685.131004 -207.006141  L 673.954531 -205.559707  L 664.23142 -204.113274  L 656.711659 -202.666841  L 651.709998 -201.220407  L 648.524295 -199.773974  L 645.567244 -198.327541  L 641.571688 -196.881108  L 636.739358 -195.434674  L 632.296213 -193.988241  L 628.910205 -192.541808  L 626.000465 -191.095375  L 622.831797 -189.648941  L 619.704471 -188.202508  L 617.450068 -186.756075  L 616.215145 -185.309642  L 615.347369 -183.863208  L 614.166028 -182.416775  L 612.477018 -180.970342  L 610.553415 -179.523909  L 608.775871 -178.077475  L 607.276447 -176.631042  L 606.041045 -175.184609  L 605.201191 -173.738176  L 604.867839 -172.291742  L 604.690742 -170.845309  L 603.942587 -169.398876  L 602.291032 -167.952443  L 600.245898 -166.506009  L 598.598071 -165.059576  L 597.676047 -163.613143  L 597.297366 -162.16671  L 597.163035 -160.720276  L 597.102027 -159.273843  L 597.030663 -157.82741  L 596.866947 -156.380977  L 596.583042 -154.934543  L 596.261914 -153.48811  L 595.988222 -152.041677  L 595.742369 -150.595244  L 595.475793 -149.14881  L 595.200328 -147.702377  L 594.955071 -146.255944  L 594.757494 -144.809511  L 594.609622 -143.363077  L 594.512339 -141.916644  L 594.460372 -140.470211  L 594.432961 -139.023778  L 594.397659 -137.577344  L 594.336929 -136.130911  L 594.266161 -134.684478  L 594.20735 -133.238045  L 594.159361 -131.791611  L 594.112054 -130.345178  L 594.068899 -128.898745  L 594.039657 -127.452312  L 594.025666 -126.005878  z "
             id="m55371a55ee"
             style="stroke:#4c4c4c;stroke-width:4;" />
        </defs>
        <g
           clip-path="url(#p535451b29b)"
           id="g201">
          <use
             style="fill:#cc8963;stroke:#4c4c4c;stroke-width:4;"
             x="0"
             xlink:href="#m55371a55ee"
             y="360"
             id="use199" />
        </g>
      </g>
      <g
         id="PolyCollection_3">
        <defs
           id="defs205">
          <path
             d="M 915.553092 -97.807542  L 912.98244 -97.807542  L 910.711129 -99.723345  L 906.243087 -101.639148  L 899.387439 -103.554951  L 891.337899 -105.470754  L 884.444669 -107.386557  L 880.798623 -109.30236  L 880.814476 -111.218164  L 883.108341 -113.133967  L 885.591408 -115.04977  L 886.697312 -116.965573  L 885.921232 -118.881376  L 883.597447 -120.797179  L 880.336374 -122.712982  L 876.603183 -124.628785  L 872.579125 -126.544589  L 868.123755 -128.460392  L 862.900325 -130.376195  L 857.045841 -132.291998  L 852.007257 -134.207801  L 850.131323 -136.123604  L 852.64742 -138.039407  L 858.092988 -139.955211  L 863.229072 -141.871014  L 865.598792 -143.786817  L 865.057272 -145.70262  L 863.056913 -147.618423  L 860.946436 -149.534226  L 859.138032 -151.450029  L 857.587279 -153.365832  L 856.585099 -155.281636  L 856.84424 -157.197439  L 858.895479 -159.113242  L 862.572162 -161.029045  L 867.118273 -162.944848  L 871.686677 -164.860651  L 875.712424 -166.776454  L 878.996302 -168.692257  L 881.607812 -170.608061  L 883.701618 -172.523864  L 885.368671 -174.439667  L 886.657037 -176.35547  L 887.702508 -178.271273  L 888.763125 -180.187076  L 890.093582 -182.102879  L 891.794871 -184.018683  L 893.771475 -185.934486  L 895.799528 -187.850289  L 897.63727 -189.766092  L 899.122539 -191.681895  L 900.22329 -193.597698  L 901.01948 -195.513501  L 901.637258 -197.429304  L 902.193399 -199.345108  L 902.775975 -201.260911  L 903.435521 -203.176714  L 904.174114 -205.092517  L 904.957652 -207.00832  L 905.752504 -208.924123  L 906.542198 -210.839926  L 907.300795 -212.755729  L 907.95687 -214.671533  L 908.400934 -216.587336  L 908.559554 -218.503139  L 908.489197 -220.418942  L 908.383485 -222.334745  L 908.447944 -224.250548  L 908.748362 -226.166351  L 909.182522 -228.082155  L 909.586824 -229.997958  L 909.85403 -231.913761  L 909.967181 -233.829564  L 909.967391 -235.745367  L 909.921481 -237.66117  L 909.916554 -239.576973  L 910.050071 -241.492776  L 910.384862 -243.40858  L 910.900686 -245.324383  L 911.496937 -247.240186  L 912.04674 -249.155989  L 912.45632 -251.071792  L 912.692775 -252.987595  L 912.772957 -254.903398  L 912.730577 -256.819202  L 912.590285 -258.735005  L 912.368943 -260.650808  L 912.101624 -262.566611  L 911.864245 -264.482414  L 911.755726 -266.398217  L 911.837258 -268.31402  L 912.084792 -270.229823  L 912.413028 -272.145627  L 912.748808 -274.06143  L 913.071544 -275.977233  L 913.386825 -277.893036  L 913.683695 -279.808839  L 913.930373 -281.724642  L 914.101859 -283.640445  L 914.199397 -285.556248  L 914.24441 -287.472052  L 914.291122 -287.472052  L 914.291122 -287.472052  L 914.336135 -285.556248  L 914.433673 -283.640445  L 914.605159 -281.724642  L 914.851836 -279.808839  L 915.148707 -277.893036  L 915.463988 -275.977233  L 915.786724 -274.06143  L 916.122503 -272.145627  L 916.45074 -270.229823  L 916.698273 -268.31402  L 916.779806 -266.398217  L 916.671287 -264.482414  L 916.433908 -262.566611  L 916.166589 -260.650808  L 915.945247 -258.735005  L 915.804955 -256.819202  L 915.762575 -254.903398  L 915.842756 -252.987595  L 916.079212 -251.071792  L 916.488791 -249.155989  L 917.038594 -247.240186  L 917.634846 -245.324383  L 918.15067 -243.40858  L 918.485461 -241.492776  L 918.618977 -239.576973  L 918.614051 -237.66117  L 918.568141 -235.745367  L 918.568351 -233.829564  L 918.681502 -231.913761  L 918.948708 -229.997958  L 919.35301 -228.082155  L 919.78717 -226.166351  L 920.087588 -224.250548  L 920.152046 -222.334745  L 920.046335 -220.418942  L 919.975978 -218.503139  L 920.134598 -216.587336  L 920.578661 -214.671533  L 921.234737 -212.755729  L 921.993334 -210.839926  L 922.783028 -208.924123  L 923.577879 -207.00832  L 924.361417 -205.092517  L 925.100011 -203.176714  L 925.759556 -201.260911  L 926.342133 -199.345108  L 926.898274 -197.429304  L 927.516052 -195.513501  L 928.312241 -193.597698  L 929.412993 -191.681895  L 930.898262 -189.766092  L 932.736004 -187.850289  L 934.764057 -185.934486  L 936.740661 -184.018683  L 938.44195 -182.102879  L 939.772406 -180.187076  L 940.833024 -178.271273  L 941.878495 -176.35547  L 943.16686 -174.439667  L 944.833914 -172.523864  L 946.92772 -170.608061  L 949.53923 -168.692257  L 952.823108 -166.776454  L 956.848855 -164.860651  L 961.417259 -162.944848  L 965.963369 -161.029045  L 969.640053 -159.113242  L 971.691292 -157.197439  L 971.950433 -155.281636  L 970.948253 -153.365832  L 969.3975 -151.450029  L 967.589096 -149.534226  L 965.478619 -147.618423  L 963.47826 -145.70262  L 962.93674 -143.786817  L 965.30646 -141.871014  L 970.442544 -139.955211  L 975.888112 -138.039407  L 978.404209 -136.123604  L 976.528275 -134.207801  L 971.489691 -132.291998  L 965.635207 -130.376195  L 960.411776 -128.460392  L 955.956406 -126.544589  L 951.932349 -124.628785  L 948.199157 -122.712982  L 944.938085 -120.797179  L 942.6143 -118.881376  L 941.83822 -116.965573  L 942.944123 -115.04977  L 945.42719 -113.133967  L 947.721056 -111.218164  L 947.736908 -109.30236  L 944.090863 -107.386557  L 937.197632 -105.470754  L 929.148093 -103.554951  L 922.292445 -101.639148  L 917.824403 -99.723345  L 915.553092 -97.807542  z "
             id="m0a48d7464b"
             style="stroke:#4c4c4c;stroke-width:4;" />
        </defs>
        <g
           clip-path="url(#p535451b29b)"
           id="g209">
          <use
             style="fill:#5f9e6e;stroke:#4c4c4c;stroke-width:4;"
             x="0"
             xlink:href="#m0a48d7464b"
             y="360"
             id="use207" />
        </g>
      </g>
      <g
         id="PolyCollection_4">
        <defs
           id="defs213">
          <path
             d="M 1235.425001 -94.090803  L 1233.606843 -94.090803  L 1232.70112 -96.143685  L 1231.280309 -98.196568  L 1229.337348 -100.24945  L 1227.021223 -102.302333  L 1224.609854 -104.355216  L 1222.406565 -106.408098  L 1220.628417 -108.460981  L 1219.364385 -110.513864  L 1218.610472 -112.566746  L 1218.311045 -114.619629  L 1218.341317 -116.672512  L 1218.449937 -118.725394  L 1218.246639 -120.778277  L 1217.294498 -122.83116  L 1215.276648 -124.884042  L 1212.139523 -126.936925  L 1208.123479 -128.989808  L 1203.660897 -131.04269  L 1199.195821 -133.095573  L 1195.014189 -135.148456  L 1191.162913 -137.201338  L 1187.49646 -139.254221  L 1183.838563 -141.307103  L 1180.193688 -143.359986  L 1176.900674 -145.412869  L 1174.618105 -147.465751  L 1174.09811 -149.518634  L 1175.831847 -151.571517  L 1179.759107 -153.624399  L 1185.229464 -155.677282  L 1191.259565 -157.730165  L 1196.941711 -159.783047  L 1201.763511 -161.83593  L 1205.66876 -163.888813  L 1208.86888 -165.941695  L 1211.564912 -167.994578  L 1213.760787 -170.047461  L 1215.252109 -172.100343  L 1215.757408 -174.153226  L 1215.096886 -176.206109  L 1213.318362 -178.258991  L 1210.694712 -180.311874  L 1207.578809 -182.364756  L 1204.207136 -184.417639  L 1200.622741 -186.470522  L 1196.829204 -188.523404  L 1193.08434 -190.576287  L 1190.068124 -192.62917  L 1188.712677 -194.682052  L 1189.754323 -196.734935  L 1193.31462 -198.787818  L 1198.804142 -200.8407  L 1205.191092 -202.893583  L 1211.428031 -204.946466  L 1216.782232 -206.999348  L 1220.947786 -209.052231  L 1223.971861 -211.105114  L 1226.094892 -213.157996  L 1227.59333 -215.210879  L 1228.677288 -217.263762  L 1229.459607 -219.316644  L 1229.980377 -221.369527  L 1230.251355 -223.42241  L 1230.28906 -225.475292  L 1230.125826 -227.528175  L 1229.804457 -229.581057  L 1229.365514 -231.63394  L 1228.833956 -233.686823  L 1228.210973 -235.739705  L 1227.475747 -237.792588  L 1226.597591 -239.845471  L 1225.554179 -241.898353  L 1224.349296 -243.951236  L 1223.022957 -246.004119  L 1221.648528 -248.057001  L 1220.319383 -250.109884  L 1219.139455 -252.162767  L 1218.232244 -254.215649  L 1217.760128 -256.268532  L 1217.917563 -258.321415  L 1218.866578 -260.374297  L 1220.632902 -262.42718  L 1223.033735 -264.480063  L 1225.7046 -266.532945  L 1228.22557 -268.585828  L 1230.274601 -270.63871  L 1231.720867 -272.691593  L 1232.619587 -274.744476  L 1233.133799 -276.797358  L 1233.440071 -278.850241  L 1233.664798 -280.903124  L 1233.866752 -282.956006  L 1234.054339 -285.008889  L 1234.214788 -287.061772  L 1234.336625 -289.114654  L 1234.418493 -291.167537  L 1234.467499 -293.22042  L 1234.493857 -295.273302  L 1234.506692 -297.326185  L 1234.525152 -297.326185  L 1234.525152 -297.326185  L 1234.537987 -295.273302  L 1234.564345 -293.22042  L 1234.61335 -291.167537  L 1234.695219 -289.114654  L 1234.817056 -287.061772  L 1234.977504 -285.008889  L 1235.165091 -282.956006  L 1235.367046 -280.903124  L 1235.591773 -278.850241  L 1235.898045 -276.797358  L 1236.412257 -274.744476  L 1237.310977 -272.691593  L 1238.757243 -270.63871  L 1240.806274 -268.585828  L 1243.327244 -266.532945  L 1245.998109 -264.480063  L 1248.398942 -262.42718  L 1250.165266 -260.374297  L 1251.114281 -258.321415  L 1251.271716 -256.268532  L 1250.7996 -254.215649  L 1249.892389 -252.162767  L 1248.712461 -250.109884  L 1247.383316 -248.057001  L 1246.008887 -246.004119  L 1244.682548 -243.951236  L 1243.477665 -241.898353  L 1242.434253 -239.845471  L 1241.556097 -237.792588  L 1240.820871 -235.739705  L 1240.197888 -233.686823  L 1239.66633 -231.63394  L 1239.227387 -229.581057  L 1238.906018 -227.528175  L 1238.742784 -225.475292  L 1238.780489 -223.42241  L 1239.051467 -221.369527  L 1239.572237 -219.316644  L 1240.354556 -217.263762  L 1241.438514 -215.210879  L 1242.936951 -213.157996  L 1245.059983 -211.105114  L 1248.084058 -209.052231  L 1252.249612 -206.999348  L 1257.603813 -204.946466  L 1263.840752 -202.893583  L 1270.227702 -200.8407  L 1275.717224 -198.787818  L 1279.277521 -196.734935  L 1280.319167 -194.682052  L 1278.963719 -192.62917  L 1275.947504 -190.576287  L 1272.20264 -188.523404  L 1268.409103 -186.470522  L 1264.824708 -184.417639  L 1261.453035 -182.364756  L 1258.337132 -180.311874  L 1255.713482 -178.258991  L 1253.934957 -176.206109  L 1253.274436 -174.153226  L 1253.779735 -172.100343  L 1255.271057 -170.047461  L 1257.466931 -167.994578  L 1260.162964 -165.941695  L 1263.363084 -163.888813  L 1267.268332 -161.83593  L 1272.090133 -159.783047  L 1277.772279 -157.730165  L 1283.802379 -155.677282  L 1289.272737 -153.624399  L 1293.199997 -151.571517  L 1294.933734 -149.518634  L 1294.413739 -147.465751  L 1292.13117 -145.412869  L 1288.838156 -143.359986  L 1285.193281 -141.307103  L 1281.535384 -139.254221  L 1277.868931 -137.201338  L 1274.017655 -135.148456  L 1269.836023 -133.095573  L 1265.370947 -131.04269  L 1260.908365 -128.989808  L 1256.89232 -126.936925  L 1253.755196 -124.884042  L 1251.737346 -122.83116  L 1250.785205 -120.778277  L 1250.581907 -118.725394  L 1250.690527 -116.672512  L 1250.720799 -114.619629  L 1250.421372 -112.566746  L 1249.667459 -110.513864  L 1248.403427 -108.460981  L 1246.625279 -106.408098  L 1244.42199 -104.355216  L 1242.010621 -102.302333  L 1239.694495 -100.24945  L 1237.751535 -98.196568  L 1236.330724 -96.143685  L 1235.425001 -94.090803  z "
             id="ma4b3942492"
             style="stroke:#4c4c4c;stroke-width:4;" />
        </defs>
        <g
           clip-path="url(#p535451b29b)"
           id="g217">
          <use
             style="fill:#b55d60;stroke:#4c4c4c;stroke-width:4;"
             x="0"
             xlink:href="#ma4b3942492"
             y="360"
             id="use215" />
        </g>
      </g>
      <g
         id="line2d_1">
        <path
           clip-path="url(#p535451b29b)"
           d="M 273.771454 197.305081  L 273.771454 122.793116  "
           style="fill:none;stroke:#4c4c4c;stroke-linecap:round;stroke-width:4;"
           id="path220" />
      </g>
      <g
         id="line2d_2">
        <path
           clip-path="url(#p535451b29b)"
           d="M 273.771454 169.360059  L 273.771454 150.728161  "
           style="fill:none;stroke:#4c4c4c;stroke-linecap:round;stroke-width:12;"
           id="path223" />
      </g>
      <g
         id="line2d_3">
        <path
           clip-path="url(#p535451b29b)"
           d="M 594.01961 187.378321  L 594.01961 107.658903  "
           style="fill:none;stroke:#4c4c4c;stroke-linecap:round;stroke-width:4;"
           id="path226" />
      </g>
      <g
         id="line2d_4">
        <path
           clip-path="url(#p535451b29b)"
           d="M 594.01961 157.474715  L 594.01961 137.531645  "
           style="fill:none;stroke:#4c4c4c;stroke-linecap:round;stroke-width:12;"
           id="path229" />
      </g>
      <g
         id="line2d_5">
        <path
           clip-path="url(#p535451b29b)"
           d="M 914.267766 254.207931  L 914.267766 134.682579  "
           style="fill:none;stroke:#4c4c4c;stroke-linecap:round;stroke-width:4;"
           id="path232" />
      </g>
      <g
         id="line2d_6">
        <path
           clip-path="url(#p535451b29b)"
           d="M 914.267766 227.502617  L 914.267766 190.366314  "
           style="fill:none;stroke:#4c4c4c;stroke-linecap:round;stroke-width:12;"
           id="path235" />
      </g>
      <g
         id="line2d_7">
        <path
           clip-path="url(#p535451b29b)"
           d="M 1234.515922 254.325905  L 1234.515922 86.232626  "
           style="fill:none;stroke:#4c4c4c;stroke-linecap:round;stroke-width:4;"
           id="path238" />
      </g>
      <g
         id="line2d_8">
        <path
           clip-path="url(#p535451b29b)"
           d="M 1234.515922 217.003472  L 1234.515922 164.449675  "
           style="fill:none;stroke:#4c4c4c;stroke-linecap:round;stroke-width:12;"
           id="path241" />
      </g>
      <g
         id="patch_3">
        <path
           d="M 113.647376 254.325905  L 113.647376 87.153181  "
           style="fill:none;stroke:#262626;stroke-linecap:square;stroke-linejoin:miter;stroke-width:1.25;"
           id="path244" />
      </g>
      <g
         id="PathCollection_1">
        <defs
           id="defs248">
          <path
             d="M 0 4  C 1.060812 4 2.078319 3.578535 2.828427 2.828427  C 3.578535 2.078319 4 1.060812 4 0  C 4 -1.060812 3.578535 -2.078319 2.828427 -2.828427  C 2.078319 -3.578535 1.060812 -4 0 -4  C -1.060812 -4 -2.078319 -3.578535 -2.828427 -2.828427  C -3.578535 -2.078319 -4 -1.060812 -4 0  C -4 1.060812 -3.578535 2.078319 -2.828427 2.828427  C -2.078319 3.578535 -1.060812 4 0 4  z "
             id="m94a3271c6a"
             style="stroke:#4c4c4c;" />
        </defs>
        <g
           clip-path="url(#p535451b29b)"
           id="g252">
          <use
             style="fill:#ffffff;stroke:#4c4c4c;"
             x="273.771454"
             xlink:href="#m94a3271c6a"
             y="159.539328"
             id="use250" />
        </g>
      </g>
      <g
         id="PathCollection_2">
        <g
           clip-path="url(#p535451b29b)"
           id="g257">
          <use
             style="fill:#ffffff;stroke:#4c4c4c;"
             x="594.01961"
             xlink:href="#m94a3271c6a"
             y="147.299689"
             id="use255" />
        </g>
      </g>
      <g
         id="PathCollection_3">
        <g
           clip-path="url(#p535451b29b)"
           id="g262">
          <use
             style="fill:#ffffff;stroke:#4c4c4c;"
             x="914.267766"
             xlink:href="#m94a3271c6a"
             y="210.290582"
             id="use260" />
        </g>
      </g>
      <g
         id="PathCollection_4">
        <g
           clip-path="url(#p535451b29b)"
           id="g267">
          <use
             style="fill:#ffffff;stroke:#4c4c4c;"
             x="1234.515922"
             xlink:href="#m94a3271c6a"
             y="198.987164"
             id="use265" />
        </g>
      </g>
    </g>
  </g>
  <defs
     id="defs293">
    <clipPath
       id="p535451b29b">
      <rect
         height="225.683177"
         width="1280.992624"
         x="113.647376"
         y="45.36"
         id="rect290" />
    </clipPath>
  </defs>
  <text
     xml:space="preserve"
     style="font-style:normal;font-weight:normal;font-size:30px;line-height:1.25;font-family:sans-serif;letter-spacing:0px;word-spacing:0px;fill:#000000;fill-opacity:1;stroke:none;stroke-width:0.75;stroke-linecap:butt;stroke-linejoin:round"
     x="184.74521"
     y="308.21008"
     id="text1135"><tspan
       sodipodi:role="line"
       id="tspan1133"
       x="184.74521"
       y="308.21008"
       style="font-style:normal;font-variant:normal;font-weight:bold;font-stretch:normal;font-size:40px;font-family:'CMU Serif';-inkscape-font-specification:'CMU Serif, Bold';font-variant-ligatures:normal;font-variant-caps:normal;font-variant-numeric:normal;font-variant-east-asian:normal;stroke-width:0.75">SeaFloor</tspan></text>
  <text
     xml:space="preserve"
     style="font-style:normal;font-weight:normal;font-size:30px;line-height:1.25;font-family:sans-serif;letter-spacing:0px;word-spacing:0px;fill:#000000;fill-opacity:1;stroke:none;stroke-width:0.75;stroke-linecap:butt;stroke-linejoin:round"
     x="797.74152"
     y="308.21008"
     id="text1139"><tspan
       sodipodi:role="line"
       id="tspan1137"
       x="797.74152"
       y="308.21008"
       style="font-style:normal;font-variant:normal;font-weight:bold;font-stretch:normal;font-size:40px;font-family:'CMU Serif';-inkscape-font-specification:'CMU Serif, Bold';font-variant-ligatures:normal;font-variant-caps:normal;font-variant-numeric:normal;font-variant-east-asian:normal;stroke-width:0.75">OceanFloor</tspan></text>
  <text
     xml:space="preserve"
     style="font-style:normal;font-weight:normal;font-size:30px;line-height:1.25;font-family:sans-serif;letter-spacing:0px;word-spacing:0px;fill:#000000;fill-opacity:1;stroke:none;stroke-width:0.75;stroke-linecap:butt;stroke-linejoin:round"
     x="1138.3949"
     y="308.21008"
     id="text1143"><tspan
       sodipodi:role="line"
       id="tspan1141"
       x="1138.3949"
       y="308.21008"
       style="font-style:normal;font-variant:normal;font-weight:bold;font-stretch:normal;font-size:40px;font-family:'CMU Serif';-inkscape-font-specification:'CMU Serif, Bold';font-variant-ligatures:normal;font-variant-caps:normal;font-variant-numeric:normal;font-variant-east-asian:normal;stroke-width:0.75">SandPipe</tspan></text>
  <text
     xml:space="preserve"
     style="font-style:normal;font-weight:normal;font-size:30px;line-height:1.25;font-family:sans-serif;letter-spacing:0px;word-spacing:0px;fill:#000000;fill-opacity:1;stroke:none;stroke-width:0.75;stroke-linecap:butt;stroke-linejoin:round"
     x="430.20334"
     y="308.25009"
     id="text1147"><tspan
       sodipodi:role="line"
       id="tspan1145"
       x="430.20334"
       y="308.25009"
       style="font-style:normal;font-variant:normal;font-weight:bold;font-stretch:normal;font-size:40px;font-family:'CMU Serif';-inkscape-font-specification:'CMU Serif, Bold';font-variant-ligatures:normal;font-variant-caps:normal;font-variant-numeric:normal;font-variant-east-asian:normal;stroke-width:0.75">SeaFloor_Algae</tspan></text>
  <text
     xml:space="preserve"
     style="font-style:normal;font-weight:normal;font-size:30px;line-height:1.25;font-family:sans-serif;letter-spacing:0px;word-spacing:0px;fill:#000000;fill-opacity:1;stroke:none;stroke-width:0.75;stroke-linecap:butt;stroke-linejoin:round"
     x="114.26376"
     y="39.756863"
     id="text1151"><tspan
       sodipodi:role="line"
       id="tspan1149"
       x="114.26376"
       y="39.756863"
       style="font-style:normal;font-variant:normal;font-weight:bold;font-stretch:normal;font-size:40px;font-family:'CMU Serif';-inkscape-font-specification:'CMU Serif, Bold';font-variant-ligatures:normal;font-variant-caps:normal;font-variant-numeric:normal;font-variant-east-asian:normal;stroke-width:0.75">MIMIR</tspan></text>
  <text
     xml:space="preserve"
     style="font-style:normal;font-weight:normal;font-size:30px;line-height:1.25;font-family:sans-serif;letter-spacing:0px;word-spacing:0px;fill:#000000;fill-opacity:1;stroke:none;stroke-width:0.75;stroke-linecap:butt;stroke-linejoin:round"
     x="-277.51361"
     y="66.658325"
     id="text1155"
     transform="rotate(-90)"><tspan
       sodipodi:role="line"
       id="tspan1153"
       x="-277.51361"
       y="66.658325"
       style="font-style:normal;font-variant:normal;font-weight:bold;font-stretch:normal;font-size:40px;font-family:'CMU Serif';-inkscape-font-specification:'CMU Serif, Bold';font-variant-ligatures:normal;font-variant-caps:normal;font-variant-numeric:normal;font-variant-east-asian:normal;stroke-width:0.75">delentropy</tspan></text>
</svg>
